<?xml version="1.0" standalone="no"?>
<!DOCTYPE svg PUBLIC "-//W3C//DTD SVG 1.1//EN" "http://www.w3.org/Graphics/SVG/1.1/DTD/svg11.dtd" >
<svg xmlns="http://www.w3.org/2000/svg" xmlns:xlink="http://www.w3.org/1999/xlink" version="1.1">
<metadata>
Created by FontForge 20150318 at Fri Sep 11 02:21:07 2015
 By uniteet7
Copyright (c) 2011 by Botjo Nikoltchev, with Reserved Font Name 'Sofadi One'
</metadata>
<defs>
<font id="SofadiOneRegular" horiz-adv-x="0" >
  <font-face 
    font-family="SofadiOneRegular"
    font-weight="400"
    font-stretch="normal"
    units-per-em="1000"
    panose-1="2 0 0 0 0 0 0 0 0 0"
    ascent="800"
    descent="-200"
    x-height="394"
    cap-height="621"
    bbox="-79 -309 1000 856"
    underline-thickness="50"
    underline-position="-50"
    unicode-range="U+0001-F6C3"
  />
<missing-glyph horiz-adv-x="548" 
d="M80 689h388v-689h-388v689zM400 68v553h-252v-553h252z" />
    <glyph glyph-name=".notdef" horiz-adv-x="548" 
d="M80 689h388v-689h-388v689zM400 68v553h-252v-553h252z" />
    <glyph glyph-name=".null" 
 />
    <glyph glyph-name="nonmarkingreturn" horiz-adv-x="300" 
 />
    <glyph glyph-name="uni0001" 
 />
    <glyph glyph-name="uni0002" 
 />
    <glyph glyph-name="uni0003" 
 />
    <glyph glyph-name="uni0004" 
 />
    <glyph glyph-name="uni0005" 
 />
    <glyph glyph-name="uni0006" 
 />
    <glyph glyph-name="uni0007" 
 />
    <glyph glyph-name="uni0008" 
 />
    <glyph glyph-name="uni0009" unicode="&#x9;" 
 />
    <glyph glyph-name="uni0010" 
 />
    <glyph glyph-name="uni0011" 
 />
    <glyph glyph-name="uni0012" 
 />
    <glyph glyph-name="uni0013" 
 />
    <glyph glyph-name="uni0014" 
 />
    <glyph glyph-name="uni0015" 
 />
    <glyph glyph-name="uni0016" 
 />
    <glyph glyph-name="uni0017" 
 />
    <glyph glyph-name="uni0018" 
 />
    <glyph glyph-name="uni0019" 
 />
    <glyph glyph-name="space" unicode=" " horiz-adv-x="300" 
 />
    <glyph glyph-name="exclam" unicode="!" horiz-adv-x="241" 
d="M121 177q-25 0 -33.5 9.5t-8.5 23.5l-6 499q0 14 11.5 25t36.5 11t36.5 -11t11.5 -25l-6 -499q0 -14 -8.5 -23.5t-33.5 -9.5zM121 -4q-26 0 -38.5 10.5t-12.5 26.5v32q0 16 12.5 26.5t38.5 10.5t38 -10.5t12 -26.5v-32q0 -16 -12 -26.5t-38 -10.5z" />
    <glyph glyph-name="quotedbl" unicode="&#x22;" horiz-adv-x="331" 
d="M131 464q0 -17 -11 -27t-30 -10q-40 0 -40 37v201q0 37 40 37q19 0 30 -10t11 -27v-201zM281 464q0 -17 -11 -27t-30 -10q-40 0 -40 37v201q0 37 40 37q19 0 30 -10t11 -27v-201z" />
    <glyph glyph-name="numbersign" unicode="#" horiz-adv-x="600" 
d="M128 522v67q0 14 10 23.5t33 9.5t33 -9.5t10 -23.5v-67h173v67q0 14 9.5 23.5t31.5 9.5q24 0 34 -9.5t10 -23.5v-67h64q15 0 24.5 -10.5t9.5 -33.5t-9.5 -32.5t-24.5 -9.5h-64v-260h64q15 0 24.5 -10t9.5 -33q0 -22 -9.5 -32.5t-24.5 -10.5h-64v-67q0 -14 -10 -23.5
t-34 -9.5q-22 0 -31.5 9.5t-9.5 23.5v67h-173v-67q0 -14 -10 -23.5t-33 -9.5t-33 9.5t-10 23.5v67h-65q-14 0 -23.5 10.5t-9.5 32.5q0 23 9.5 33t23.5 10h65v260h-65q-14 0 -23.5 9.5t-9.5 32.5t9.5 33.5t23.5 10.5h65zM214 176h173v260h-173v-260z" />
    <glyph glyph-name="dollar" unicode="$" horiz-adv-x="685" 
d="M335 59q37 0 66 10t49.5 26.5t31 37.5t10.5 42q0 14 -3.5 25t-14 20t-29.5 17.5t-50 17.5l-133 38q-63 18 -97.5 55t-34.5 96q0 28 13.5 55t38.5 49.5t60 39t77 24.5v70q0 17 12 28.5t38 11.5q27 0 39 -11.5t12 -28.5v-64q34 -3 70.5 -12t66 -23t48.5 -33t19 -42
q0 -20 -16.5 -35.5t-46.5 -15.5q-19 0 -33.5 7t-22.5 16q-20 22 -35.5 36t-31 22.5t-32 12t-37.5 3.5q-28 0 -51.5 -8.5t-41 -22t-27 -31t-9.5 -35.5q0 -26 14.5 -49t55.5 -34l169 -48q71 -20 97.5 -55t26.5 -81q0 -25 -14 -53t-40 -53.5t-62 -46.5t-80 -33v-64
q0 -17 -12 -28.5t-39 -11.5q-26 0 -38 11.5t-12 28.5v53q-49 2 -92.5 15t-76.5 35.5t-53 53.5t-23 69q0 23 14 42t40 19q23 0 36 -10.5t24 -43.5q19 -56 63.5 -85t96.5 -29z" />
    <glyph glyph-name="percent" unicode="%" horiz-adv-x="1004" 
d="M352 -21q-6 -10 -12.5 -16.5t-16.5 -6.5q-11 0 -27 10q-13 8 -18 15t-5 15q0 6 3 12.5t8 14.5l370 610q6 10 12 16.5t16 6.5q11 0 27 -10q13 -8 18 -15t5 -15q0 -10 -10 -27zM309 603q74 0 106.5 -27t32.5 -72q0 -41 -22.5 -83.5t-60.5 -77.5t-88.5 -57.5t-107.5 -22.5
q-74 0 -106.5 28t-32.5 73q0 41 22.5 83.5t61 77t89 56.5t106.5 22zM272 547q-32 0 -59.5 -12.5t-47.5 -33t-31.5 -47.5t-11.5 -56q0 -37 21.5 -58t59.5 -21q31 0 59 12.5t49 33.5t33.5 48t12.5 56q0 36 -22.5 57t-62.5 21zM835 349q74 0 106.5 -27t32.5 -72
q0 -41 -22.5 -83.5t-60.5 -77.5t-88.5 -57.5t-107.5 -22.5q-74 0 -106.5 28t-32.5 73q0 41 22.5 83.5t61 77t89 56.5t106.5 22zM798 293q-32 0 -59.5 -12.5t-47.5 -33t-31.5 -47.5t-11.5 -56q0 -37 21.5 -58t59.5 -21q31 0 59 12.5t49 33.5t33.5 48t12.5 56q0 36 -22.5 57
t-62.5 21z" />
    <glyph glyph-name="ampersand" unicode="&#x26;" horiz-adv-x="586" 
d="M516 261v-84q0 -92 -59 -141.5t-195 -49.5q-59 0 -101 10t-69 27t-39.5 39.5t-12.5 46.5q0 27 11 54.5t32 52.5t50 45t65 32q-67 15 -96 49t-29 70q0 39 23 77.5t61 69t87 49t101 18.5q60 0 84 -16.5t24 -45.5q0 -35 -15 -54.5t-38 -19.5q-21 0 -33 9.5t-12 25.5
q0 34 -50 34q-27 0 -51.5 -11t-43 -29.5t-30 -43.5t-11.5 -53q0 -49 42 -76t147 -27h61v39q0 17 11 28.5t37 11.5q27 0 38 -11.5t11 -28.5v-40h42q29 0 29 -28q0 -29 -29 -29h-42zM302 262q-73 0 -113.5 -32.5t-40.5 -84.5q0 -51 34 -76.5t111 -25.5q37 0 61.5 6t38.5 22
t20 43t6 69v79h-117z" />
    <glyph glyph-name="quotesingle" unicode="'" horiz-adv-x="181" 
d="M131 464q0 -17 -11 -27t-30 -10q-40 0 -40 37v201q0 37 40 37q19 0 30 -10t11 -27v-201z" />
    <glyph glyph-name="parenleft" unicode="(" horiz-adv-x="349" 
d="M174 63q0 -85 22.5 -161t70.5 -129q8 -8 10 -13.5t2 -10.5q0 -10 -9.5 -19.5t-22.5 -9.5q-10 0 -18.5 3t-19.5 14q-33 30 -59 68t-44 81t-27 89.5t-9 93.5v394q0 47 9 93.5t27 89.5t44 81t59 68q11 11 19.5 14t18.5 3q13 0 22.5 -9.5t9.5 -19.5q0 -5 -2 -10.5t-10 -13.5
q-48 -53 -70.5 -129.5t-22.5 -161.5v-405z" />
    <glyph glyph-name="parenright" unicode=")" horiz-adv-x="349" 
d="M175 468q0 85 -22.5 161.5t-70.5 129.5q-8 8 -10 13.5t-2 10.5q0 10 9.5 19.5t22.5 9.5q10 0 18.5 -3t19.5 -14q33 -30 59 -68t44 -81t27 -89.5t9 -93.5v-394q0 -47 -9 -93.5t-27 -89.5t-44 -81t-59 -68q-11 -11 -19.5 -14t-18.5 -3q-13 0 -22.5 9.5t-9.5 19.5
q0 5 2 10.5t10 13.5q48 53 70.5 129t22.5 161v405z" />
    <glyph glyph-name="asterisk" unicode="*" horiz-adv-x="413" 
d="M307 468q5 -7 5 -14q0 -13 -12 -24t-26 -11q-12 0 -19 10l-49 79l-49 -79q-7 -10 -19 -10q-14 0 -26 11.5t-12 24.5q0 6 5 13l62 70l-90 22q-9 2 -13 9t-4 15q0 14 9 26.5t21 12.5q2 0 8 -2l84 -36l-8 91q-2 13 9 19.5t24 6.5t23 -6.5t9 -19.5l-8 -92l84 36q6 2 9 2
q12 0 20.5 -12t8.5 -26q0 -8 -4 -15.5t-13 -9.5l-90 -22z" />
    <glyph glyph-name="plus" unicode="+" horiz-adv-x="347" 
d="M140 222h-81q-14 0 -21.5 9.5t-7.5 24.5q0 14 7.5 23.5t21.5 9.5h81v80q0 14 9.5 21.5t24.5 7.5q14 0 23.5 -7.5t9.5 -21.5v-80h81q14 0 21.5 -9.5t7.5 -23.5q0 -15 -7.5 -24.5t-21.5 -9.5h-81v-82q0 -14 -9.5 -21.5t-23.5 -7.5q-15 0 -24.5 7.5t-9.5 21.5v82z" />
    <glyph glyph-name="comma" unicode="," horiz-adv-x="221" 
d="M161 37q0 -12 -5 -25.5t-19 -44.5l-33 -73q-6 -14 -21 -14q-8 0 -17 4q-23 9 -23 25q0 3 2 9l36 83q-21 10 -21 32v32q0 16 12.5 26.5t38.5 10.5t38 -10.5t12 -26.5v-28z" />
    <glyph glyph-name="hyphen" unicode="-" horiz-adv-x="347" 
d="M59 222q-14 0 -21.5 9.5t-7.5 24.5q0 14 7.5 23.5t21.5 9.5h229q14 0 21.5 -9.5t7.5 -23.5q0 -15 -7.5 -24.5t-21.5 -9.5h-229z" />
    <glyph glyph-name="period" unicode="." horiz-adv-x="221" 
d="M111 -4q-26 0 -38.5 10.5t-12.5 26.5v32q0 16 12.5 26.5t38.5 10.5t38 -10.5t12 -26.5v-32q0 -16 -12 -26.5t-38 -10.5z" />
    <glyph glyph-name="slash" unicode="/" horiz-adv-x="382" 
d="M98 -16q-8 -24 -33 -24q-14 0 -29 7q-35 15 -35 39q0 9 4 17l279 678q8 24 33 24q14 0 28 -7q36 -14 36 -39q0 -9 -4 -17z" />
    <glyph glyph-name="zero" unicode="0" horiz-adv-x="569" 
d="M350 627q46 0 82.5 -13.5t62.5 -43t40 -75.5t14 -111q0 -88 -19.5 -161.5t-57.5 -126t-94.5 -81.5t-130.5 -29q-45 0 -81.5 14t-62 44t-39.5 76t-14 110q0 89 19.5 162t57.5 125.5t94 81t129 28.5zM329 564q-84 0 -128.5 -71.5t-44.5 -221.5q0 -61 8.5 -103.5t23 -68.5
t34.5 -38t44 -12q82 0 129 72t47 223q0 60 -8 102t-23 68t-36 38t-46 12z" />
    <glyph glyph-name="one" unicode="1" horiz-adv-x="375" 
d="M216 612q19 9 38 9q27 0 39 -13t12 -37v-541q0 -17 -12 -28.5t-39 -11.5q-26 0 -38 11.5t-12 28.5v496l-123 -73q-11 -6 -21 -6q-24 0 -35 26q-5 13 -5 21q0 21 26 34z" />
    <glyph glyph-name="two" unicode="2" horiz-adv-x="533" 
d="M57 0q-16 0 -21.5 10.5t-5.5 25.5q0 11 5 16.5t22 17.5q90 63 149 119.5t94.5 106t50 90.5t14.5 74q0 47 -21.5 71.5t-66.5 24.5q-44 0 -74 -20.5t-44 -56.5q-6 -15 -17.5 -24t-34.5 -9q-19 0 -32 9.5t-13 28.5q0 24 21 49t56 45.5t80 34t94 13.5q72 0 115 -39t43 -104
q0 -42 -23.5 -95.5t-64.5 -109t-97 -109t-120 -96.5h163q32 0 49 4t26 10.5t12.5 13.5t7.5 13.5t12 10.5t25 4q19 0 30.5 -12.5t11.5 -34.5q0 -38 -29.5 -60t-105.5 -22h-311z" />
    <glyph glyph-name="three" unicode="3" horiz-adv-x="577" 
d="M290 357q53 6 82.5 39.5t29.5 76.5q0 37 -20 60t-61 23q-44 0 -79 -20.5t-49 -56.5q-6 -15 -17.5 -24t-34.5 -9q-19 0 -32 9.5t-13 28.5q0 24 21 49t56 45.5t80 34t94 13.5q72 0 115 -31t43 -91q0 -20 -5 -42t-16.5 -43t-30.5 -39t-47 -29h12q59 0 89 -30t30 -74
q0 -45 -27 -91t-74.5 -83.5t-112 -61.5t-138.5 -24q-82 0 -123.5 31.5t-41.5 75.5q0 27 14.5 43.5t35.5 16.5q18 0 27.5 -7.5t15.5 -18.5t12 -23.5t17 -23.5t29.5 -18.5t49.5 -7.5q46 0 83.5 12t64 34t41 51.5t14.5 64.5q0 24 -7.5 41t-19.5 27.5t-27.5 15t-32.5 4.5
q-11 0 -26 -3.5t-29.5 -8t-27.5 -8t-21 -3.5q-28 0 -28 29q0 22 8 30t34 11z" />
    <glyph glyph-name="four" unicode="4" horiz-adv-x="609" 
d="M444 337q-41 -67 -99.5 -100.5t-132.5 -33.5q-91 0 -136.5 38t-45.5 95q0 30 11 65.5t30.5 71.5t47.5 71t61 64q11 11 19.5 14t18.5 3q13 0 22.5 -9.5t9.5 -19.5q0 -5 -2 -10.5t-10 -13.5q-24 -26 -42.5 -53.5t-31 -55t-19.5 -52.5t-7 -45q0 -51 26.5 -76.5t74.5 -25.5
q39 0 75.5 16.5t64 46.5t44.5 71t17 90v88q0 17 11.5 28.5t38.5 11.5q26 0 37.5 -11.5t11.5 -28.5v-547q0 -17 -11 -28.5t-36 -11.5q-26 0 -37 11.5t-11 28.5v308z" />
    <glyph glyph-name="five" unicode="5" horiz-adv-x="603" 
d="M439 611q66 0 95 -22t29 -60q0 -26 -9.5 -40t-35.5 -14q-17 0 -24.5 5t-10.5 13t-6 17t-11.5 17t-26 13t-50.5 5h-85q-36 0 -52 -11t-24 -36l-11 -39q-5 -17 -9 -35.5t-6.5 -38.5t-5.5 -45q41 26 85 38t89 12q82 0 122.5 -34t40.5 -97q0 -45 -28 -93.5t-76.5 -88
t-112.5 -65t-136 -25.5q-82 0 -123.5 31.5t-41.5 75.5q0 27 14.5 43.5t35.5 16.5q18 0 27.5 -7.5t15.5 -18.5t12 -23.5t17 -23.5t29.5 -18.5t49.5 -7.5q46 0 84 14.5t65 39t42 57t15 67.5q0 45 -25.5 70t-65.5 25q-41 0 -79.5 -17t-67.5 -42q-26 -21 -45 -21q-11 0 -20 6
q-18 12 -18 29q0 5 1 11.5t3 14.5l36 162q20 71 61 105.5t94 34.5h143z" />
    <glyph glyph-name="six" unicode="6" horiz-adv-x="587" 
d="M358 386q89 0 129 -33t40 -84q0 -48 -27 -98t-73.5 -91t-108 -67.5t-130.5 -26.5q-89 0 -128.5 32t-39.5 80q0 54 32 110q8 19 16 40.5t15 41.5t11 37t4 28q0 43 24 91t72 88t120 66t167 26q41 0 58.5 -14.5t17.5 -39.5q0 -37 -15.5 -55.5t-37.5 -18.5q-20 0 -32.5 9
t-12.5 26t-8 25t-28 8q-47 0 -88.5 -17.5t-75 -50t-57 -77.5t-34.5 -100q42 33 90 49t100 16zM317 324q-41 0 -76 -16t-60.5 -42t-40 -59.5t-14.5 -68.5q0 -42 27.5 -66t73.5 -24q40 0 75.5 15.5t62 41t42 58t15.5 66.5q0 42 -27.5 68.5t-77.5 26.5z" />
    <glyph glyph-name="seven" unicode="7" horiz-adv-x="496" 
d="M370 550h-129q-42 0 -64.5 -4.5t-34 -11.5t-15 -15t-7.5 -15t-13 -11.5t-31 -4.5q-26 0 -36 12t-10 39q0 20 9.5 35t31.5 25t57.5 15t87.5 5h206q34 0 49 -9t15 -35q0 -15 -10.5 -38.5t-24.5 -52.5l-236 -475q-5 -11 -13 -17t-21 -6q-14 0 -29 7q-33 16 -33 41q0 9 4 17z
" />
    <glyph glyph-name="eight" unicode="8" horiz-adv-x="564" 
d="M399 626q79 0 112 -26t33 -68q0 -43 -28 -90t-73 -79q42 -11 67.5 -37t25.5 -61q0 -50 -23.5 -100t-66 -90t-101.5 -65t-130 -25q-94 0 -134.5 32.5t-40.5 83.5q0 28 10.5 59t29.5 60t44 56t54 48q-25 11 -41 29t-16 44q0 41 21.5 82t59 73.5t88 53t109.5 20.5zM325 321
q-39 0 -72 -15t-57 -40.5t-37.5 -58t-13.5 -67.5q0 -45 26 -70.5t77 -25.5q39 0 72.5 15t58 40.5t39 58.5t14.5 69q0 42 -28 68t-79 26zM361 561q-32 0 -58 -10.5t-44.5 -28.5t-29 -41t-10.5 -48q0 -31 21 -49t62 -18q28 0 54.5 10.5t46.5 28.5t32 41.5t12 48.5
q0 31 -22 48.5t-64 17.5z" />
    <glyph glyph-name="nine" unicode="9" horiz-adv-x="602" 
d="M429 291q-83 -87 -196 -87q-89 0 -129.5 34.5t-40.5 89.5q0 51 26.5 104t71.5 96t104 70t124 27q92 0 132.5 -34t40.5 -89q0 -29 -9 -59.5t-25 -59.5q0 -33 1 -52.5t2 -30.5t2 -16t1 -11q0 -51 -27.5 -102t-74.5 -92t-110.5 -66.5t-136.5 -25.5q-82 0 -123.5 31.5
t-41.5 75.5q0 27 14.5 43.5t35.5 16.5q18 0 27.5 -7.5t15.5 -18.5t12 -23.5t17 -23.5t29.5 -18.5t49.5 -7.5q46 0 84 15t65.5 41.5t43 64t15.5 82.5v33zM352 562q-38 0 -71 -16t-57.5 -43t-38.5 -62t-14 -72q0 -48 25.5 -75t73.5 -27q38 0 71.5 16.5t59 43.5t40 62t14.5 73
q0 45 -27.5 72.5t-75.5 27.5z" />
    <glyph glyph-name="colon" unicode=":" horiz-adv-x="221" 
d="M111 249q-26 0 -38.5 10.5t-12.5 26.5v32q0 16 12.5 26.5t38.5 10.5t38 -10.5t12 -26.5v-32q0 -16 -12 -26.5t-38 -10.5zM111 -4q-26 0 -38.5 10.5t-12.5 26.5v32q0 16 12.5 26.5t38.5 10.5t38 -10.5t12 -26.5v-32q0 -16 -12 -26.5t-38 -10.5z" />
    <glyph glyph-name="semicolon" unicode=";" horiz-adv-x="221" 
d="M111 249q-26 0 -38.5 10.5t-12.5 26.5v32q0 16 12.5 26.5t38.5 10.5t38 -10.5t12 -26.5v-32q0 -16 -12 -26.5t-38 -10.5zM161 37q0 -12 -5 -25.5t-19 -44.5l-33 -73q-6 -14 -21 -14q-8 0 -17 4q-23 9 -23 25q0 3 2 9l36 83q-21 10 -21 32v32q0 16 12.5 26.5t38.5 10.5
t38 -10.5t12 -26.5v-28z" />
    <glyph glyph-name="less" unicode="&#x3c;" horiz-adv-x="433" 
d="M358 431q6 3 12 3q19 0 29 -23q4 -8 4 -17q0 -18 -17 -26l-252 -104l252 -103q17 -8 17 -26q0 -9 -4 -17q-10 -23 -29 -23q-6 0 -12 3l-310 136q-18 8 -18 31q0 22 18 30z" />
    <glyph glyph-name="equal" unicode="=" horiz-adv-x="347" 
d="M59 162q-14 0 -21.5 9.5t-7.5 24.5q0 14 7.5 23.5t21.5 9.5h229q14 0 21.5 -9.5t7.5 -23.5q0 -15 -7.5 -24.5t-21.5 -9.5h-229zM59 312q-14 0 -21.5 9.5t-7.5 24.5q0 14 7.5 23.5t21.5 9.5h229q14 0 21.5 -9.5t7.5 -23.5q0 -15 -7.5 -24.5t-21.5 -9.5h-229z" />
    <glyph glyph-name="greater" unicode="&#x3e;" horiz-adv-x="433" 
d="M385 295q18 -8 18 -30q0 -23 -18 -31l-310 -136q-6 -3 -12 -3q-19 0 -29 23q-4 8 -4 17q0 18 17 26l252 103l-252 104q-17 8 -17 26q0 9 4 17q10 23 29 23q6 0 12 -3z" />
    <glyph glyph-name="question" unicode="?" horiz-adv-x="509" 
d="M264 177q-25 0 -32.5 9.5t-9.5 23.5q-3 24 -3 53q0 23 10.5 46.5t39.5 54.5q37 39 65.5 83t28.5 94q0 44 -28 67.5t-77 23.5q-47 0 -75 -20.5t-45 -56.5q-7 -15 -18 -24t-34 -9q-19 0 -32 9.5t-13 28.5q0 24 17 49t48.5 45.5t76.5 34t101 13.5q84 0 134.5 -37.5
t50.5 -100.5q0 -27 -12.5 -59.5t-31 -65t-40.5 -61.5t-40 -49q-12 -13 -18.5 -21t-10.5 -15.5t-5 -16t-2 -21.5l-3 -45q-1 -14 -9 -23.5t-33 -9.5zM266 -4q-26 0 -38.5 10.5t-12.5 26.5v32q0 16 12.5 26.5t38.5 10.5t38 -10.5t12 -26.5v-32q0 -16 -12 -26.5t-38 -10.5z" />
    <glyph glyph-name="at" unicode="@" horiz-adv-x="879" 
d="M483 280q-32 0 -63.5 -12t-56.5 -33t-40 -50.5t-15 -65.5q0 -42 22.5 -60t62.5 -18q32 0 64.5 13t58.5 34.5t42.5 50.5t16.5 62q0 39 -25 59t-67 20zM583 478q51 0 97.5 -13t82 -38.5t56 -62t20.5 -82.5q0 -50 -17 -104t-46 -98t-67 -72.5t-80 -28.5q-27 0 -39 13t-12 37
v61q-93 -111 -214 -111q-76 0 -108 29.5t-32 86.5q0 47 27 90t69 76t92.5 52.5t97.5 19.5q60 0 99.5 -25.5t39.5 -81.5q0 -13 -3.5 -28.5t-3.5 -17.5v-108q0 -20 3.5 -27t12.5 -7q16 0 32.5 16.5t30 44.5t21.5 65t8 77q0 85 -54 128.5t-147 43.5q-78 0 -153 -27t-134 -73
t-95.5 -108t-36.5 -131q0 -44 16.5 -77t44.5 -56t65.5 -34.5t80.5 -11.5h27q17 0 26 -3t9 -16q0 -22 -24 -32t-84 -10q-51 0 -96.5 14.5t-80 41t-54.5 64.5t-20 86q0 94 45 174.5t120.5 139t173.5 91.5t204 33z" />
    <glyph glyph-name="A" unicode="A" horiz-adv-x="665" 
d="M491 344v34q0 97 -38 139.5t-107 42.5q-32 0 -62 -13t-54.5 -40t-43 -67.5t-27.5 -95.5h332zM154 280q0 -66 12 -116.5t33 -85.5q9 -15 12.5 -26t3.5 -22q0 -17 -15.5 -30.5t-41.5 -13.5q-17 0 -33.5 11t-28.5 34q-19 37 -30 90.5t-11 109.5q0 86 25.5 158.5t70 125
t103 82t124.5 29.5q109 0 163 -54.5t54 -169.5v-374q0 -19 -13 -30.5t-39 -11.5t-39 11.5t-13 30.5v252h-337z" />
    <glyph glyph-name="B" unicode="B" horiz-adv-x="686" 
d="M167 121q0 -22 4 -36t18.5 -21.5t41.5 -10t74 -2.5q63 0 107.5 9t72 26t40 43t12.5 60q0 25 -8.5 44t-29 32t-55 20t-86.5 7h-191v-171zM70 468q0 28 4 48.5t14 35.5t28 25.5t46 20.5q35 13 84.5 20t107.5 7q60 0 102 -10.5t69 -27.5t39 -39t12 -46q0 -23 -7 -46t-22 -45
t-37.5 -40t-52.5 -30q100 -5 144.5 -35.5t44.5 -90.5q0 -50 -25 -91.5t-74 -72.5t-122.5 -48t-169.5 -17q-53 0 -88.5 5.5t-57 18t-30.5 33t-9 49.5v376zM243 561q-26 -6 -41 -12t-22.5 -15.5t-10 -25t-2.5 -40.5v-119h147q70 0 112 31.5t42 85.5q0 51 -34 76.5t-111 25.5
q-18 0 -42 -2t-38 -5z" />
    <glyph glyph-name="C" unicode="C" horiz-adv-x="785" 
d="M364 55q39 0 73.5 8.5t64 22.5t54 32.5t42.5 39.5q12 14 23.5 21t28.5 7q16 0 25 -8t9 -22q0 -16 -15 -32q-26 -28 -62.5 -53t-79.5 -44t-90 -30t-94 -11q-77 0 -134 16.5t-94.5 46t-56 70.5t-18.5 91q0 52 17 103t48 97.5t74.5 85.5t96.5 68t114.5 45.5t127.5 16.5
q91 0 149 -24t85 -59q13 -16 13 -38q0 -21 -17 -36t-44 -15q-14 0 -28 7.5t-25 20.5q-33 40 -76.5 57.5t-101.5 17.5q-66 0 -123.5 -25.5t-100 -69t-67.5 -100t-25 -118.5q0 -40 14.5 -74.5t41 -60t65 -40t86.5 -14.5z" />
    <glyph glyph-name="D" unicode="D" horiz-adv-x="731" 
d="M245 -14q-59 0 -94 3.5t-53 14t-23 30t-5 50.5v382q0 36 7 60.5t28 41t58.5 27.5t98.5 20q28 4 67.5 7t72.5 3q63 0 113.5 -16t86.5 -45.5t55 -71.5t19 -93q0 -93 -31 -169t-87.5 -130.5t-136 -84t-176.5 -29.5zM565 363q0 104 -52.5 150.5t-160.5 46.5q-16 0 -30 -1
t-26 -3q-38 -5 -61.5 -11t-37 -16.5t-18.5 -26t-5 -39.5v-364q0 -15 3 -24t13.5 -14t30.5 -7t55 -2q64 0 117 18t91 55.5t59.5 96.5t21.5 141z" />
    <glyph glyph-name="E" unicode="E" horiz-adv-x="609" 
d="M511 106q30 0 30 -29q0 -14 -7 -23t-25 -19q-17 -9 -44 -18t-62.5 -15.5t-76.5 -11t-85 -4.5q-59 0 -93.5 5t-51.5 16.5t-21.5 30t-4.5 46.5v337q0 46 6.5 78t23 53.5t44 34t70.5 21.5q18 4 38 7t39 5t35.5 3.5t26.5 1.5q62 0 102 -5.5t63 -15.5t32 -24t9 -30
q0 -23 -15 -37t-35 -14q-14 0 -28.5 5.5t-22.5 13.5q-11 10 -22 18t-26.5 13.5t-36.5 8t-50 2.5q-7 0 -17.5 -1t-22 -2t-21.5 -3t-16 -3q-24 -6 -38.5 -12.5t-22 -18.5t-9.5 -32t-2 -53v-90h215q14 0 22 -9t8 -23t-8 -23t-22 -9h-215v-180q0 -17 2.5 -26.5t10.5 -14.5
t24.5 -6.5t43.5 -1.5q43 0 77.5 3.5t62 10t50.5 15t43 18.5q13 7 23 7z" />
    <glyph glyph-name="F" unicode="F" horiz-adv-x="589" 
d="M70 421q0 46 6.5 78t23 53.5t44 34t70.5 21.5q18 4 38 7t39 5t35.5 3.5t26.5 1.5q62 0 102 -5.5t63 -15.5t32 -24t9 -30q0 -23 -15 -37t-35 -14q-14 0 -28.5 5.5t-22.5 13.5q-11 10 -22 18t-26.5 13.5t-36.5 8t-50 2.5q-7 0 -17.5 -1t-22 -2t-21.5 -3t-16 -3
q-24 -6 -38.5 -12.5t-22 -18.5t-9.5 -32t-2 -53v-90h215q14 0 22 -9t8 -23t-8 -23t-22 -9h-215v-253q0 -19 -13 -30.5t-39 -11.5t-39 11.5t-13 30.5v393z" />
    <glyph glyph-name="G" unicode="G" horiz-adv-x="790" 
d="M40 210q0 52 17 103t48 97.5t75 85.5t97.5 68t116 45.5t129.5 16.5q91 0 149 -24t85 -59q13 -16 13 -38q0 -21 -17 -36t-44 -15q-14 0 -28 7.5t-25 20.5q-33 40 -76.5 57.5t-101.5 17.5q-68 0 -126.5 -25.5t-101.5 -69t-68 -100t-25 -118.5q0 -40 15.5 -74t43 -59.5
t66 -40t84.5 -14.5q60 0 109 21t83.5 48.5t53 53.5t18.5 36q0 9 -13 9h-203q-26 0 -26 36q0 34 26 34h257q29 0 41.5 -12t12.5 -32q0 -21 -14 -48.5t-38.5 -57t-59 -58t-75.5 -51t-87.5 -36t-95.5 -13.5q-79 0 -138 16.5t-98.5 46.5t-59 71t-19.5 90z" />
    <glyph glyph-name="H" unicode="H" horiz-adv-x="673" 
d="M603 28q0 -19 -13 -30.5t-39 -11.5t-39 11.5t-13 30.5v270h-325v-270q0 -19 -13 -30.5t-39 -11.5t-39 11.5t-13 30.5v551q0 19 13 30.5t39 11.5t39 -11.5t13 -30.5v-217h325v217q0 19 13 30.5t39 11.5t39 -11.5t13 -30.5v-551z" />
    <glyph glyph-name="I" unicode="I" horiz-adv-x="234" 
d="M169 28q0 -19 -13 -30.5t-39 -11.5t-39 11.5t-13 30.5v551q0 19 13 30.5t39 11.5t39 -11.5t13 -30.5v-551z" />
    <glyph glyph-name="J" unicode="J" horiz-adv-x="564" 
d="M400 579q0 19 13 30.5t39 11.5t39 -11.5t13 -30.5v-295q0 -55 -22 -108.5t-64 -95.5t-102.5 -68t-136.5 -26q-38 0 -69 10t-53.5 27t-34.5 40t-12 50q0 31 17 50.5t43 19.5q46 0 46 -40q1 -49 26.5 -72t72.5 -23q45 0 79.5 17t58 45.5t35.5 67t12 81.5v320z" />
    <glyph glyph-name="K" unicode="K" horiz-adv-x="579" 
d="M174 331q20 66 52.5 120t72 91.5t83.5 58t87 20.5q47 0 68.5 -13.5t21.5 -37.5t-10.5 -37t-24.5 -13q-9 0 -14.5 1.5t-12.5 4.5q-20 9 -35 12.5t-35 3.5q-33 0 -67 -22t-61.5 -55t-45 -72.5t-17.5 -74.5q0 -38 22 -77t59.5 -73t87.5 -59t106 -35q26 -5 35.5 -14.5
t9.5 -29.5q0 -18 -14 -30t-40 -12q-57 0 -111 25.5t-98 70.5t-75.5 106t-43.5 132v-294q0 -19 -13 -30.5t-39 -11.5t-39 11.5t-13 30.5v551q0 19 13 30.5t39 11.5t39 -11.5t13 -30.5v-248z" />
    <glyph glyph-name="L" unicode="L" horiz-adv-x="474" 
d="M433 64q12 0 19 -9t7 -23t-7 -23t-19 -9h-222q-81 0 -116 38.5t-35 101.5q0 26 4.5 53.5t4.5 53.5v336q0 17 13.5 27.5t38.5 10.5q26 0 39 -10.5t13 -27.5v-376q0 -43 2.5 -71t12 -44t28.5 -22t51 -6h166z" />
    <glyph glyph-name="M" unicode="M" horiz-adv-x="684" 
d="M174 496q5 -37 21.5 -78t40 -75.5t51.5 -57.5t55 -23q33 0 63.5 27t54 67t37 86.5t13.5 85.5v51q0 19 13 30.5t39 11.5t39 -11.5t13 -30.5v-551q0 -19 -13 -30.5t-39 -11.5t-39 11.5t-13 30.5v325q-13 -34 -29.5 -63.5t-37.5 -51.5t-46.5 -34.5t-56.5 -12.5
q-41 0 -69.5 14t-48 34t-31 42.5t-17.5 39.5v-293q0 -19 -13 -30.5t-39 -11.5t-39 11.5t-13 30.5v551q0 19 13 30.5t39 11.5t39 -11.5t13 -30.5v-83z" />
    <glyph glyph-name="N" unicode="N" horiz-adv-x="739" 
d="M175 524q1 -106 21 -192.5t53 -148.5t77 -96t93 -34q36 0 65.5 12.5t51 38.5t33 67t11.5 97q0 63 -21 129.5t-63 130.5q-14 22 -19 34.5t-5 21.5q0 17 17 29t38 12q19 0 34 -10t41 -42q38 -51 60 -123t22 -157q0 -63 -21 -119t-57.5 -97.5t-86.5 -66t-108 -24.5
q-94 0 -157.5 63.5t-83.5 179.5v-201q0 -19 -13 -30.5t-37 -11.5t-37 11.5t-13 30.5v551q0 19 13 30.5t39 11.5t39 -11.5t13 -30.5z" />
    <glyph glyph-name="O" unicode="O" horiz-adv-x="851" 
d="M513 626q67 0 122 -16.5t94 -46.5t60.5 -72t21.5 -92q0 -48 -16.5 -97t-46.5 -95t-73 -86t-96 -70t-114.5 -47.5t-128.5 -17.5q-70 0 -125 16t-93 46t-58 72.5t-20 94.5q0 82 39 156.5t104.5 131t151 90t178.5 33.5zM473 557q-65 0 -122.5 -24t-100.5 -65.5t-67.5 -98
t-24.5 -120.5q0 -47 15 -83t42.5 -60.5t66.5 -37.5t86 -13q72 0 132 26t103.5 69t67.5 97t24 111q0 45 -16.5 82t-46 63t-70 40t-89.5 14z" />
    <glyph glyph-name="P" unicode="P" horiz-adv-x="623" 
d="M174 28q0 -17 -13 -27.5t-38 -10.5t-39 10.5t-14 27.5v433q0 30 4 52t16.5 38t36 28t61.5 23q15 4 36.5 8.5t44.5 8t44.5 5.5t38.5 2q119 0 175 -42t56 -108q0 -47 -21.5 -91t-62.5 -78t-101 -55t-136 -21q-19 0 -42.5 2t-45.5 6v-211zM174 293q17 -3 40.5 -4.5
t46.5 -1.5q114 0 165.5 46t51.5 125q0 54 -38 82.5t-109 28.5q-20 0 -42.5 -2.5t-38.5 -6.5q-26 -6 -41.5 -12.5t-23 -17t-9.5 -27t-2 -44.5v-166z" />
    <glyph glyph-name="Q" unicode="Q" horiz-adv-x="851" 
d="M564 42q-51 -26 -108 -41t-120 -15q-70 0 -125 16t-93 46t-58 72.5t-20 94.5q0 82 39 156.5t104.5 131t151 90t178.5 33.5q67 0 122 -16.5t94 -46.5t60.5 -72t21.5 -92q0 -79 -43 -158.5t-118 -141.5l100 -52q13 -7 18.5 -16.5t5.5 -20.5q0 -20 -16 -37.5t-38 -17.5
q-12 0 -26 8zM473 557q-65 0 -122.5 -24t-100.5 -65.5t-67.5 -98t-24.5 -120.5q0 -47 15 -83t42.5 -60.5t66.5 -37.5t86 -13q71 0 132 26l-88 55q-13 9 -13 24q0 16 12.5 31t29.5 15q9 0 16 -4l128 -68q52 44 81 102.5t29 121.5q0 45 -16.5 82t-46 63t-70 40t-89.5 14z" />
    <glyph glyph-name="R" unicode="R" horiz-adv-x="649" 
d="M174 28q0 -17 -13 -27.5t-38 -10.5t-39 10.5t-14 27.5v433q0 30 4 52t16.5 38t36 28t61.5 23q15 4 36.5 8.5t44.5 8t44.5 5.5t38.5 2q119 0 175 -42t56 -108q0 -35 -13.5 -67t-39 -58.5t-62.5 -45.5t-85 -28q43 -7 82 -31.5t69 -59t47.5 -75.5t17.5 -81q0 -20 -13.5 -31
t-39.5 -11t-38 11t-14 30q-4 49 -24.5 89.5t-50.5 70t-67.5 46t-74.5 16.5h-20q-19 0 -41 1.5t-42 4.5v-229zM174 311q17 -3 40.5 -3.5t46.5 -0.5q114 0 165.5 40t51.5 111q0 51 -36.5 81t-110.5 30q-20 0 -42.5 -2.5t-38.5 -6.5q-26 -6 -41.5 -12.5t-23 -17t-9.5 -27
t-2 -44.5v-148z" />
    <glyph glyph-name="S" unicode="S" horiz-adv-x="697" 
d="M338 53q49 0 86.5 9.5t63 25.5t38.5 36.5t13 42.5q0 14 -3.5 24.5t-14 19t-30 16.5t-51.5 17l-196 58q-74 22 -104 57t-30 90q0 37 19 69.5t55.5 56.5t90.5 37.5t125 13.5q45 0 92 -8.5t86 -24.5t63.5 -37.5t24.5 -47.5q0 -20 -16.5 -36t-47.5 -16q-20 0 -35 7t-23 17
q-35 42 -78 61t-100 19q-69 0 -106.5 -29.5t-37.5 -70.5q0 -29 19 -47.5t72 -33.5l213 -61q36 -11 60.5 -23.5t39.5 -28t21 -35t6 -43.5q0 -33 -23.5 -68.5t-65.5 -65t-101 -49t-130 -19.5q-69 0 -125 14t-95 38.5t-60.5 58.5t-21.5 73q0 29 15.5 46t40.5 17t39 -13t26 -51
q7 -24 24.5 -45t42 -36.5t55 -25t64.5 -9.5z" />
    <glyph glyph-name="T" unicode="T" horiz-adv-x="568" 
d="M517 619q31 0 31 -37t-31 -37h-181v-517q0 -19 -13 -30.5t-39 -11.5t-39 11.5t-13 30.5v517h-181q-31 0 -31 37t31 37h466z" />
    <glyph glyph-name="U" unicode="U" horiz-adv-x="649" 
d="M306 55q44 0 79 21t59.5 58.5t37.5 87.5t13 109q0 104 -54 205q-5 10 -8.5 20.5t-3.5 22.5q0 20 16.5 33t39.5 13q47 0 72 -46q18 -34 27.5 -88.5t9.5 -111.5q0 -85 -24 -157t-67 -124.5t-101 -82t-126 -29.5q-116 0 -166 58.5t-50 165.5q0 48 2.5 90t7 84t11.5 86t17 97
q7 38 51 38q24 0 36 -10.5t12 -28.5q0 -8 -5 -46t-11.5 -88t-11.5 -102.5t-5 -89.5q0 -53 8.5 -88t26.5 -57t44.5 -31t62.5 -9z" />
    <glyph glyph-name="V" unicode="V" horiz-adv-x="609" 
d="M531 623q11 0 22 -3.5t19.5 -10t13 -17t1.5 -23.5q-28 -122 -53 -212.5t-49 -155t-47.5 -106t-49 -65t-53.5 -32.5t-60 -9q-84 0 -144 141.5t-110 436.5q-2 14 2.5 24.5t13 18t19.5 11t23 3.5q17 0 31.5 -8t18.5 -25q30 -124 52.5 -212t39 -147.5t28.5 -94t21.5 -52.5
t16.5 -23t15 -5q20 0 35 25t34.5 86.5t47.5 165.5t75 262q5 15 14.5 21t22.5 6z" />
    <glyph glyph-name="W" unicode="W" horiz-adv-x="877" 
d="M395 600q20 0 37.5 -13t30.5 -36t20.5 -56t7.5 -73q0 -27 -3 -49.5t-7 -45t-7 -46t-3 -51.5q0 -49 7.5 -81.5t20 -52t30 -27.5t37.5 -8q27 0 53.5 20.5t47.5 57.5t34 88.5t13 112.5q0 91 -46 184q-6 12 -8 22.5t-2 23.5q0 19 18 33.5t44 14.5q18 0 36 -14t32.5 -41.5
t24 -68t9.5 -92.5q0 -90 -22 -166t-61 -131.5t-91.5 -87t-113.5 -31.5q-27 0 -49.5 12.5t-39 35t-26 54.5t-9.5 71q-32 -82 -85.5 -127.5t-113.5 -45.5q-31 0 -58.5 14.5t-48 45.5t-32.5 78.5t-12 113.5q0 54 1.5 96.5t4.5 81t7.5 74.5t10.5 76q5 28 16.5 39.5t32.5 11.5
q27 0 39.5 -14t10.5 -34q-5 -60 -8 -107.5t-5 -85t-3 -66.5t-1 -52q0 -59 6 -97.5t16.5 -61t26 -31t33.5 -8.5q24 0 48.5 23t44 63t32 93.5t12.5 115.5q0 78 -33 153q-6 14 -7 23.5t-1 20.5q0 19 15.5 33.5t35.5 14.5z" />
    <glyph glyph-name="X" unicode="X" horiz-adv-x="620" 
d="M308 355q10 57 29 106t47.5 84.5t67.5 55.5t90 20q37 0 52.5 -13t15.5 -40q0 -26 -10 -41t-26 -15q-11 0 -19.5 2.5t-16 6t-15.5 6t-19 2.5q-23 0 -48 -16.5t-45.5 -43.5t-34 -62t-13.5 -72q0 -45 15 -87.5t42 -77t65 -58.5t84 -31q39 -6 39 -48q0 -18 -11 -30.5
t-30 -12.5q-59 0 -104.5 28t-78 74.5t-51.5 107.5t-25 127q-5 -65 -23 -125.5t-49.5 -107.5t-76.5 -75.5t-103 -28.5q-23 0 -34 12t-11 32t8.5 31.5t30.5 15.5q47 8 85 32t65 58.5t41.5 76.5t14.5 87q0 35 -13 70t-33.5 62.5t-46 45t-49.5 17.5q-11 0 -19 -3t-15.5 -6
t-16 -6t-19.5 -3q-34 0 -34 53q0 29 14.5 43t54.5 14q51 0 89 -20t66 -55.5t45.5 -84.5t28.5 -107z" />
    <glyph glyph-name="Y" unicode="Y" horiz-adv-x="624" 
d="M362 28q0 -19 -13 -30.5t-39 -11.5t-39 11.5t-13 30.5v105q0 35 -6.5 78.5t-18 88t-26.5 86.5t-32 75t-34 53t-33 20q-9 0 -17.5 -3.5t-16.5 -7.5t-17 -7.5t-18 -3.5q-14 0 -21.5 15.5t-7.5 37.5q0 17 7.5 26.5t18.5 14.5t23 6.5t20 1.5q51 0 92.5 -26t72 -74.5
t48.5 -118t23 -156.5q6 87 22 156.5t44.5 118t69 74.5t94.5 26q33 0 51 -13.5t18 -34.5q0 -28 -9.5 -41t-24.5 -13q-9 0 -17 3.5t-15.5 7.5t-16 7.5t-18.5 3.5q-17 0 -35 -20t-34.5 -52.5t-31.5 -75t-26 -87t-17.5 -88t-6.5 -78.5v-105z" />
    <glyph glyph-name="Z" unicode="Z" horiz-adv-x="568" 
d="M456 619q35 0 49.5 -11.5t14.5 -37.5q0 -23 -13 -43t-32 -43l-336 -412h153q43 0 67 8.5t37 20.5t19 27t12 27t16.5 20.5t32.5 8.5q33 0 47.5 -16.5t14.5 -47.5q0 -21 -16 -42.5t-46 -39t-73 -28t-96 -10.5h-218q-32 0 -45.5 11t-13.5 34q0 21 32 65t83 105l273 330h-147
q-46 0 -71.5 -7.5t-38 -19t-17 -25t-9.5 -25t-14 -19t-31 -7.5q-26 0 -36 14t-10 46q0 24 10 45.5t32 37t57.5 25t86.5 9.5h226z" />
    <glyph glyph-name="bracketleft" unicode="[" horiz-adv-x="366" 
d="M70 772q0 17 12 28.5t38 11.5h147q29 0 29 -33q0 -34 -29 -34h-96v-958h96q29 0 29 -33q0 -34 -29 -34h-147q-26 0 -38 11.5t-12 28.5v1012z" />
    <glyph glyph-name="backslash" unicode="\" horiz-adv-x="382" 
d="M5 662q-2 5 -3 9t-1 8q0 25 36 39q15 6 28 6q24 0 33 -23l279 -678q2 -5 3 -9t1 -8q0 -24 -35 -39q-15 -7 -28 -7q-24 0 -34 24z" />
    <glyph glyph-name="bracketright" unicode="]" horiz-adv-x="366" 
d="M296 -240q0 -17 -12 -28.5t-38 -11.5h-147q-29 0 -29 34q0 33 29 33h96v958h-96q-29 0 -29 34q0 33 29 33h147q26 0 38 -11.5t12 -28.5v-1012z" />
    <glyph glyph-name="asciicircum" unicode="^" horiz-adv-x="532" 
d="M266 702q16 0 27 -14l192 -276q5 -8 5 -16q0 -17 -17 -29q-13 -8 -24 -8q-15 0 -22 12l-161 239l-161 -239q-8 -12 -22 -12q-11 0 -24 8q-17 12 -17 29q0 8 5 16l192 276q12 14 27 14z" />
    <glyph glyph-name="underscore" unicode="_" horiz-adv-x="641" 
d="M79 -296q-29 0 -29 32q0 31 29 31h483q29 0 29 -31q0 -32 -29 -32h-483z" />
    <glyph glyph-name="grave" unicode="`" horiz-adv-x="175" 
d="M26 568q-6 7 -6 17q0 14 13 25t31 11q14 0 22.5 -5t16.5 -18l45 -81q5 -9 6 -13t1 -7q0 -12 -11.5 -20.5t-26.5 -8.5q-22 0 -38 24z" />
    <glyph glyph-name="a" unicode="a" horiz-adv-x="618" 
d="M386 407q90 0 131 -34t41 -89q0 -17 -5.5 -34t-5.5 -31v-189q0 -17 -11.5 -28.5t-37.5 -11.5q-27 0 -38.5 11.5t-11.5 28.5v67q-45 -51 -106 -81t-130 -30q-91 0 -131.5 35.5t-40.5 96.5q0 52 28 103.5t76 93t110.5 67t131.5 25.5zM351 348q-44 0 -81 -16.5t-64.5 -43.5
t-43 -62t-15.5 -72q0 -47 26.5 -72.5t75.5 -25.5q42 0 79 16.5t64.5 43.5t44 62t16.5 73q0 44 -27.5 70.5t-74.5 26.5z" />
    <glyph glyph-name="b" unicode="b" horiz-adv-x="618" 
d="M234 -14q-45 0 -78 10.5t-54 28.5t-31.5 42t-10.5 51q0 23 5.5 36.5t5.5 32.5v475q0 17 11.5 28.5t37.5 11.5q27 0 38.5 -11.5t11.5 -28.5v-368q41 54 105 83.5t135 29.5q90 0 129 -36.5t39 -97.5q0 -51 -28 -102.5t-75.5 -92.5t-110 -66.5t-130.5 -25.5zM267 55
q43 0 80.5 16t65 42.5t43 61t15.5 72.5q0 48 -25.5 74t-73.5 26q-42 0 -79.5 -16.5t-66 -43.5t-45 -62.5t-16.5 -72.5q0 -44 27.5 -70.5t74.5 -26.5z" />
    <glyph glyph-name="c" unicode="c" horiz-adv-x="565" 
d="M147 154q0 -45 26 -71.5t71 -26.5q47 0 87.5 16t72.5 45q15 14 28 14q12 0 20.5 -8.5t8.5 -19.5q0 -5 -2 -10.5t-9 -11.5q-38 -38 -101 -66.5t-144 -28.5t-123 36.5t-42 98.5q0 52 28.5 103.5t75 92t106.5 65.5t123 25q86 0 129 -27.5t43 -66.5q0 -19 -11 -32.5
t-35 -13.5q-20 0 -31 6t-18.5 14.5t-14 19t-17 19t-28 14.5t-46.5 6q-42 0 -78 -16t-62.5 -43t-41.5 -61.5t-15 -71.5z" />
    <glyph glyph-name="d" unicode="d" horiz-adv-x="543" 
d="M375 352q-11 2 -21 3t-27 1q-36 0 -69 -15.5t-59 -43t-41.5 -64.5t-15.5 -80q0 -46 25 -72.5t60 -26.5q32 0 68 11t77 37q2 21 2.5 43.5t0.5 50.5v156zM473 148q0 -14 2 -22.5t2 -14.5q0 -8 -6.5 -15.5t-26.5 -22.5q-25 -19 -55 -35t-61 -27.5t-61.5 -18t-56.5 -6.5
q-86 0 -128 36.5t-42 99.5q0 55 25.5 106.5t66.5 91t92.5 63.5t102.5 24q14 0 26.5 -0.5t20.5 -1.5v257q0 17 11.5 28.5t37.5 11.5q27 0 38.5 -11.5t11.5 -28.5v-514z" />
    <glyph glyph-name="e" unicode="e" horiz-adv-x="570" 
d="M386 407q85 0 124.5 -29t39.5 -71q0 -49 -34.5 -83.5t-117.5 -48.5l-249 -42q0 -37 20.5 -58.5t75.5 -21.5q50 0 92.5 12t81.5 31q18 9 28 9q23 0 23 -28q0 -17 -21 -28q-116 -63 -233 -63q-47 0 -80.5 10t-54.5 27.5t-31 41.5t-10 52q0 52 28 104t75.5 93t110 67
t132.5 26zM353 350q-35 0 -69 -13t-61.5 -35t-47 -50.5t-25.5 -58.5l218 35q50 8 65.5 23t15.5 38q0 24 -24 42.5t-72 18.5z" />
    <glyph glyph-name="f" unicode="f" horiz-adv-x="453" 
d="M173 30q0 -17 -11.5 -28.5t-38.5 -11.5q-26 0 -37.5 11.5t-11.5 28.5v301h-45q-29 0 -29 32q0 31 29 31h45v10q0 12 -3.5 23t-3.5 24q0 38 28 82t73 81.5t101 62.5t113 25q35 0 53 -14.5t18 -39.5q0 -37 -15.5 -55.5t-37.5 -18.5q-20 0 -32.5 9t-12.5 26t-8 25t-28 8
q-25 0 -51 -16t-47 -43t-34.5 -63t-13.5 -75v-51h127q29 0 29 -31q0 -32 -29 -32h-127v-301z" />
    <glyph glyph-name="g" unicode="g" horiz-adv-x="619" 
d="M548 27q0 -16 3 -27t3 -23q0 -51 -27.5 -102t-74.5 -92t-110.5 -66.5t-136.5 -25.5q-82 0 -123.5 31.5t-41.5 75.5q0 27 14.5 43.5t35.5 16.5q18 0 27.5 -7.5t15.5 -18.5t12 -23.5t17 -23.5t29.5 -18.5t49.5 -7.5q46 0 84 15t65.5 41.5t43 64t15.5 82.5v135
q-45 -51 -106 -81t-130 -30q-91 0 -131.5 35.5t-40.5 96.5q0 52 28 103.5t76 93t110.5 67t131.5 25.5q90 0 131 -34t41 -89q0 -17 -5.5 -34t-5.5 -31v-192zM352 348q-44 0 -81 -16.5t-64.5 -43.5t-43 -62t-15.5 -72q0 -47 26.5 -72.5t75.5 -25.5q42 0 79 16.5t64.5 43.5
t44 62t16.5 73q0 44 -27.5 70.5t-74.5 26.5z" />
    <glyph glyph-name="h" unicode="h" horiz-adv-x="629" 
d="M167 277q40 63 99.5 96.5t140.5 33.5q88 0 130 -35t42 -92q0 -31 -11 -67t-30.5 -73t-47.5 -72.5t-61 -64.5q-11 -11 -19.5 -14t-18.5 -3q-13 0 -22.5 9.5t-9.5 19.5q0 5 2 10.5t10 13.5q24 25 42.5 53.5t31 56t19.5 52.5t7 45q0 52 -26.5 77t-74.5 25q-38 0 -74.5 -17
t-64.5 -47.5t-45 -72t-17 -90.5v-93q0 -17 -11.5 -28.5t-38.5 -11.5q-26 0 -37.5 11.5t-11.5 28.5v634q0 17 11.5 28.5t36.5 11.5q49 0 49 -37v-388z" />
    <glyph glyph-name="i" unicode="i" horiz-adv-x="241" 
d="M171 30q0 -17 -12 -28.5t-39 -11.5q-26 0 -38 11.5t-12 28.5v333q0 17 12 28.5t38 11.5q27 0 39 -11.5t12 -28.5v-333zM120 494q-30 0 -44 12.5t-14 29.5v38q0 17 14 29.5t44 12.5q29 0 43.5 -12.5t14.5 -29.5v-38q0 -17 -14.5 -29.5t-43.5 -12.5z" />
    <glyph glyph-name="j" unicode="j" horiz-adv-x="239" 
d="M119 494q-30 0 -44 12.5t-14 29.5v38q0 17 14 29.5t44 12.5q29 0 43.5 -12.5t14.5 -29.5v-38q0 -17 -14.5 -29.5t-43.5 -12.5zM70 363q0 17 11.5 28.5t37.5 11.5q27 0 38.5 -11.5t11.5 -28.5v-319q0 -24 3 -48t7 -46.5t7 -42.5t3 -36q0 -37 -9 -69.5t-28 -57t-48.5 -39
t-69.5 -14.5q-22 0 -42.5 7t-36 19.5t-25 30.5t-9.5 40q0 29 13 44.5t33 15.5q26 0 34.5 -14t12 -30.5t9 -30.5t26.5 -14q19 0 29 13.5t10 48.5q0 29 -3 55t-6 53t-6 56t-3 65v313z" />
    <glyph glyph-name="k" unicode="k" horiz-adv-x="455" 
d="M169 30q0 -17 -11.5 -28.5t-38.5 -11.5q-26 0 -37.5 11.5t-11.5 28.5v632q0 17 11.5 28.5t37.5 11.5q27 0 38.5 -11.5t11.5 -28.5l-3 -401q10 27 31.5 53t50 46.5t62.5 32.5t69 12q36 0 51 -12.5t15 -32.5q0 -45 -34 -45q-10 0 -18.5 2.5t-17.5 6t-19.5 6t-24.5 2.5
q-24 0 -45 -8.5t-36.5 -22t-24 -31.5t-8.5 -37q0 -26 17 -51t43.5 -46t58 -36t61.5 -20q26 -5 35 -14.5t9 -32.5q0 -19 -12 -33t-36 -14q-37 0 -75.5 19t-70.5 52t-55 77q-22 43 -26 92z" />
    <glyph glyph-name="l" unicode="l" horiz-adv-x="241" 
d="M171 30q0 -17 -12 -28.5t-39 -11.5q-26 0 -38 11.5t-12 28.5v632q0 17 12 28.5t38 11.5q27 0 39 -11.5t12 -28.5v-632z" />
    <glyph glyph-name="m" unicode="m" horiz-adv-x="770" 
d="M317 407q47 0 74 -30t29 -87q32 63 71 90t93 27q34 0 58.5 -10.5t40.5 -29t24 -43t8 -52.5q0 -31 -8.5 -68.5t-23 -75t-34 -71t-42.5 -56.5q-11 -11 -20 -14t-19 -3q-13 0 -22.5 9t-9.5 19q0 5 2.5 10.5t10.5 15.5q11 15 21.5 38t19 51t13.5 59t5 60q0 102 -64 102
q-23 0 -44.5 -17.5t-38.5 -48t-27.5 -72t-10.5 -90.5v-92q0 -17 -11.5 -28.5t-38.5 -11.5q-26 0 -37.5 11.5t-11.5 28.5v232q0 49 -10.5 68.5t-33.5 19.5q-20 0 -39.5 -18t-35.5 -48.5t-26 -72t-10 -88.5v-93q0 -17 -11.5 -28.5t-38.5 -11.5q-26 0 -37.5 11.5t-11.5 28.5
v330q0 17 11 28.5t36 11.5q26 0 37 -11.5t11 -28.5v-79q24 70 61 99t91 29z" />
    <glyph glyph-name="n" unicode="n" horiz-adv-x="629" 
d="M165 276q81 131 242 131q88 0 130 -35t42 -92q0 -31 -11 -67t-30.5 -73t-47.5 -72.5t-61 -64.5q-11 -11 -19.5 -14t-18.5 -3q-13 0 -22.5 9.5t-9.5 19.5q0 5 2 10.5t10 13.5q24 25 42.5 53.5t31 56t19.5 52.5t7 45q0 52 -26.5 77t-74.5 25q-38 0 -74.5 -17t-64.5 -47.5
t-45 -72t-17 -90.5v-93q0 -17 -11.5 -28.5t-38.5 -11.5q-26 0 -37.5 11.5t-11.5 28.5v330q0 17 11 28.5t36 11.5q26 0 37 -11.5t11 -28.5v-82z" />
    <glyph glyph-name="o" unicode="o" horiz-adv-x="598" 
d="M385 407q92 0 132.5 -34t40.5 -89q0 -51 -28 -103.5t-75 -96t-110 -71t-133 -27.5q-91 0 -131.5 34.5t-40.5 89.5q0 51 28 104t75.5 96t110 70t131.5 27zM343 344q-42 0 -77.5 -16t-61.5 -43t-41 -62t-15 -72q0 -48 28 -75t76 -27q41 0 77 16.5t63 43.5t43 62t16 73
q0 45 -28.5 72.5t-79.5 27.5z" />
    <glyph glyph-name="p" unicode="p" horiz-adv-x="583" 
d="M169 -269q0 -17 -11.5 -28.5t-38.5 -11.5q-26 0 -37.5 11.5t-11.5 28.5v521q0 16 -2.5 26t-2.5 18q0 9 6 17t23 19q24 16 56 29.5t67 23.5t70 16t65 6q91 0 141 -37.5t50 -98.5q0 -50 -26 -100t-68 -90.5t-96 -65.5t-111 -25q-17 0 -38 2t-35 5v-266zM438 247
q0 51 -31.5 77.5t-88.5 26.5q-40 0 -78 -12.5t-69 -34.5q-2 -20 -2 -45v-200q17 -8 32 -10.5t33 -2.5q43 0 80 16t64.5 43.5t43.5 64t16 77.5z" />
    <glyph glyph-name="q" unicode="q" horiz-adv-x="618" 
d="M386 407q90 0 131 -34t41 -89q0 -17 -5.5 -34t-5.5 -31v-488q0 -17 -11.5 -28.5t-37.5 -11.5q-27 0 -38.5 11.5t-11.5 28.5v366q-45 -51 -106 -81t-130 -30q-91 0 -131.5 35.5t-40.5 96.5q0 52 28 103.5t76 93t110.5 67t131.5 25.5zM351 348q-44 0 -81 -16.5t-64.5 -43.5
t-43 -62t-15.5 -72q0 -47 26.5 -72.5t75.5 -25.5q42 0 79 16.5t64.5 43.5t44 62t16.5 73q0 44 -27.5 70.5t-74.5 26.5z" />
    <glyph glyph-name="r" unicode="r" horiz-adv-x="487" 
d="M165 246q29 84 78.5 122.5t104.5 38.5q57 0 90.5 -24.5t33.5 -54.5q0 -21 -14 -36t-38 -15q-34 0 -53 29q-11 17 -23.5 24t-29.5 7q-23 0 -48.5 -23t-47 -59.5t-35.5 -83t-14 -92.5v-51q0 -17 -11.5 -28.5t-38.5 -11.5q-26 0 -37.5 11.5t-11.5 28.5v330q0 17 11 28.5
t36 11.5q26 0 37 -11.5t11 -28.5v-112z" />
    <glyph glyph-name="s" unicode="s" horiz-adv-x="505" 
d="M228 49q54 0 81.5 20t27.5 41q0 15 -11.5 26t-41.5 20l-111 34q-43 13 -62 34.5t-19 49.5q0 26 13.5 50t41 42.5t68 29.5t94.5 11q81 0 126 -24t45 -53q0 -20 -13.5 -34.5t-37.5 -14.5q-27 0 -40 15q-29 33 -51.5 44.5t-53.5 11.5q-39 0 -64 -17.5t-25 -40.5
q0 -14 12.5 -25t47.5 -22l97 -30q47 -14 67.5 -35.5t20.5 -53.5q0 -22 -15.5 -47t-45.5 -46t-73.5 -35t-99.5 -14q-42 0 -76 9.5t-57 25t-35.5 36t-12.5 42.5q0 26 11.5 40t32.5 14q17 0 29 -9.5t22 -34.5q13 -33 38 -46.5t70 -13.5z" />
    <glyph glyph-name="t" unicode="t" horiz-adv-x="413" 
d="M246 -14q-33 0 -61 9t-48 25t-31 38t-11 48q0 23 4.5 36.5t4.5 32.5v156h-45q-29 0 -29 32q0 31 29 31h45v89q0 17 11.5 28.5t37.5 11.5q27 0 38.5 -11.5t11.5 -28.5v-89h127q29 0 29 -31q0 -32 -29 -32h-127v-184q0 -96 73 -96q26 0 43.5 4t34.5 12q8 4 14 4q11 0 18 -7
t7 -18q0 -17 -17 -27q-27 -15 -62 -24t-68 -9z" />
    <glyph glyph-name="u" unicode="u" horiz-adv-x="629" 
d="M464 119q-41 -67 -99.5 -100t-132.5 -33q-91 0 -136.5 37.5t-45.5 94.5q0 30 11 65.5t30.5 71.5t47.5 71t61 64q11 11 19.5 14t18.5 3q13 0 22.5 -9.5t9.5 -19.5q0 -5 -2 -10.5t-10 -13.5q-24 -26 -42.5 -53.5t-31 -55t-19.5 -52.5t-7 -45q0 -52 26.5 -77.5t74.5 -25.5
q39 0 75.5 17t64 47t44.5 71t17 90v88q0 17 11.5 28.5t38.5 11.5q26 0 37.5 -11.5t11.5 -28.5v-328q0 -17 -11 -28.5t-36 -11.5q-26 0 -37 11.5t-11 28.5v89z" />
    <glyph glyph-name="v" unicode="v" horiz-adv-x="581" 
d="M162 402q15 0 26 -8.5t11 -22.5q0 -2 -0.5 -4t-0.5 -4q-19 -82 -27.5 -134.5t-8.5 -87.5q0 -38 21 -58.5t60 -20.5t72 14t57 38t37 56.5t13 69.5q0 23 -4.5 46t-15.5 52q-5 15 -5 24q0 16 16.5 30.5t42.5 14.5q39 0 59 -34q21 -35 21 -82q0 -51 -24.5 -104.5t-67 -97
t-101 -71.5t-127.5 -28q-81 0 -118.5 30.5t-37.5 87.5q0 49 15 118t44 147q6 15 15.5 22t27.5 7z" />
    <glyph glyph-name="w" unicode="w" horiz-adv-x="804" 
d="M208 57q29 0 56.5 16t49 42t34.5 60.5t13 72.5q0 39 -18 78q-7 14 -7 26q0 14 16 26t40 12q18 0 33 -8t25 -25t14 -36t4 -40q0 -24 -4.5 -44t-10.5 -38t-10.5 -35t-4.5 -34q0 -42 13.5 -58.5t40.5 -16.5q30 0 58 14.5t49.5 39t34.5 56.5t13 66q0 45 -23 105q-5 15 -5 24
q0 15 17 28t42 13q41 0 60 -34q21 -36 21 -83q0 -50 -24.5 -102.5t-65 -96t-93.5 -71.5t-110 -28q-45 0 -70 26.5t-25 73.5q-43 -50 -93.5 -75t-96.5 -25q-63 0 -92 31.5t-29 82.5q0 25 4 58t12 69.5t19 74.5t26 74q12 26 43 26q19 0 29.5 -9.5t10.5 -23.5q0 -5 -1 -8
q-11 -51 -19 -89t-13 -65.5t-7 -46.5t-2 -32q0 -36 12.5 -53.5t33.5 -17.5z" />
    <glyph glyph-name="x" unicode="x" horiz-adv-x="488" 
d="M123 14q-16 -17 -36 -17q-17 0 -30.5 12t-13.5 29q0 19 20 38l132 119l-132 100q-28 21 -28 46q0 23 18.5 39t41.5 16q28 0 49 -25l103 -127l119 136q16 17 36 17q17 0 30.5 -12t13.5 -29q0 -19 -20 -38l-133 -120l132 -99q15 -11 21.5 -23.5t6.5 -24.5q0 -22 -17.5 -38
t-40.5 -16q-13 0 -25.5 6t-23.5 20l-104 128z" />
    <glyph glyph-name="y" unicode="y" horiz-adv-x="635" 
d="M464 119q-41 -67 -99.5 -100t-132.5 -33q-91 0 -136.5 37.5t-45.5 94.5q0 30 11 65.5t30.5 71.5t47.5 71t61 64q11 11 19.5 14t18.5 3q13 0 22.5 -9.5t9.5 -19.5q0 -5 -2 -10.5t-10 -13.5q-24 -26 -42.5 -53.5t-31 -55t-19.5 -52.5t-7 -45q0 -52 26.5 -77.5t74.5 -25.5
q39 0 75.5 17t64 47t44.5 71t17 90v88q0 17 11.5 28.5t38.5 11.5q26 0 37.5 -11.5t11.5 -28.5v-331q0 -16 3 -27t3 -23q0 -51 -27.5 -102t-74.5 -92t-110.5 -66.5t-136.5 -25.5q-82 0 -123.5 31.5t-41.5 75.5q0 27 14.5 43.5t35.5 16.5q18 0 27.5 -7.5t15.5 -18.5t12 -23.5
t17 -23.5t29.5 -18.5t49.5 -7.5q46 0 84.5 15t67 41.5t44.5 64t16 82.5v157z" />
    <glyph glyph-name="z" unicode="z" horiz-adv-x="478" 
d="M400 394q26 0 34.5 -7.5t8.5 -25.5q0 -13 -6 -24.5t-23 -28.5l-274 -246h112q32 0 50 5t28 12.5t15 16t10.5 16t14 12.5t25.5 5q21 0 33.5 -12.5t12.5 -34.5q0 -31 -41 -56.5t-119 -25.5h-200q-25 0 -35.5 9t-10.5 26q0 14 8.5 28.5t38.5 40.5l260 227h-130
q-30 0 -46.5 -4t-25 -10.5t-12.5 -13.5t-8 -13.5t-12 -10.5t-24 -4q-21 0 -31.5 12.5t-10.5 34.5q0 31 29.5 51.5t103.5 20.5h225z" />
    <glyph glyph-name="braceleft" unicode="{" horiz-adv-x="361" 
d="M96 264q13 -1 29 -11t29.5 -28t22.5 -43.5t9 -57.5v-60q0 -85 22.5 -161.5t70.5 -129.5q8 -8 10 -13.5t2 -10.5q0 -10 -9.5 -19.5t-22.5 -9.5q-10 0 -18.5 3t-19.5 14q-33 30 -59 68t-44 81t-27 89.5t-9 93.5v101q0 31 -9.5 45t-23.5 14h-10q-14 0 -21.5 10t-7.5 27
t7.5 27t21.5 10h10q14 0 23.5 14t9.5 45v101q0 47 9 93.5t27 89.5t44 81t59 68q11 11 19.5 14t18.5 3q13 0 22.5 -9.5t9.5 -19.5q0 -5 -2 -10.5t-10 -13.5q-48 -53 -70.5 -129.5t-22.5 -161.5v-60q0 -32 -9 -58t-22.5 -44t-29.5 -27.5t-29 -10.5v-4z" />
    <glyph glyph-name="bar" unicode="|" horiz-adv-x="241" 
d="M171 -240q0 -17 -12 -28.5t-39 -11.5q-26 0 -38 11.5t-12 28.5v1012q0 17 12 28.5t38 11.5q27 0 39 -11.5t12 -28.5v-1012z" />
    <glyph glyph-name="braceright" unicode="}" horiz-adv-x="361" 
d="M205 268q-14 1 -29.5 10.5t-29 27.5t-22.5 44t-9 58v60q0 85 -22.5 161.5t-70.5 129.5q-8 8 -10 13.5t-2 10.5q0 10 9.5 19.5t22.5 9.5q10 0 18.5 -3t19.5 -14q33 -30 59 -68t44 -81t27 -89.5t9 -93.5v-101q0 -31 9.5 -45t23.5 -14h10q14 0 21.5 -10t7.5 -27t-7.5 -27
t-21.5 -10h-10q-14 0 -23.5 -14t-9.5 -45v-101q0 -47 -9 -93.5t-27 -89.5t-44 -81t-59 -68q-11 -11 -19.5 -14t-18.5 -3q-13 0 -22.5 9.5t-9.5 19.5q0 5 2 10.5t10 13.5q48 53 70.5 129.5t22.5 161.5v60q0 32 9 57.5t22.5 43.5t29 28t29.5 11v4z" />
    <glyph glyph-name="asciitilde" unicode="~" horiz-adv-x="359" 
d="M231 261q-13 0 -27 -6t-29.5 -12.5t-32.5 -12.5t-36 -6q-40 0 -63 16.5t-23 38.5q0 14 9.5 23.5t25.5 9.5q25 0 35 -21q4 -8 12 -12.5t23 -4.5t28 6t27.5 12.5t32 12.5t40.5 6q39 0 62.5 -16.5t23.5 -36.5q0 -13 -10.5 -24t-25.5 -11q-10 0 -19 4.5t-14 14.5
q-5 11 -13.5 15t-25.5 4z" />
    <glyph glyph-name="nonbreakingspace" unicode="&#xa0;" horiz-adv-x="300" 
 />
    <glyph glyph-name="exclamdown" unicode="&#xa1;" horiz-adv-x="241" 
d="M121 224q25 0 33.5 -9.5t8.5 -23.5l6 -464q0 -14 -11.5 -25t-36.5 -11t-36.5 11t-11.5 25l6 464q0 14 8.5 23.5t33.5 9.5zM121 405q26 0 38 -10.5t12 -26.5v-32q0 -16 -12 -26.5t-38 -10.5t-38.5 10.5t-12.5 26.5v32q0 16 12.5 26.5t38.5 10.5z" />
    <glyph glyph-name="cent" unicode="&#xa2;" horiz-adv-x="562" 
d="M326 403q11 2 23 3t24 1q86 0 129 -27.5t43 -66.5q0 -19 -11 -32.5t-35 -13.5q-20 0 -31 6t-18.5 14.5t-14 19t-17 19t-28 14.5t-46.5 6q-42 0 -78 -16t-62.5 -43t-41.5 -61.5t-15 -71.5q0 -45 26 -71.5t69 -26.5q38 0 78 15.5t74 45.5q17 14 28 14q12 0 20.5 -8.5
t8.5 -19.5q0 -5 -2 -10.5t-9 -11.5q-22 -22 -53 -41t-68 -33v-80q0 -16 -10.5 -26t-34.5 -10q-23 0 -34 10t-11 26v60q-6 0 -12 -0.5t-12 -0.5q-81 0 -123 36.5t-42 98.5q0 37 15 74.5t41.5 71.5t62 62t77.5 47v89q0 16 11 26t34 10q24 0 34.5 -10t10.5 -26v-62z" />
    <glyph glyph-name="sterling" unicode="&#xa3;" horiz-adv-x="588" 
d="M252 293q24 -6 46 -6q20 0 28.5 6.5t13.5 15t11.5 15t23.5 6.5q14 0 23.5 -9t9.5 -22q0 -25 -24.5 -42.5t-71.5 -17.5q-15 0 -31 2.5t-33 5.5q-3 -20 -8 -36.5t-9.5 -30t-8 -26t-3.5 -25.5q0 -37 32 -46t95 -9h195q13 0 20 -11.5t7 -25.5q0 -15 -7 -26t-20 -11h-251
q-89 0 -131.5 33t-42.5 98q0 18 6 32t12.5 28.5t12.5 32t6 42.5q-8 1 -14 1.5t-11 0.5q-17 -2 -25 -8.5t-13.5 -14.5t-12 -14t-19.5 -6q-14 0 -25.5 9.5t-11.5 23.5q0 23 25 40t71 17q9 0 17.5 -0.5t18.5 -1.5v35q0 12 -5 23t-5 24q0 42 16 83t52 74t94.5 53.5t143.5 20.5
q47 0 70.5 -14.5t23.5 -39.5q0 -37 -15 -55.5t-37 -18.5q-20 0 -36 9t-16 26t-12.5 25t-35.5 8q-62 0 -103 -31t-41 -90q0 -12 2.5 -24t2.5 -32v-96z" />
    <glyph glyph-name="currency" unicode="&#xa4;" horiz-adv-x="512" 
d="M103 218q-16 20 -16 50q0 32 15 63.5t41 58.5l-44 44q-8 10 -8 19q0 14 12 26q11 11 25 11q11 0 19 -8l50 -51q26 14 54.5 22.5t60.5 8.5q8 0 16 -0.5t16 -1.5l41 41q9 9 20 9q13 0 25 -12q11 -13 11 -25t-8 -19l-24 -24q16 -19 16 -48q0 -32 -15.5 -64t-41.5 -59l45 -44
q9 -9 9 -20t-11 -24q-12 -12 -25 -12q-11 0 -20 9l-51 50q-26 -14 -55 -22.5t-61 -8.5h-17q-7 0 -14 2l-42 -42q-9 -9 -20 -9q-12 0 -24 12t-12 25q0 11 9 19zM280 407q-23 0 -44 -9t-36.5 -24t-24.5 -34.5t-9 -40.5q0 -28 17.5 -42.5t46.5 -14.5q23 0 44 9t37.5 24t26 35
t9.5 41q0 28 -18 42t-49 14z" />
    <glyph glyph-name="yen" unicode="&#xa5;" horiz-adv-x="624" 
d="M369 222q-5 -29 -6 -53h103q14 0 21.5 -9.5t7.5 -23.5q0 -15 -7.5 -24.5t-21.5 -9.5h-104v-74q0 -19 -13 -30.5t-39 -11.5t-39 11.5t-13 30.5v74h-101q-14 0 -21.5 9.5t-7.5 24.5q0 14 7.5 23.5t21.5 9.5h99q-1 13 -3 26t-4 27h-92q-14 0 -21.5 9.5t-7.5 24.5
q0 14 7.5 23.5t21.5 9.5h78q-11 46 -26.5 90t-32.5 78.5t-34.5 55.5t-33.5 21q-9 0 -17.5 -3.5t-16.5 -7.5t-17 -7.5t-18 -3.5q-14 0 -21.5 15.5t-7.5 37.5q0 17 7.5 26.5t18.5 14.5t23 6.5t20 1.5q49 0 90 -26t72 -74.5t50 -118t24 -156.5q6 87 23 156.5t46 118t69 74.5
t92 26q33 0 51 -13.5t18 -34.5q0 -28 -9.5 -41t-24.5 -13q-9 0 -17 3.5t-15.5 7.5t-16 7.5t-18.5 3.5q-18 0 -36.5 -21t-35.5 -55.5t-32 -78.5t-26 -90h83q14 0 21.5 -9.5t7.5 -23.5q0 -15 -7.5 -24.5t-21.5 -9.5h-97z" />
    <glyph glyph-name="brokenbar" unicode="&#xa6;" horiz-adv-x="241" 
d="M171 390q0 -17 -12 -28.5t-39 -11.5q-26 0 -38 11.5t-12 28.5v382q0 17 12 28.5t38 11.5q27 0 39 -11.5t12 -28.5v-382zM171 -240q0 -17 -12 -28.5t-39 -11.5q-26 0 -38 11.5t-12 28.5v372q0 17 12 28.5t38 11.5q27 0 39 -11.5t12 -28.5v-372z" />
    <glyph glyph-name="section" unicode="&#xa7;" horiz-adv-x="638" 
d="M296 -24q54 0 78 25t24 60q0 33 -16 51.5t-45 28.5l-91 31q-31 10 -52.5 22.5t-34.5 28.5t-18.5 36.5t-5.5 46.5q0 43 24.5 77.5t71.5 51.5q-30 14 -51.5 45t-21.5 73q0 31 12.5 58t38.5 47.5t64.5 32t91.5 11.5q81 0 127.5 -24t49.5 -53q0 -20 -12 -34.5t-37 -14.5
q-27 0 -40 15q-30 33 -55 44.5t-56 11.5q-38 0 -60 -23t-22 -59q0 -29 15.5 -50t50.5 -33l101 -35q47 -17 71.5 -46.5t24.5 -75.5q0 -41 -25.5 -78t-70.5 -58q31 -14 52 -42.5t21 -71.5q0 -29 -14 -58t-41.5 -52t-69 -37.5t-95.5 -14.5q-46 0 -81.5 10t-60 27t-37.5 38
t-13 44t10.5 35.5t30.5 12.5q17 0 30 -9.5t24 -34.5q15 -33 39 -46.5t74 -13.5zM341 397q-10 2 -21 2q-38 0 -60 -21.5t-22 -58.5q0 -20 3 -33t10.5 -23t19.5 -16.5t31 -12.5l31 -10q87 8 87 84q0 36 -14.5 55.5t-42.5 27.5z" />
    <glyph glyph-name="dieresis" unicode="&#xa8;" horiz-adv-x="316" 
d="M71 505q-26 0 -38.5 11t-12.5 26v33q0 15 12.5 26t38.5 11t38 -11t12 -26v-33q0 -15 -12 -26t-38 -11zM245 506q-26 0 -38 11t-12 26v33q0 15 12 26t38 11t38.5 -11t12.5 -26v-33q0 -15 -12.5 -26t-38.5 -11z" />
    <glyph glyph-name="copyright" unicode="&#xa9;" horiz-adv-x="755" 
d="M267 243q0 -34 19.5 -53t51.5 -19q68 0 119 45q9 9 19 9q9 0 15.5 -6t6.5 -14q0 -15 -18.5 -30t-46.5 -27.5t-61 -20.5t-62 -8q-60 0 -90.5 27t-30.5 72q0 38 21 75.5t55 67.5t78 48.5t91 18.5q63 0 94 -20t31 -49q0 -14 -7.5 -24t-25.5 -10q-22 0 -30.5 9t-16.5 20
t-21.5 20t-45.5 9q-30 0 -56.5 -12t-46 -31.5t-31 -44.5t-11.5 -52zM443 555q61 0 111 -15.5t85.5 -44t55 -67.5t19.5 -86q0 -63 -29.5 -126.5t-82.5 -114.5t-127.5 -83t-164.5 -32q-65 0 -115 15.5t-84 44t-52 68.5t-18 89q0 70 32 134t86.5 112.5t127.5 77t156 28.5z
M411 502q-57 0 -109 -21.5t-91.5 -59t-63 -88t-23.5 -108.5q0 -91 54.5 -138.5t156.5 -47.5q63 0 117 24t94 63.5t63 89.5t23 101q0 88 -58.5 136.5t-162.5 48.5z" />
    <glyph glyph-name="ordfeminine" unicode="&#xaa;" horiz-adv-x="531" 
d="M341 626q78 0 114 -29.5t36 -77.5q0 -14 -5 -29t-5 -27v-165q0 -15 -10 -25t-33 -10t-33 10t-10 25v58q-38 -45 -91.5 -70.5t-113.5 -25.5q-79 0 -114.5 30.5t-35.5 84.5q0 45 24.5 90t66 81t96 58t114.5 22zM310 573q-37 0 -69 -14t-55.5 -37t-37 -53t-13.5 -62
q0 -41 23 -62.5t65 -21.5q35 0 66.5 14t55.5 37t38 53t14 62q0 38 -23.5 61t-63.5 23zM69 0q-14 0 -21.5 9.5t-7.5 24.5q0 14 7.5 23.5t21.5 9.5h393q14 0 21.5 -9.5t7.5 -23.5q0 -15 -7.5 -24.5t-21.5 -9.5h-393z" />
    <glyph glyph-name="guillemotleft" unicode="&#xab;" horiz-adv-x="450" 
d="M128 230l96 -101q7 -7 7 -17q0 -14 -13 -27q-11 -11 -24 -11q-12 0 -21 10l-108 120q-15 16 -15 27q0 6 3.5 12t11.5 14l109 120q9 10 21 10q13 0 24 -11q13 -13 13 -26q0 -11 -7 -18zM295 230l96 -101q7 -7 7 -17q0 -14 -13 -27q-11 -11 -24 -11q-12 0 -21 10l-108 120
q-15 16 -15 27q0 6 3.5 12t11.5 14l109 120q9 10 21 10q13 0 24 -11q13 -13 13 -26q0 -11 -7 -18z" />
    <glyph glyph-name="logicalnot" unicode="&#xac;" horiz-adv-x="357" 
d="M260 222h-201q-14 0 -21.5 9.5t-7.5 24.5q0 14 7.5 23.5t21.5 9.5h239q12 0 20.5 -8.5t8.5 -21.5v-119q0 -14 -9.5 -21.5t-23.5 -7.5q-15 0 -24.5 7.5t-9.5 21.5v82z" />
    <glyph glyph-name="uni00AD" unicode="&#xad;" horiz-adv-x="347" 
d="M59 222q-14 0 -21.5 9.5t-7.5 24.5q0 14 7.5 23.5t21.5 9.5h229q14 0 21.5 -9.5t7.5 -23.5q0 -15 -7.5 -24.5t-21.5 -9.5h-229z" />
    <glyph glyph-name="registered" unicode="&#xae;" horiz-adv-x="617" 
d="M265 388q0 -18 -26 -18q-11 0 -18.5 4.5t-7.5 13.5v160q0 14 4.5 25.5t16.5 20t33 13t54 4.5q45 0 65.5 -15.5t20.5 -41.5t-19 -47.5t-57 -27.5q18 -3 33 -12t26 -22t17 -28.5t6 -30.5q0 -17 -27 -17q-14 0 -20 4t-7 12q-3 36 -23 56.5t-45 20.5q-4 0 -11.5 0.5
t-14.5 2.5v-77zM265 497q4 -1 8.5 -1.5t12.5 -0.5q35 0 51 13t16 36q0 33 -41 33q-16 0 -25.5 -1t-14 -5.5t-6 -12.5t-1.5 -21v-40zM352 702q48 0 88 -12.5t68 -35t43.5 -54t15.5 -68.5q0 -50 -21 -97.5t-60 -85t-95 -60.5t-126 -23q-102 0 -158.5 47t-56.5 125
q0 55 23.5 103t64 84t95.5 56.5t119 20.5zM330 657q-44 0 -83.5 -15t-68.5 -42t-46 -64t-17 -80q0 -74 46.5 -109.5t118.5 -35.5q49 0 90 17t71 45t46.5 64.5t16.5 75.5q0 34 -13.5 61t-37.5 45.5t-55.5 28t-67.5 9.5z" />
    <glyph glyph-name="macron" unicode="&#xaf;" horiz-adv-x="311" 
d="M49 528q-29 0 -29 33q0 32 29 32h213q29 0 29 -32q0 -33 -29 -33h-213z" />
    <glyph glyph-name="degree" unicode="&#xb0;" horiz-adv-x="458" 
d="M265 702q60 0 86.5 -22t26.5 -58q0 -34 -17.5 -69t-48.5 -63t-72 -45.5t-88 -17.5q-60 0 -86 22.5t-26 58.5q0 35 18 69.5t48.5 62.5t71.5 45t87 17zM233 647q-23 0 -43 -9t-34.5 -24t-23 -34.5t-8.5 -40.5q0 -26 16 -41.5t43 -15.5q23 0 43.5 9t35.5 24t24 35t9 41
q0 26 -16.5 41t-45.5 15z" />
    <glyph glyph-name="plusminus" unicode="&#xb1;" horiz-adv-x="347" 
d="M140 222h-81q-14 0 -21.5 9.5t-7.5 24.5q0 14 7.5 23.5t21.5 9.5h81v80q0 14 9.5 21.5t24.5 7.5q14 0 23.5 -7.5t9.5 -21.5v-80h81q14 0 21.5 -9.5t7.5 -23.5q0 -15 -7.5 -24.5t-21.5 -9.5h-81v-72q0 -14 -9.5 -21.5t-23.5 -7.5q-15 0 -24.5 7.5t-9.5 21.5v72zM59 0
q-14 0 -21.5 9.5t-7.5 24.5q0 14 7.5 23.5t21.5 9.5h229q14 0 21.5 -9.5t7.5 -23.5q0 -15 -7.5 -24.5t-21.5 -9.5h-229z" />
    <glyph glyph-name="twosuperior" unicode="&#xb2;" horiz-adv-x="414" 
d="M88 244q-17 0 -22.5 9.5t-5.5 23.5q0 10 3.5 15.5t17.5 14.5q49 34 82 65t52.5 58t27.5 49t8 40q0 42 -38 42q-20 0 -34.5 -9.5t-21.5 -26.5q-5 -12 -14.5 -19t-26.5 -7q-16 0 -27 9t-11 27q0 15 13 31.5t35 29.5t49.5 21.5t57.5 8.5q47 0 75 -25.5t28 -68.5
q0 -23 -11 -51t-30.5 -57.5t-46.5 -59t-59 -54.5h63q20 0 25 4.5t7 9.5q4 8 10 13.5t24 5.5q17 0 26.5 -11t9.5 -29q0 -27 -19.5 -43t-68.5 -16h-178z" />
    <glyph glyph-name="threesuperior" unicode="&#xb3;" horiz-adv-x="441" 
d="M225 474q25 3 39.5 18.5t14.5 34.5q0 16 -8.5 26.5t-25.5 10.5q-29 0 -40.5 -10t-18 -22t-14.5 -22t-30 -10q-15 0 -26.5 8.5t-11.5 24.5q0 15 12.5 32t34 30.5t49.5 22.5t60 9q47 0 74.5 -21t27.5 -61q0 -19 -6 -40.5t-26 -38.5q26 -7 38.5 -25.5t12.5 -41.5
q0 -28 -16.5 -56.5t-45.5 -52t-68 -38t-84 -14.5q-53 0 -80 22t-27 52q0 21 12 33.5t29 12.5q21 0 27.5 -9t11.5 -19.5t14 -19t34 -8.5q47 0 75 22.5t28 57.5q0 20 -11.5 29t-25.5 9t-29.5 -6.5t-31.5 -6.5q-27 0 -27 28q0 20 7 26.5t28 9.5z" />
    <glyph glyph-name="acute" unicode="&#xb4;" horiz-adv-x="175" 
d="M96 492q-17 -24 -38 -24q-16 0 -27 8.5t-11 20.5q0 3 1 7t6 13l45 81q7 13 15.5 18t23.5 5q18 0 31 -11t13 -25q0 -10 -6 -17z" />
    <glyph glyph-name="mu" unicode="&#xb5;" horiz-adv-x="629" 
d="M464 119q-41 -67 -101 -100t-116 -33q-24 0 -48 5.5t-42 13.5v-271q0 -17 -9.5 -28.5t-36.5 -11.5q-26 0 -35.5 11.5t-9.5 28.5v323q-16 26 -16 61q0 30 11 65.5t30.5 71.5t47.5 71t61 64q11 11 19.5 14t18.5 3q13 0 22.5 -9.5t9.5 -19.5q0 -5 -2 -10.5t-10 -13.5
q-24 -26 -42.5 -53.5t-31 -55t-19.5 -52.5t-7 -45q0 -52 26.5 -77.5t74.5 -25.5q39 0 75.5 17t64 47t44.5 71t17 90v88q0 17 11.5 28.5t38.5 11.5q26 0 37.5 -11.5t11.5 -28.5v-328q0 -17 -11 -28.5t-36 -11.5q-26 0 -37 11.5t-11 28.5v89z" />
    <glyph glyph-name="paragraph" unicode="&#xb6;" horiz-adv-x="640" 
d="M570 -269q0 -17 -12.5 -28.5t-35.5 -11.5t-35 11.5t-12 28.5v921q0 17 12 28.5t35 11.5t35.5 -11.5t12.5 -28.5v-921zM315 449q-35 -39 -79 -55t-89 -16q-62 0 -97 27t-35 74q0 41 20 81t54.5 71.5t80 51t97.5 19.5q78 0 115 -27.5t37 -72.5q0 -14 -4.5 -27.5t-4.5 -25.5
v-818q0 -17 -12.5 -28.5t-35.5 -11.5t-35 11.5t-12 28.5v718zM238 654q-30 0 -55 -12.5t-42.5 -33t-27.5 -47.5t-10 -55q0 -34 21 -52t56 -18q28 0 53.5 10t45 28.5t31 44t11.5 56.5q0 35 -24 57t-59 22z" />
    <glyph glyph-name="periodcentered" unicode="&#xb7;" horiz-adv-x="221" 
d="M111 146q-26 0 -38.5 10.5t-12.5 26.5v32q0 16 12.5 26.5t38.5 10.5t38 -10.5t12 -26.5v-32q0 -16 -12 -26.5t-38 -10.5z" />
    <glyph glyph-name="cedilla" unicode="&#xb8;" horiz-adv-x="833" 
d="M307 -89q9 4 22.5 5.5t21.5 1.5q103 0 103 -82q0 -28 -14.5 -54t-40 -46.5t-60 -32.5t-74.5 -12q-47 0 -72 15.5t-25 38.5q0 14 7 23t21 9q16 0 22 -5.5t11.5 -12t15.5 -12t34 -5.5q44 0 71.5 22.5t27.5 54.5q0 23 -13.5 37t-33.5 14t-37 -4.5t-31 -12.5t-24 -8t-18 8
q-9 7 -9 19t14 28l137 140q9 11 16 11t16 -9q11 -11 11 -17q0 -4 -2.5 -8t-6.5 -9z" />
    <glyph glyph-name="onesuperior" unicode="&#xb9;" horiz-adv-x="311" 
d="M180 620q13 7 27 7q23 0 33.5 -11t10.5 -31v-307q0 -16 -10.5 -26.5t-33.5 -10.5q-22 0 -32 10.5t-10 26.5v257l-48 -29q-11 -6 -20 -6q-11 0 -19.5 6.5t-12.5 17.5q-5 12 -5 19q0 18 25 31z" />
    <glyph glyph-name="ordmasculine" unicode="&#xba;" horiz-adv-x="531" 
d="M341 626q80 0 115 -29.5t35 -77.5q0 -44 -24 -90t-65.5 -83.5t-96 -61.5t-115.5 -24q-79 0 -114 30t-35 78q0 45 24.5 90.5t65.5 83t95.5 61t114.5 23.5zM303 569q-35 0 -65.5 -14t-53 -37t-35 -52.5t-12.5 -61.5q0 -41 23.5 -64t65.5 -23q35 0 66 14t54 37t36.5 53
t13.5 62q0 39 -24.5 62.5t-68.5 23.5zM69 0q-14 0 -21.5 9.5t-7.5 24.5q0 14 7.5 23.5t21.5 9.5h393q14 0 21.5 -9.5t7.5 -23.5q0 -15 -7.5 -24.5t-21.5 -9.5h-393z" />
    <glyph glyph-name="guillemotright" unicode="&#xbb;" horiz-adv-x="450" 
d="M225 332q-7 7 -7 18q0 13 13 26q11 11 24 11q12 0 21 -10l109 -120q8 -8 11.5 -14t3.5 -12q0 -11 -15 -27l-108 -120q-9 -10 -21 -10q-13 0 -24 11q-13 13 -13 27q0 10 7 17l96 101zM58 332q-7 7 -7 18q0 13 13 26q11 11 24 11q12 0 21 -10l109 -120q8 -8 11.5 -14
t3.5 -12q0 -11 -15 -27l-108 -120q-9 -10 -21 -10q-13 0 -24 11q-13 13 -13 27q0 10 7 17l96 101z" />
    <glyph glyph-name="onequarter" unicode="&#xbc;" horiz-adv-x="949" 
d="M811 160q-23 -23 -54 -37t-66 -14q-58 0 -87 25t-29 62q0 18 7 39.5t19 43.5t28 43.5t35 39.5q16 12 31 12q12 0 21 -9.5t9 -19.5q0 -5 -1.5 -10t-7.5 -12q-26 -28 -40.5 -58.5t-14.5 -51.5q0 -23 12 -34t33 -11q20 0 38.5 8.5t33 24t23 37t8.5 46.5v49q0 16 9 25.5
t32 9.5q21 0 30 -9.5t9 -25.5v-312q0 -15 -9 -25t-29 -10q-21 0 -30.5 10t-9.5 25v139zM295 -22q-6 -10 -12 -16t-15 -6q-11 0 -27 10q-22 14 -22 29q0 11 10 26l372 613q6 10 12 15.5t15 5.5q5 0 11.5 -2t14.5 -7q23 -14 23 -30q0 -10 -10 -25zM180 620q13 7 27 7
q23 0 33.5 -11t10.5 -31v-307q0 -16 -10.5 -26.5t-33.5 -10.5q-22 0 -32 10.5t-10 26.5v257l-48 -29q-11 -6 -20 -6q-11 0 -19.5 6.5t-12.5 17.5q-5 12 -5 19q0 18 25 31z" />
    <glyph glyph-name="onehalf" unicode="&#xbd;" horiz-adv-x="925" 
d="M295 -22q-5 -10 -11 -16t-16 -6q-11 0 -27 10q-23 14 -23 29q0 6 3 12.5t8 13.5l372 613q6 10 12 16t15 6q10 0 26 -10q23 -14 23 -29q0 -11 -10 -26zM180 620q13 7 27 7q23 0 33.5 -11t10.5 -31v-307q0 -16 -10.5 -26.5t-33.5 -10.5q-22 0 -32 10.5t-10 26.5v257
l-48 -29q-11 -6 -20 -6q-11 0 -19.5 6.5t-12.5 17.5q-5 12 -5 19q0 18 25 31zM599 0q-17 0 -22.5 9.5t-5.5 23.5q0 10 3.5 15.5t17.5 14.5q49 34 82 65t52.5 58t27.5 49t8 40q0 42 -38 42q-20 0 -34.5 -9.5t-21.5 -26.5q-5 -12 -14.5 -19t-26.5 -7q-16 0 -27 9t-11 27
q0 15 13 31.5t35 29.5t49.5 21.5t57.5 8.5q47 0 75 -25.5t28 -68.5q0 -23 -11 -51t-30.5 -57.5t-46.5 -59t-59 -54.5h63q20 0 25 4.5t7 9.5q4 8 10 13.5t24 5.5q17 0 26.5 -11t9.5 -29q0 -27 -19.5 -43t-68.5 -16h-178z" />
    <glyph glyph-name="threequarters" unicode="&#xbe;" horiz-adv-x="979" 
d="M841 160q-23 -23 -54 -37t-66 -14q-58 0 -87 25t-29 62q0 18 7 39.5t19 43.5t28 43.5t35 39.5q16 12 31 12q12 0 21 -9.5t9 -19.5q0 -5 -1.5 -10t-7.5 -12q-26 -28 -40.5 -58.5t-14.5 -51.5q0 -23 12 -34t33 -11q20 0 38.5 8.5t33 24t23 37t8.5 46.5v49q0 16 9 25.5
t32 9.5q21 0 30 -9.5t9 -25.5v-312q0 -15 -9 -25t-29 -10q-21 0 -30.5 10t-9.5 25v139zM325 -22q-6 -10 -12 -16t-15 -6q-11 0 -27 10q-22 14 -22 29q0 11 10 26l372 613q6 10 12 15.5t15 5.5q5 0 11.5 -2t14.5 -7q23 -14 23 -30q0 -10 -10 -25zM225 474q25 3 39.5 18.5
t14.5 34.5q0 16 -8.5 26.5t-25.5 10.5q-29 0 -40.5 -10t-18 -22t-14.5 -22t-30 -10q-15 0 -26.5 8.5t-11.5 24.5q0 15 12.5 32t34 30.5t49.5 22.5t60 9q47 0 74.5 -21t27.5 -61q0 -19 -6 -40.5t-26 -38.5q26 -7 38.5 -25.5t12.5 -41.5q0 -28 -16.5 -56.5t-45.5 -52t-68 -38
t-84 -14.5q-53 0 -80 22t-27 52q0 21 12 33.5t29 12.5q21 0 27.5 -9t11.5 -19.5t14 -19t34 -8.5q47 0 75 22.5t28 57.5q0 20 -11.5 29t-25.5 9t-29.5 -6.5t-31.5 -6.5q-27 0 -27 28q0 20 7 26.5t28 9.5z" />
    <glyph glyph-name="questiondown" unicode="&#xbf;" horiz-adv-x="509" 
d="M245 227q25 0 32.5 -9.5t9.5 -23.5q3 -24 3 -53q0 -23 -10.5 -46.5t-39.5 -54.5q-37 -39 -65.5 -83t-28.5 -94q0 -44 28 -67.5t77 -23.5q47 0 75 20.5t45 56.5q7 15 18 24t34 9q19 0 32 -9.5t13 -28.5q0 -24 -17 -49t-48.5 -45.5t-76.5 -34t-101 -13.5q-84 0 -134.5 37.5
t-50.5 100.5q0 27 12.5 59.5t31 65t40.5 61.5t40 49q12 13 18.5 21t10.5 15.5t5 16t2 21.5l3 45q1 14 9 23.5t33 9.5zM243 408q26 0 38.5 -10.5t12.5 -26.5v-32q0 -16 -12.5 -26.5t-38.5 -10.5t-38 10.5t-12 26.5v32q0 16 12 26.5t38 10.5z" />
    <glyph glyph-name="Agrave" unicode="&#xc0;" horiz-adv-x="665" 
d="M491 344v34q0 97 -38 139.5t-107 42.5q-32 0 -62 -13t-54.5 -40t-43 -67.5t-27.5 -95.5h332zM154 280q0 -66 12 -116.5t33 -85.5q9 -15 12.5 -26t3.5 -22q0 -17 -15.5 -30.5t-41.5 -13.5q-17 0 -33.5 11t-28.5 34q-19 37 -30 90.5t-11 109.5q0 86 25.5 158.5t70 125
t103 82t124.5 29.5q109 0 163 -54.5t54 -169.5v-374q0 -19 -13 -30.5t-39 -11.5t-39 11.5t-13 30.5v252h-337zM273 768q-6 7 -6 17q0 14 13 25t31 11q14 0 22.5 -5t16.5 -18l45 -81q5 -9 6 -13t1 -7q0 -12 -11.5 -20.5t-26.5 -8.5q-22 0 -38 24z" />
    <glyph glyph-name="Aacute" unicode="&#xc1;" horiz-adv-x="665" 
d="M501 344v34q0 97 -38 139.5t-107 42.5q-32 0 -62 -13t-54.5 -40t-43 -67.5t-27.5 -95.5h332zM164 280q0 -66 12 -116.5t33 -85.5q9 -15 12.5 -26t3.5 -22q0 -17 -15.5 -30.5t-41.5 -13.5q-17 0 -33.5 11t-28.5 34q-19 37 -30 90.5t-11 109.5q0 86 25.5 158.5t70 125
t103 82t124.5 29.5q109 0 163 -54.5t54 -169.5v-374q0 -19 -13 -30.5t-39 -11.5t-39 11.5t-13 30.5v252h-337zM383 692q-17 -24 -38 -24q-16 0 -27 8.5t-11 20.5q0 3 1 7t6 13l45 81q7 13 15.5 18t23.5 5q18 0 31 -11t13 -25q0 -10 -6 -17z" />
    <glyph glyph-name="Acircumflex" unicode="&#xc2;" horiz-adv-x="665" 
d="M491 344v34q0 97 -38 139.5t-107 42.5q-32 0 -62 -13t-54.5 -40t-43 -67.5t-27.5 -95.5h332zM154 280q0 -66 12 -116.5t33 -85.5q9 -15 12.5 -26t3.5 -22q0 -17 -15.5 -30.5t-41.5 -13.5q-17 0 -33.5 11t-28.5 34q-19 37 -30 90.5t-11 109.5q0 86 25.5 158.5t70 125
t103 82t124.5 29.5q109 0 163 -54.5t54 -169.5v-374q0 -19 -13 -30.5t-39 -11.5t-39 11.5t-13 30.5v252h-337zM415 676q-20 0 -20 15q0 6 1 9q8 27 11 38.5t3 18.5q0 8 -6.5 14.5t-27.5 6.5q-38 0 -57 -14t-19 -33q0 -14 8 -28q3 -5 3 -10q0 -8 -10.5 -13t-24.5 -5
q-13 0 -24.5 3.5t-17.5 9.5q-10 10 -10 27t11 35.5t32 34.5t51.5 26t70.5 10q48 0 68 -13.5t20 -32.5q0 -14 -7 -38t-17 -42q-6 -11 -13.5 -15t-24.5 -4z" />
    <glyph glyph-name="Atilde" unicode="&#xc3;" horiz-adv-x="665" 
d="M491 344v34q0 97 -38 139.5t-107 42.5q-32 0 -62 -13t-54.5 -40t-43 -67.5t-27.5 -95.5h332zM154 280q0 -66 12 -116.5t33 -85.5q9 -15 12.5 -26t3.5 -22q0 -17 -15.5 -30.5t-41.5 -13.5q-17 0 -33.5 11t-28.5 34q-19 37 -30 90.5t-11 109.5q0 86 25.5 158.5t70 125
t103 82t124.5 29.5q109 0 163 -54.5t54 -169.5v-374q0 -19 -13 -30.5t-39 -11.5t-39 11.5t-13 30.5v252h-337zM404 812q46 0 67 -15.5t21 -41.5q0 -15 -9 -24.5t-29 -9.5q-14 0 -21.5 6t-14.5 16q-11 16 -33 16q-11 0 -20.5 -6t-20 -13t-22.5 -13t-27 -6q-46 0 -67 15.5
t-21 41.5q0 15 9 24.5t29 9.5q14 0 21.5 -6t14.5 -16q11 -16 33 -16q11 0 19 6t17.5 13t22 13t31.5 6z" />
    <glyph glyph-name="Adieresis" unicode="&#xc4;" horiz-adv-x="665" 
d="M491 344v34q0 97 -38 139.5t-107 42.5q-32 0 -62 -13t-54.5 -40t-43 -67.5t-27.5 -95.5h332zM154 280q0 -66 12 -116.5t33 -85.5q9 -15 12.5 -26t3.5 -22q0 -17 -15.5 -30.5t-41.5 -13.5q-17 0 -33.5 11t-28.5 34q-19 37 -30 90.5t-11 109.5q0 86 25.5 158.5t70 125
t103 82t124.5 29.5q109 0 163 -54.5t54 -169.5v-374q0 -19 -13 -30.5t-39 -11.5t-39 11.5t-13 30.5v252h-337zM258 705q-26 0 -38.5 11t-12.5 26v33q0 15 12.5 26t38.5 11t38 -11t12 -26v-33q0 -15 -12 -26t-38 -11zM432 706q-26 0 -38 11t-12 26v33q0 15 12 26t38 11
t38.5 -11t12.5 -26v-33q0 -15 -12.5 -26t-38.5 -11z" />
    <glyph glyph-name="Aring" unicode="&#xc5;" horiz-adv-x="665" 
d="M491 344v34q0 97 -38 139.5t-107 42.5q-32 0 -62 -13t-54.5 -40t-43 -67.5t-27.5 -95.5h332zM154 280q0 -66 12 -116.5t33 -85.5q9 -15 12.5 -26t3.5 -22q0 -17 -15.5 -30.5t-41.5 -13.5q-17 0 -33.5 11t-28.5 34q-19 37 -30 90.5t-11 109.5q0 86 25.5 158.5t70 125
t103 82t124.5 29.5q109 0 163 -54.5t54 -169.5v-374q0 -19 -13 -30.5t-39 -11.5t-39 11.5t-13 30.5v252h-337zM384 856q38 0 58.5 -14.5t20.5 -39.5q0 -20 -12 -41t-32 -38t-46 -27.5t-54 -10.5q-42 0 -60 16t-18 39q0 21 12 41.5t32 37t46 27t53 10.5zM406 787q0 16 -11 25
t-29 9q-28 0 -48 -20t-20 -46q0 -33 41 -33q27 0 47 20t20 45z" />
    <glyph glyph-name="AE" unicode="&#xc6;" horiz-adv-x="1030" 
d="M932 106q30 0 30 -29q0 -17 -22 -33.5t-61.5 -29.5t-94.5 -20.5t-122 -7.5q-59 0 -93.5 5t-51.5 16.5t-21.5 30t-4.5 46.5v196h-337q0 -66 12 -116.5t33 -85.5q9 -15 12.5 -26t3.5 -22q0 -17 -15.5 -30.5t-41.5 -13.5q-25 0 -44.5 21.5t-32.5 56.5t-19.5 79t-6.5 88
q0 86 25.5 158.5t70 125t103 82t124.5 29.5q53 0 92 -19.5t66 -66.5q18 30 48.5 47.5t65 25.5t68 10t56.5 2q62 0 102 -5.5t63 -15.5t32 -24t9 -30q0 -23 -15 -37t-35 -14q-14 0 -28.5 5.5t-22.5 13.5q-11 10 -22 18t-26.5 13.5t-36.5 8t-50 2.5q-7 0 -17.5 -1t-22 -2
t-21.5 -3t-16 -3q-24 -6 -38.5 -12.5t-22 -18.5t-9.5 -32t-2 -53v-90h215q14 0 22 -9t8 -23t-8 -23t-22 -9h-215v-180q0 -17 2.5 -26.5t10.5 -14.5t24.5 -6.5t43.5 -1.5q43 0 77.5 3.5t62 10t50.5 15t43 18.5q13 7 23 7zM491 344v34q0 97 -38 139.5t-107 42.5q-32 0 -62 -13
t-54.5 -40t-43 -67.5t-27.5 -95.5h332z" />
    <glyph glyph-name="Ccedilla" unicode="&#xc7;" horiz-adv-x="785" 
d="M364 55q39 0 73.5 8.5t64 22.5t54 32.5t42.5 39.5q12 14 23.5 21t28.5 7q16 0 25 -8t9 -22q0 -16 -15 -32q-24 -26 -56.5 -49t-70.5 -41t-79.5 -30t-84.5 -16l-71 -77q9 4 22.5 5.5t21.5 1.5q103 0 103 -82q0 -28 -14.5 -54t-40 -46.5t-60 -32.5t-74.5 -12
q-47 0 -72 15.5t-25 38.5q0 14 7 23t21 9q16 0 22 -5.5t11.5 -12t15.5 -12t34 -5.5q44 0 71.5 22.5t27.5 54.5q0 23 -13.5 37t-33.5 14t-37 -4.5t-31 -12.5t-24 -8t-18.5 8t-8.5 19q0 12 14 28l85 87q-137 7 -204 67.5t-67 155.5q0 52 17 103t48 97.5t74.5 85.5t96.5 68
t114.5 45.5t127.5 16.5q91 0 149 -24t85 -59q13 -16 13 -38q0 -21 -17 -36t-44 -15q-14 0 -28 7.5t-25 20.5q-33 40 -76.5 57.5t-101.5 17.5q-66 0 -123.5 -25.5t-100 -69t-67.5 -100t-25 -118.5q0 -40 14.5 -74.5t41 -60t65 -40t86.5 -14.5z" />
    <glyph glyph-name="Egrave" unicode="&#xc8;" horiz-adv-x="609" 
d="M511 106q30 0 30 -29q0 -14 -7 -23t-25 -19q-17 -9 -44 -18t-62.5 -15.5t-76.5 -11t-85 -4.5q-59 0 -93.5 5t-51.5 16.5t-21.5 30t-4.5 46.5v337q0 46 6.5 78t23 53.5t44 34t70.5 21.5q18 4 38 7t39 5t35.5 3.5t26.5 1.5q62 0 102 -5.5t63 -15.5t32 -24t9 -30
q0 -23 -15 -37t-35 -14q-14 0 -28.5 5.5t-22.5 13.5q-11 10 -22 18t-26.5 13.5t-36.5 8t-50 2.5q-7 0 -17.5 -1t-22 -2t-21.5 -3t-16 -3q-24 -6 -38.5 -12.5t-22 -18.5t-9.5 -32t-2 -53v-90h215q14 0 22 -9t8 -23t-8 -23t-22 -9h-215v-180q0 -17 2.5 -26.5t10.5 -14.5
t24.5 -6.5t43.5 -1.5q43 0 77.5 3.5t62 10t50.5 15t43 18.5q13 7 23 7zM249 768q-6 7 -6 17q0 14 13 25t31 11q14 0 22.5 -5t16.5 -18l45 -81q5 -9 6 -13t1 -7q0 -12 -11.5 -20.5t-26.5 -8.5q-22 0 -38 24z" />
    <glyph glyph-name="Eacute" unicode="&#xc9;" horiz-adv-x="609" 
d="M511 106q30 0 30 -29q0 -14 -7 -23t-25 -19q-17 -9 -44 -18t-62.5 -15.5t-76.5 -11t-85 -4.5q-59 0 -93.5 5t-51.5 16.5t-21.5 30t-4.5 46.5v337q0 46 6.5 78t23 53.5t44 34t70.5 21.5q18 4 38 7t39 5t35.5 3.5t26.5 1.5q62 0 102 -5.5t63 -15.5t32 -24t9 -30
q0 -23 -15 -37t-35 -14q-14 0 -28.5 5.5t-22.5 13.5q-11 10 -22 18t-26.5 13.5t-36.5 8t-50 2.5q-7 0 -17.5 -1t-22 -2t-21.5 -3t-16 -3q-24 -6 -38.5 -12.5t-22 -18.5t-9.5 -32t-2 -53v-90h215q14 0 22 -9t8 -23t-8 -23t-22 -9h-215v-180q0 -17 2.5 -26.5t10.5 -14.5
t24.5 -6.5t43.5 -1.5q43 0 77.5 3.5t62 10t50.5 15t43 18.5q13 7 23 7zM324 692q-17 -24 -38 -24q-16 0 -27 8.5t-11 20.5q0 3 1 7t6 13l45 81q7 13 15.5 18t23.5 5q18 0 31 -11t13 -25q0 -10 -6 -17z" />
    <glyph glyph-name="Ecircumflex" unicode="&#xca;" horiz-adv-x="609" 
d="M511 106q30 0 30 -29q0 -14 -7 -23t-25 -19q-17 -9 -44 -18t-62.5 -15.5t-76.5 -11t-85 -4.5q-59 0 -93.5 5t-51.5 16.5t-21.5 30t-4.5 46.5v337q0 46 6.5 78t23 53.5t44 34t70.5 21.5q18 4 38 7t39 5t35.5 3.5t26.5 1.5q62 0 102 -5.5t63 -15.5t32 -24t9 -30
q0 -23 -15 -37t-35 -14q-14 0 -28.5 5.5t-22.5 13.5q-11 10 -22 18t-26.5 13.5t-36.5 8t-50 2.5q-7 0 -17.5 -1t-22 -2t-21.5 -3t-16 -3q-24 -6 -38.5 -12.5t-22 -18.5t-9.5 -32t-2 -53v-90h215q14 0 22 -9t8 -23t-8 -23t-22 -9h-215v-180q0 -17 2.5 -26.5t10.5 -14.5
t24.5 -6.5t43.5 -1.5q43 0 77.5 3.5t62 10t50.5 15t43 18.5q13 7 23 7zM374 676q-20 0 -20 15q0 6 1 9q8 27 11 38.5t3 18.5q0 8 -6.5 14.5t-27.5 6.5q-38 0 -57 -14t-19 -33q0 -14 8 -28q3 -5 3 -10q0 -8 -10.5 -13t-24.5 -5q-13 0 -24.5 3.5t-17.5 9.5q-10 10 -10 27
t11 35.5t32 34.5t51.5 26t70.5 10q48 0 68 -13.5t20 -32.5q0 -14 -7 -38t-17 -42q-6 -11 -13.5 -15t-24.5 -4z" />
    <glyph glyph-name="Edieresis" unicode="&#xcb;" horiz-adv-x="609" 
d="M511 106q30 0 30 -29q0 -14 -7 -23t-25 -19q-17 -9 -44 -18t-62.5 -15.5t-76.5 -11t-85 -4.5q-59 0 -93.5 5t-51.5 16.5t-21.5 30t-4.5 46.5v337q0 46 6.5 78t23 53.5t44 34t70.5 21.5q18 4 38 7t39 5t35.5 3.5t26.5 1.5q62 0 102 -5.5t63 -15.5t32 -24t9 -30
q0 -23 -15 -37t-35 -14q-14 0 -28.5 5.5t-22.5 13.5q-11 10 -22 18t-26.5 13.5t-36.5 8t-50 2.5q-7 0 -17.5 -1t-22 -2t-21.5 -3t-16 -3q-24 -6 -38.5 -12.5t-22 -18.5t-9.5 -32t-2 -53v-90h215q14 0 22 -9t8 -23t-8 -23t-22 -9h-215v-180q0 -17 2.5 -26.5t10.5 -14.5
t24.5 -6.5t43.5 -1.5q43 0 77.5 3.5t62 10t50.5 15t43 18.5q13 7 23 7zM223 705q-26 0 -38.5 11t-12.5 26v33q0 15 12.5 26t38.5 11t38 -11t12 -26v-33q0 -15 -12 -26t-38 -11zM397 706q-26 0 -38 11t-12 26v33q0 15 12 26t38 11t38.5 -11t12.5 -26v-33q0 -15 -12.5 -26
t-38.5 -11z" />
    <glyph glyph-name="Igrave" unicode="&#xcc;" horiz-adv-x="234" 
d="M169 28q0 -19 -13 -30.5t-39 -11.5t-39 11.5t-13 30.5v551q0 19 13 30.5t39 11.5t39 -11.5t13 -30.5v-551zM56 768q-6 7 -6 17q0 14 13 25t31 11q14 0 22.5 -5t16.5 -18l45 -81q5 -9 6 -13t1 -7q0 -12 -11.5 -20.5t-26.5 -8.5q-22 0 -38 24z" />
    <glyph glyph-name="Iacute" unicode="&#xcd;" horiz-adv-x="234" 
d="M169 28q0 -19 -13 -30.5t-39 -11.5t-39 11.5t-13 30.5v551q0 19 13 30.5t39 11.5t39 -11.5t13 -30.5v-551zM126 692q-17 -24 -38 -24q-16 0 -27 8.5t-11 20.5q0 3 1 7t6 13l45 81q7 13 15.5 18t23.5 5q18 0 31 -11t13 -25q0 -10 -6 -17z" />
    <glyph glyph-name="Icircumflex" unicode="&#xce;" horiz-adv-x="234" 
d="M169 28q0 -19 -13 -30.5t-39 -11.5t-39 11.5t-13 30.5v551q0 19 13 30.5t39 11.5t39 -11.5t13 -30.5v-551zM184 676q-20 0 -20 15q0 6 1 9q8 27 11 38.5t3 18.5q0 8 -6.5 14.5t-27.5 6.5q-38 0 -57 -14t-19 -33q0 -14 8 -28q3 -5 3 -10q0 -8 -10.5 -13t-24.5 -5
q-13 0 -24.5 3.5t-17.5 9.5q-10 10 -10 27t11 35.5t32 34.5t51.5 26t70.5 10q48 0 68 -13.5t20 -32.5q0 -14 -7 -38t-17 -42q-6 -11 -13.5 -15t-24.5 -4z" />
    <glyph glyph-name="Idieresis" unicode="&#xcf;" horiz-adv-x="234" 
d="M169 28q0 -19 -13 -30.5t-39 -11.5t-39 11.5t-13 30.5v551q0 19 13 30.5t39 11.5t39 -11.5t13 -30.5v-551zM32 705q-26 0 -38.5 11t-12.5 26v33q0 15 12.5 26t38.5 11t38 -11t12 -26v-33q0 -15 -12 -26t-38 -11zM206 706q-26 0 -38 11t-12 26v33q0 15 12 26t38 11
t38.5 -11t12.5 -26v-33q0 -15 -12.5 -26t-38.5 -11z" />
    <glyph glyph-name="Eth" unicode="&#xd0;" horiz-adv-x="731" 
d="M245 -14q-59 0 -94 3.5t-53 14t-23 30t-5 50.5v196h-57q-10 0 -18 8t-8 25t8 25.5t18 8.5h57v119q0 36 7 60.5t28 41t58.5 27.5t98.5 20q28 4 67.5 7t72.5 3q63 0 113.5 -16t86.5 -45.5t55 -71.5t19 -93q0 -93 -31 -169t-87.5 -130.5t-136 -84t-176.5 -29.5zM565 363
q0 104 -52.5 150.5t-160.5 46.5q-16 0 -30 -1t-26 -3q-38 -5 -61.5 -11t-37 -16.5t-18.5 -26t-5 -39.5v-116h174q10 0 18 -8.5t8 -25.5t-8 -25t-18 -8h-174v-181q0 -15 3 -24t13.5 -14t30.5 -7t55 -2q64 0 117 18t91 55.5t59.5 96.5t21.5 141z" />
    <glyph glyph-name="Ntilde" unicode="&#xd1;" horiz-adv-x="739" 
d="M175 524q1 -106 21 -192.5t53 -148.5t77 -96t93 -34q36 0 65.5 12.5t51 38.5t33 67t11.5 97q0 63 -21 129.5t-63 130.5q-14 22 -19 34.5t-5 21.5q0 17 17 29t38 12q19 0 34 -10t41 -42q38 -51 60 -123t22 -157q0 -63 -21 -119t-57.5 -97.5t-86.5 -66t-108 -24.5
q-94 0 -157.5 63.5t-83.5 179.5v-201q0 -19 -13 -30.5t-37 -11.5t-37 11.5t-13 30.5v551q0 19 13 30.5t39 11.5t39 -11.5t13 -30.5zM399 812q46 0 67 -15.5t21 -41.5q0 -15 -9 -24.5t-29 -9.5q-14 0 -21.5 6t-14.5 16q-11 16 -33 16q-11 0 -20.5 -6t-20 -13t-22.5 -13
t-27 -6q-46 0 -67 15.5t-21 41.5q0 15 9 24.5t29 9.5q14 0 21.5 -6t14.5 -16q11 -16 33 -16q11 0 19 6t17.5 13t22 13t31.5 6z" />
    <glyph glyph-name="Ograve" unicode="&#xd2;" horiz-adv-x="851" 
d="M513 626q67 0 122 -16.5t94 -46.5t60.5 -72t21.5 -92q0 -48 -16.5 -97t-46.5 -95t-73 -86t-96 -70t-114.5 -47.5t-128.5 -17.5q-70 0 -125 16t-93 46t-58 72.5t-20 94.5q0 82 39 156.5t104.5 131t151 90t178.5 33.5zM473 557q-65 0 -122.5 -24t-100.5 -65.5t-67.5 -98
t-24.5 -120.5q0 -47 15 -83t42.5 -60.5t66.5 -37.5t86 -13q72 0 132 26t103.5 69t67.5 97t24 111q0 45 -16.5 82t-46 63t-70 40t-89.5 14zM362 768q-6 7 -6 17q0 14 13 25t31 11q14 0 22.5 -5t16.5 -18l45 -81q5 -9 6 -13t1 -7q0 -12 -11.5 -20.5t-26.5 -8.5q-22 0 -38 24z
" />
    <glyph glyph-name="Oacute" unicode="&#xd3;" horiz-adv-x="851" 
d="M513 626q67 0 122 -16.5t94 -46.5t60.5 -72t21.5 -92q0 -48 -16.5 -97t-46.5 -95t-73 -86t-96 -70t-114.5 -47.5t-128.5 -17.5q-70 0 -125 16t-93 46t-58 72.5t-20 94.5q0 82 39 156.5t104.5 131t151 90t178.5 33.5zM473 557q-65 0 -122.5 -24t-100.5 -65.5t-67.5 -98
t-24.5 -120.5q0 -47 15 -83t42.5 -60.5t66.5 -37.5t86 -13q72 0 132 26t103.5 69t67.5 97t24 111q0 45 -16.5 82t-46 63t-70 40t-89.5 14zM449 692q-17 -24 -38 -24q-16 0 -27 8.5t-11 20.5q0 3 1 7t6 13l45 81q7 13 15.5 18t23.5 5q18 0 31 -11t13 -25q0 -10 -6 -17z" />
    <glyph glyph-name="Ocircumflex" unicode="&#xd4;" horiz-adv-x="851" 
d="M513 626q67 0 122 -16.5t94 -46.5t60.5 -72t21.5 -92q0 -48 -16.5 -97t-46.5 -95t-73 -86t-96 -70t-114.5 -47.5t-128.5 -17.5q-70 0 -125 16t-93 46t-58 72.5t-20 94.5q0 82 39 156.5t104.5 131t151 90t178.5 33.5zM473 557q-65 0 -122.5 -24t-100.5 -65.5t-67.5 -98
t-24.5 -120.5q0 -47 15 -83t42.5 -60.5t66.5 -37.5t86 -13q72 0 132 26t103.5 69t67.5 97t24 111q0 45 -16.5 82t-46 63t-70 40t-89.5 14zM492 676q-20 0 -20 15q0 6 1 9q8 27 11 38.5t3 18.5q0 8 -6.5 14.5t-27.5 6.5q-38 0 -57 -14t-19 -33q0 -14 8 -28q3 -5 3 -10
q0 -8 -10.5 -13t-24.5 -5q-13 0 -24.5 3.5t-17.5 9.5q-10 10 -10 27t11 35.5t32 34.5t51.5 26t70.5 10q48 0 68 -13.5t20 -32.5q0 -14 -7 -38t-17 -42q-6 -11 -13.5 -15t-24.5 -4z" />
    <glyph glyph-name="Otilde" unicode="&#xd5;" horiz-adv-x="851" 
d="M513 626q67 0 122 -16.5t94 -46.5t60.5 -72t21.5 -92q0 -48 -16.5 -97t-46.5 -95t-73 -86t-96 -70t-114.5 -47.5t-128.5 -17.5q-70 0 -125 16t-93 46t-58 72.5t-20 94.5q0 82 39 156.5t104.5 131t151 90t178.5 33.5zM473 557q-65 0 -122.5 -24t-100.5 -65.5t-67.5 -98
t-24.5 -120.5q0 -47 15 -83t42.5 -60.5t66.5 -37.5t86 -13q72 0 132 26t103.5 69t67.5 97t24 111q0 45 -16.5 82t-46 63t-70 40t-89.5 14zM483 812q46 0 67 -15.5t21 -41.5q0 -15 -9 -24.5t-29 -9.5q-14 0 -21.5 6t-14.5 16q-11 16 -33 16q-11 0 -20.5 -6t-20 -13t-22.5 -13
t-27 -6q-46 0 -67 15.5t-21 41.5q0 15 9 24.5t29 9.5q14 0 21.5 -6t14.5 -16q11 -16 33 -16q11 0 19 6t17.5 13t22 13t31.5 6z" />
    <glyph glyph-name="Odieresis" unicode="&#xd6;" horiz-adv-x="851" 
d="M513 626q67 0 122 -16.5t94 -46.5t60.5 -72t21.5 -92q0 -48 -16.5 -97t-46.5 -95t-73 -86t-96 -70t-114.5 -47.5t-128.5 -17.5q-70 0 -125 16t-93 46t-58 72.5t-20 94.5q0 82 39 156.5t104.5 131t151 90t178.5 33.5zM473 557q-65 0 -122.5 -24t-100.5 -65.5t-67.5 -98
t-24.5 -120.5q0 -47 15 -83t42.5 -60.5t66.5 -37.5t86 -13q72 0 132 26t103.5 69t67.5 97t24 111q0 45 -16.5 82t-46 63t-70 40t-89.5 14zM342 705q-26 0 -38.5 11t-12.5 26v33q0 15 12.5 26t38.5 11t38 -11t12 -26v-33q0 -15 -12 -26t-38 -11zM516 706q-26 0 -38 11t-12 26
v33q0 15 12 26t38 11t38.5 -11t12.5 -26v-33q0 -15 -12.5 -26t-38.5 -11z" />
    <glyph glyph-name="multiply" unicode="&#xd7;" horiz-adv-x="288" 
d="M97 255l-57 57q-9 9 -9 20q0 13 12 25q13 11 24 11t20 -9l57 -57l57 57q10 8 19 8q14 0 26 -12q11 -11 11 -24q0 -11 -9 -20l-57 -57l58 -57q9 -8 9 -19q0 -14 -12 -24q-13 -13 -25 -13t-19 9l-58 57l-58 -58q-8 -8 -19 -8q-13 0 -24 11q-13 13 -13 25q0 11 9 20z" />
    <glyph glyph-name="Oslash" unicode="&#xd8;" horiz-adv-x="851" 
d="M513 626q35 0 67.5 -5t61.5 -14l41 43q13 13 29 13q20 0 38 -19q20 -19 20 -39q0 -14 -11 -27l-22 -23q35 -29 54.5 -68.5t19.5 -87.5t-16.5 -97t-46.5 -95t-73 -86t-96 -70t-114.5 -47.5t-128.5 -17.5q-70 0 -129 17l-39 -41q-13 -13 -28 -13q-19 0 -39 19t-20 39
q0 15 12 27l19 19q-72 61 -72 162q0 82 39 156.5t104.5 131t151 90t178.5 33.5zM473 557q-65 0 -122.5 -24t-100.5 -65.5t-67.5 -98t-24.5 -120.5q0 -74 38 -123l391 407q-25 11 -53.5 17.5t-60.5 6.5zM695 358q0 37 -11.5 68.5t-31.5 56.5l-391 -407q46 -21 107 -21
q72 0 132 26t103.5 69t67.5 97t24 111z" />
    <glyph glyph-name="Ugrave" unicode="&#xd9;" horiz-adv-x="649" 
d="M306 55q44 0 79 21t59.5 58.5t37.5 87.5t13 109q0 104 -54 205q-5 10 -8.5 20.5t-3.5 22.5q0 20 16.5 33t39.5 13q47 0 72 -46q18 -34 27.5 -88.5t9.5 -111.5q0 -85 -24 -157t-67 -124.5t-101 -82t-126 -29.5q-116 0 -166 58.5t-50 165.5q0 48 2.5 90t7 84t11.5 86t17 97
q7 38 51 38q24 0 36 -10.5t12 -28.5q0 -8 -5 -46t-11.5 -88t-11.5 -102.5t-5 -89.5q0 -53 8.5 -88t26.5 -57t44.5 -31t62.5 -9zM234 768q-6 7 -6 17q0 14 13 25t31 11q14 0 22.5 -5t16.5 -18l45 -81q5 -9 6 -13t1 -7q0 -12 -11.5 -20.5t-26.5 -8.5q-22 0 -38 24z" />
    <glyph glyph-name="Uacute" unicode="&#xda;" horiz-adv-x="649" 
d="M306 55q44 0 79 21t59.5 58.5t37.5 87.5t13 109q0 104 -54 205q-5 10 -8.5 20.5t-3.5 22.5q0 20 16.5 33t39.5 13q47 0 72 -46q18 -34 27.5 -88.5t9.5 -111.5q0 -85 -24 -157t-67 -124.5t-101 -82t-126 -29.5q-116 0 -166 58.5t-50 165.5q0 48 2.5 90t7 84t11.5 86t17 97
q7 38 51 38q24 0 36 -10.5t12 -28.5q0 -8 -5 -46t-11.5 -88t-11.5 -102.5t-5 -89.5q0 -53 8.5 -88t26.5 -57t44.5 -31t62.5 -9zM334 692q-17 -24 -38 -24q-16 0 -27 8.5t-11 20.5q0 3 1 7t6 13l45 81q7 13 15.5 18t23.5 5q18 0 31 -11t13 -25q0 -10 -6 -17z" />
    <glyph glyph-name="Ucircumflex" unicode="&#xdb;" horiz-adv-x="649" 
d="M306 55q44 0 79 21t59.5 58.5t37.5 87.5t13 109q0 104 -54 205q-5 10 -8.5 20.5t-3.5 22.5q0 20 16.5 33t39.5 13q47 0 72 -46q18 -34 27.5 -88.5t9.5 -111.5q0 -85 -24 -157t-67 -124.5t-101 -82t-126 -29.5q-116 0 -166 58.5t-50 165.5q0 48 2.5 90t7 84t11.5 86t17 97
q7 38 51 38q24 0 36 -10.5t12 -28.5q0 -8 -5 -46t-11.5 -88t-11.5 -102.5t-5 -89.5q0 -53 8.5 -88t26.5 -57t44.5 -31t62.5 -9zM379 676q-20 0 -20 15q0 6 1 9q8 27 11 38.5t3 18.5q0 8 -6.5 14.5t-27.5 6.5q-38 0 -57 -14t-19 -33q0 -14 8 -28q3 -5 3 -10q0 -8 -10.5 -13
t-24.5 -5q-13 0 -24.5 3.5t-17.5 9.5q-10 10 -10 27t11 35.5t32 34.5t51.5 26t70.5 10q48 0 68 -13.5t20 -32.5q0 -14 -7 -38t-17 -42q-6 -11 -13.5 -15t-24.5 -4z" />
    <glyph glyph-name="Udieresis" unicode="&#xdc;" horiz-adv-x="649" 
d="M306 55q44 0 79 21t59.5 58.5t37.5 87.5t13 109q0 104 -54 205q-5 10 -8.5 20.5t-3.5 22.5q0 20 16.5 33t39.5 13q47 0 72 -46q18 -34 27.5 -88.5t9.5 -111.5q0 -85 -24 -157t-67 -124.5t-101 -82t-126 -29.5q-116 0 -166 58.5t-50 165.5q0 48 2.5 90t7 84t11.5 86t17 97
q7 38 51 38q24 0 36 -10.5t12 -28.5q0 -8 -5 -46t-11.5 -88t-11.5 -102.5t-5 -89.5q0 -53 8.5 -88t26.5 -57t44.5 -31t62.5 -9zM222 705q-26 0 -38.5 11t-12.5 26v33q0 15 12.5 26t38.5 11t38 -11t12 -26v-33q0 -15 -12 -26t-38 -11zM396 706q-26 0 -38 11t-12 26v33
q0 15 12 26t38 11t38.5 -11t12.5 -26v-33q0 -15 -12.5 -26t-38.5 -11z" />
    <glyph glyph-name="Yacute" unicode="&#xdd;" horiz-adv-x="624" 
d="M362 28q0 -19 -13 -30.5t-39 -11.5t-39 11.5t-13 30.5v105q0 35 -6.5 78.5t-18 88t-26.5 86.5t-32 75t-34 53t-33 20q-9 0 -17.5 -3.5t-16.5 -7.5t-17 -7.5t-18 -3.5q-14 0 -21.5 15.5t-7.5 37.5q0 17 7.5 26.5t18.5 14.5t23 6.5t20 1.5q51 0 92.5 -26t72 -74.5
t48.5 -118t23 -156.5q6 87 22 156.5t44.5 118t69 74.5t94.5 26q33 0 51 -13.5t18 -34.5q0 -28 -9.5 -41t-24.5 -13q-9 0 -17 3.5t-15.5 7.5t-16 7.5t-18.5 3.5q-17 0 -35 -20t-34.5 -52.5t-31.5 -75t-26 -87t-17.5 -88t-6.5 -78.5v-105zM316 692q-17 -24 -38 -24
q-16 0 -27 8.5t-11 20.5q0 3 1 7t6 13l45 81q7 13 15.5 18t23.5 5q18 0 31 -11t13 -25q0 -10 -6 -17z" />
    <glyph glyph-name="Thorn" unicode="&#xde;" horiz-adv-x="591" 
d="M172 28q0 -17 -13 -27.5t-38 -10.5t-39 10.5t-14 27.5v557q0 17 14 27.5t39 10.5t38 -10.5t13 -27.5v-99q14 3 36.5 8t47.5 9.5t49.5 7.5t44.5 3q119 0 175 -42t56 -108q0 -47 -21 -91t-62 -78t-101 -55t-137 -21q-19 0 -42.5 2t-45.5 6v-99zM172 181q17 -3 40.5 -4.5
t46.5 -1.5q114 0 165.5 46t51.5 125q0 54 -38 82.5t-109 28.5q-20 0 -42.5 -2.5t-38.5 -6.5q-26 -6 -41.5 -12.5t-23 -17t-9.5 -27t-2 -44.5v-166z" />
    <glyph glyph-name="germandbls" unicode="&#xdf;" horiz-adv-x="581" 
d="M387 540q-33 -38 -48 -76.5t-15 -74.5q0 -26 11 -42t43 -34l87 -51q50 -29 68 -55t18 -57q0 -30 -15.5 -59.5t-42.5 -53t-62.5 -37.5t-75.5 -14q-29 0 -56 9t-47.5 24t-33 33t-12.5 36q0 22 10.5 35t30.5 13q15 0 25.5 -9t24.5 -34q25 -44 72 -44q39 0 61.5 22.5
t22.5 56.5q0 22 -10.5 37.5t-45.5 35.5l-101 59q-37 21 -52.5 45.5t-15.5 59.5q0 52 29.5 109.5t97.5 134.5q0 17 -8 25t-28 8q-25 0 -51 -16t-47 -43t-34.5 -63t-13.5 -75v-415q0 -17 -11.5 -28.5t-38.5 -11.5q-26 0 -37.5 11.5t-11.5 28.5v301h-45q-29 0 -29 32
q0 31 29 31h45v10q0 12 -3.5 23t-3.5 24q0 38 28 82t73 81.5t101 62.5t113 25q35 0 53 -14.5t18 -34.5t-4 -32.5t-12 -24t-20.5 -24t-29.5 -32.5z" />
    <glyph glyph-name="agrave" unicode="&#xe0;" horiz-adv-x="618" 
d="M386 407q90 0 131 -34t41 -89q0 -17 -5.5 -34t-5.5 -31v-189q0 -17 -11.5 -28.5t-37.5 -11.5q-27 0 -38.5 11.5t-11.5 28.5v67q-45 -51 -106 -81t-130 -30q-91 0 -131.5 35.5t-40.5 96.5q0 52 28 103.5t76 93t110.5 67t131.5 25.5zM351 348q-44 0 -81 -16.5t-64.5 -43.5
t-43 -62t-15.5 -72q0 -47 26.5 -72.5t75.5 -25.5q42 0 79 16.5t64.5 43.5t44 62t16.5 73q0 44 -27.5 70.5t-74.5 26.5zM254 568q-6 7 -6 17q0 14 13 25t31 11q14 0 22.5 -5t16.5 -18l45 -81q5 -9 6 -13t1 -7q0 -12 -11.5 -20.5t-26.5 -8.5q-22 0 -38 24z" />
    <glyph glyph-name="aacute" unicode="&#xe1;" horiz-adv-x="618" 
d="M386 407q90 0 131 -34t41 -89q0 -17 -5.5 -34t-5.5 -31v-189q0 -17 -11.5 -28.5t-37.5 -11.5q-27 0 -38.5 11.5t-11.5 28.5v67q-45 -51 -106 -81t-130 -30q-91 0 -131.5 35.5t-40.5 96.5q0 52 28 103.5t76 93t110.5 67t131.5 25.5zM351 348q-44 0 -81 -16.5t-64.5 -43.5
t-43 -62t-15.5 -72q0 -47 26.5 -72.5t75.5 -25.5q42 0 79 16.5t64.5 43.5t44 62t16.5 73q0 44 -27.5 70.5t-74.5 26.5zM334 492q-17 -24 -38 -24q-16 0 -27 8.5t-11 20.5q0 3 1 7t6 13l45 81q7 13 15.5 18t23.5 5q18 0 31 -11t13 -25q0 -10 -6 -17z" />
    <glyph glyph-name="acircumflex" unicode="&#xe2;" horiz-adv-x="618" 
d="M386 407q90 0 131 -34t41 -89q0 -17 -5.5 -34t-5.5 -31v-189q0 -17 -11.5 -28.5t-37.5 -11.5q-27 0 -38.5 11.5t-11.5 28.5v67q-45 -51 -106 -81t-130 -30q-91 0 -131.5 35.5t-40.5 96.5q0 52 28 103.5t76 93t110.5 67t131.5 25.5zM351 348q-44 0 -81 -16.5t-64.5 -43.5
t-43 -62t-15.5 -72q0 -47 26.5 -72.5t75.5 -25.5q42 0 79 16.5t64.5 43.5t44 62t16.5 73q0 44 -27.5 70.5t-74.5 26.5zM396 476q-20 0 -20 15q0 6 1 9q8 27 11 38.5t3 18.5q0 8 -6.5 14.5t-27.5 6.5q-38 0 -57 -14t-19 -33q0 -14 8 -28q3 -5 3 -10q0 -8 -10.5 -13t-24.5 -5
q-13 0 -24.5 3.5t-17.5 9.5q-10 10 -10 27t11 35.5t32 34.5t51.5 26t70.5 10q48 0 68 -13.5t20 -32.5q0 -14 -7 -38t-17 -42q-6 -11 -13.5 -15t-24.5 -4z" />
    <glyph glyph-name="atilde" unicode="&#xe3;" horiz-adv-x="618" 
d="M386 407q90 0 131 -34t41 -89q0 -17 -5.5 -34t-5.5 -31v-189q0 -17 -11.5 -28.5t-37.5 -11.5q-27 0 -38.5 11.5t-11.5 28.5v67q-45 -51 -106 -81t-130 -30q-91 0 -131.5 35.5t-40.5 96.5q0 52 28 103.5t76 93t110.5 67t131.5 25.5zM351 348q-44 0 -81 -16.5t-64.5 -43.5
t-43 -62t-15.5 -72q0 -47 26.5 -72.5t75.5 -25.5q42 0 79 16.5t64.5 43.5t44 62t16.5 73q0 44 -27.5 70.5t-74.5 26.5zM371 612q46 0 67 -15.5t21 -41.5q0 -15 -9 -24.5t-29 -9.5q-14 0 -21.5 6t-14.5 16q-11 16 -33 16q-11 0 -20.5 -6t-20 -13t-22.5 -13t-27 -6
q-46 0 -67 15.5t-21 41.5q0 15 9 24.5t29 9.5q14 0 21.5 -6t14.5 -16q11 -16 33 -16q11 0 19 6t17.5 13t22 13t31.5 6z" />
    <glyph glyph-name="adieresis" unicode="&#xe4;" horiz-adv-x="618" 
d="M386 407q90 0 131 -34t41 -89q0 -17 -5.5 -34t-5.5 -31v-189q0 -17 -11.5 -28.5t-37.5 -11.5q-27 0 -38.5 11.5t-11.5 28.5v67q-45 -51 -106 -81t-130 -30q-91 0 -131.5 35.5t-40.5 96.5q0 52 28 103.5t76 93t110.5 67t131.5 25.5zM351 348q-44 0 -81 -16.5t-64.5 -43.5
t-43 -62t-15.5 -72q0 -47 26.5 -72.5t75.5 -25.5q42 0 79 16.5t64.5 43.5t44 62t16.5 73q0 44 -27.5 70.5t-74.5 26.5zM229 505q-26 0 -38.5 11t-12.5 26v33q0 15 12.5 26t38.5 11t38 -11t12 -26v-33q0 -15 -12 -26t-38 -11zM403 506q-26 0 -38 11t-12 26v33q0 15 12 26
t38 11t38.5 -11t12.5 -26v-33q0 -15 -12.5 -26t-38.5 -11z" />
    <glyph glyph-name="aring" unicode="&#xe5;" horiz-adv-x="618" 
d="M386 407q90 0 131 -34t41 -89q0 -17 -5.5 -34t-5.5 -31v-189q0 -17 -11.5 -28.5t-37.5 -11.5q-27 0 -38.5 11.5t-11.5 28.5v67q-45 -51 -106 -81t-130 -30q-91 0 -131.5 35.5t-40.5 96.5q0 52 28 103.5t76 93t110.5 67t131.5 25.5zM351 348q-44 0 -81 -16.5t-64.5 -43.5
t-43 -62t-15.5 -72q0 -47 26.5 -72.5t75.5 -25.5q42 0 79 16.5t64.5 43.5t44 62t16.5 73q0 44 -27.5 70.5t-74.5 26.5zM347 656q38 0 58.5 -14.5t20.5 -39.5q0 -20 -12 -41t-32 -38t-46 -27.5t-54 -10.5q-42 0 -60 16t-18 39q0 21 12 41.5t32 37t46 27t53 10.5zM369 587
q0 16 -11 25t-29 9q-28 0 -48 -20t-20 -46q0 -33 41 -33q27 0 47 20t20 45z" />
    <glyph glyph-name="ae" unicode="&#xe6;" horiz-adv-x="880" 
d="M696 407q85 0 124.5 -29t39.5 -71q0 -47 -34.5 -80t-117.5 -47l-249 -42q0 -39 20.5 -62t75.5 -23q50 0 92.5 12t81.5 31q18 9 28 9q22 0 22 -28q0 -17 -20 -28q-116 -63 -233 -63q-35 0 -59.5 8.5t-41.5 22.5t-27.5 33t-17.5 39q-12 -20 -33 -39t-48.5 -33t-59 -22.5
t-62.5 -8.5q-81 0 -119 25t-38 71q0 29 15.5 58t45.5 52t73 37.5t98 14.5q15 0 33 -2.5t35.5 -7t32.5 -10t24 -10.5q7 23 10 43t3 35q0 35 -26 51.5t-74 16.5q-42 0 -67.5 -15.5t-25.5 -35.5q0 -26 -40 -26q-49 0 -49 42q0 35 46 58.5t145 23.5q71 0 111.5 -23t40.5 -58
q0 -8 -1 -17t-5 -22q14 25 38 46q26 23 59 39.5t72.5 25.5t81.5 9zM663 350q-35 0 -69 -13t-61.5 -35t-47 -50.5t-25.5 -58.5l218 35q50 8 65.5 23t15.5 38q0 24 -24 42.5t-72 18.5zM259 196q-30 0 -55.5 -8.5t-44 -22t-29 -31t-10.5 -36.5q0 -21 21 -35t63 -14
q34 0 61.5 9.5t48 25t33 36t17.5 41.5l1 6q-17 12 -43 20.5t-63 8.5z" />
    <glyph glyph-name="ccedilla" unicode="&#xe7;" horiz-adv-x="565" 
d="M147 154q0 -45 26 -71.5t71 -26.5q47 0 87.5 16t72.5 45q15 14 28 14q12 0 20.5 -8.5t8.5 -19.5q0 -5 -2 -10.5t-9 -11.5q-27 -27 -66.5 -50t-90.5 -34l-79 -86q9 4 22.5 5.5t21.5 1.5q103 0 103 -82q0 -28 -14.5 -54t-40 -46.5t-60 -32.5t-74.5 -12q-47 0 -72 15.5
t-25 38.5q0 14 7 23t21 9q16 0 22 -5.5t11.5 -12t15.5 -12t34 -5.5q44 0 71.5 22.5t27.5 54.5q0 23 -13.5 37t-33.5 14t-37 -4.5t-31 -12.5t-24 -8t-18 8q-9 7 -9 19t14 28l84 86h-12q-81 0 -123 36.5t-42 98.5q0 52 28.5 103.5t75 92t106.5 65.5t123 25q86 0 129 -27.5
t43 -66.5q0 -19 -11 -32.5t-35 -13.5q-20 0 -31 6t-18.5 14.5t-14 19t-17 19t-28 14.5t-46.5 6q-42 0 -78 -16t-62.5 -43t-41.5 -61.5t-15 -71.5z" />
    <glyph glyph-name="egrave" unicode="&#xe8;" horiz-adv-x="570" 
d="M386 407q85 0 124.5 -29t39.5 -71q0 -49 -34.5 -83.5t-117.5 -48.5l-249 -42q0 -37 20.5 -58.5t75.5 -21.5q50 0 92.5 12t81.5 31q18 9 28 9q23 0 23 -28q0 -17 -21 -28q-116 -63 -233 -63q-47 0 -80.5 10t-54.5 27.5t-31 41.5t-10 52q0 52 28 104t75.5 93t110 67
t132.5 26zM353 350q-35 0 -69 -13t-61.5 -35t-47 -50.5t-25.5 -58.5l218 35q50 8 65.5 23t15.5 38q0 24 -24 42.5t-72 18.5zM231 568q-6 7 -6 17q0 14 13 25t31 11q14 0 22.5 -5t16.5 -18l45 -81q5 -9 6 -13t1 -7q0 -12 -11.5 -20.5t-26.5 -8.5q-22 0 -38 24z" />
    <glyph glyph-name="eacute" unicode="&#xe9;" horiz-adv-x="570" 
d="M386 407q85 0 124.5 -29t39.5 -71q0 -49 -34.5 -83.5t-117.5 -48.5l-249 -42q0 -37 20.5 -58.5t75.5 -21.5q50 0 92.5 12t81.5 31q18 9 28 9q23 0 23 -28q0 -17 -21 -28q-116 -63 -233 -63q-47 0 -80.5 10t-54.5 27.5t-31 41.5t-10 52q0 52 28 104t75.5 93t110 67
t132.5 26zM353 350q-35 0 -69 -13t-61.5 -35t-47 -50.5t-25.5 -58.5l218 35q50 8 65.5 23t15.5 38q0 24 -24 42.5t-72 18.5zM310 492q-17 -24 -38 -24q-16 0 -27 8.5t-11 20.5q0 3 1 7t6 13l45 81q7 13 15.5 18t23.5 5q18 0 31 -11t13 -25q0 -10 -6 -17z" />
    <glyph glyph-name="ecircumflex" unicode="&#xea;" horiz-adv-x="570" 
d="M386 407q85 0 124.5 -29t39.5 -71q0 -49 -34.5 -83.5t-117.5 -48.5l-249 -42q0 -37 20.5 -58.5t75.5 -21.5q50 0 92.5 12t81.5 31q18 9 28 9q23 0 23 -28q0 -17 -21 -28q-116 -63 -233 -63q-47 0 -80.5 10t-54.5 27.5t-31 41.5t-10 52q0 52 28 104t75.5 93t110 67
t132.5 26zM353 350q-35 0 -69 -13t-61.5 -35t-47 -50.5t-25.5 -58.5l218 35q50 8 65.5 23t15.5 38q0 24 -24 42.5t-72 18.5zM364 476q-20 0 -20 15q0 6 1 9q8 27 11 38.5t3 18.5q0 8 -6.5 14.5t-27.5 6.5q-38 0 -57 -14t-19 -33q0 -14 8 -28q3 -5 3 -10q0 -8 -10.5 -13
t-24.5 -5q-13 0 -24.5 3.5t-17.5 9.5q-10 10 -10 27t11 35.5t32 34.5t51.5 26t70.5 10q48 0 68 -13.5t20 -32.5q0 -14 -7 -38t-17 -42q-6 -11 -13.5 -15t-24.5 -4z" />
    <glyph glyph-name="edieresis" unicode="&#xeb;" horiz-adv-x="570" 
d="M386 407q85 0 124.5 -29t39.5 -71q0 -49 -34.5 -83.5t-117.5 -48.5l-249 -42q0 -37 20.5 -58.5t75.5 -21.5q50 0 92.5 12t81.5 31q18 9 28 9q23 0 23 -28q0 -17 -21 -28q-116 -63 -233 -63q-47 0 -80.5 10t-54.5 27.5t-31 41.5t-10 52q0 52 28 104t75.5 93t110 67
t132.5 26zM353 350q-35 0 -69 -13t-61.5 -35t-47 -50.5t-25.5 -58.5l218 35q50 8 65.5 23t15.5 38q0 24 -24 42.5t-72 18.5zM214 505q-26 0 -38.5 11t-12.5 26v33q0 15 12.5 26t38.5 11t38 -11t12 -26v-33q0 -15 -12 -26t-38 -11zM388 506q-26 0 -38 11t-12 26v33
q0 15 12 26t38 11t38.5 -11t12.5 -26v-33q0 -15 -12.5 -26t-38.5 -11z" />
    <glyph glyph-name="igrave" unicode="&#xec;" horiz-adv-x="241" 
d="M121 403q26 0 38 -10.5t12 -26.5v-339q0 -15 -12 -26t-38 -11t-38.5 11t-12.5 26v339q0 16 12.5 26.5t38.5 10.5zM60 568q-6 7 -6 17q0 14 13 25t31 11q14 0 22.5 -5t16.5 -18l45 -81q5 -9 6 -13t1 -7q0 -12 -11.5 -20.5t-26.5 -8.5q-22 0 -38 24z" />
    <glyph glyph-name="iacute" unicode="&#xed;" horiz-adv-x="241" 
d="M121 403q26 0 38 -10.5t12 -26.5v-339q0 -15 -12 -26t-38 -11t-38.5 11t-12.5 26v339q0 16 12.5 26.5t38.5 10.5zM130 492q-17 -24 -38 -24q-16 0 -27 8.5t-11 20.5q0 3 1 7t6 13l45 81q7 13 15.5 18t23.5 5q18 0 31 -11t13 -25q0 -10 -6 -17z" />
    <glyph glyph-name="icircumflex" unicode="&#xee;" horiz-adv-x="241" 
d="M121 403q26 0 38 -10.5t12 -26.5v-339q0 -15 -12 -26t-38 -11t-38.5 11t-12.5 26v339q0 16 12.5 26.5t38.5 10.5zM188 476q-20 0 -20 15q0 6 1 9q8 27 11 38.5t3 18.5q0 8 -6.5 14.5t-27.5 6.5q-38 0 -57 -14t-19 -33q0 -14 8 -28q3 -5 3 -10q0 -8 -10.5 -13t-24.5 -5
q-13 0 -24.5 3.5t-17.5 9.5q-10 10 -10 27t11 35.5t32 34.5t51.5 26t70.5 10q48 0 68 -13.5t20 -32.5q0 -14 -7 -38t-17 -42q-6 -11 -13.5 -15t-24.5 -4z" />
    <glyph glyph-name="idieresis" unicode="&#xef;" horiz-adv-x="241" 
d="M121 403q26 0 38 -10.5t12 -26.5v-339q0 -15 -12 -26t-38 -11t-38.5 11t-12.5 26v339q0 16 12.5 26.5t38.5 10.5zM35 505q-26 0 -38.5 11t-12.5 26v33q0 15 12.5 26t38.5 11t38 -11t12 -26v-33q0 -15 -12 -26t-38 -11zM209 506q-26 0 -38 11t-12 26v33q0 15 12 26t38 11
t38.5 -11t12.5 -26v-33q0 -15 -12.5 -26t-38.5 -11z" />
    <glyph glyph-name="eth" unicode="&#xf0;" horiz-adv-x="604" 
d="M520 533q14 -30 17 -59q5 -58 14 -105t9 -95q0 -31 -12.5 -64.5t-35.5 -65.5t-55 -61t-70.5 -50.5t-82 -34t-90.5 -12.5q-91 0 -131.5 34.5t-40.5 89.5q0 51 28.5 103t74 93t102 67t112.5 26q14 0 30 -2t32 -5.5t30 -8t24 -10.5q-4 74 -31 130l-102 -40q-8 -2 -10 -2
q-8 0 -15.5 5t-11.5 16q-3 7 -3 14q0 16 19 24l90 35q-32 40 -75.5 59.5t-94.5 19.5q-31 0 -49.5 -7.5t-29.5 -18.5t-17 -23.5t-12 -23.5t-15.5 -18.5t-27.5 -7.5q-21 0 -35.5 16.5t-14.5 43.5q0 44 41.5 75.5t123.5 31.5q40 0 80 -8.5t76.5 -24t68 -37.5t55.5 -48l79 32
q4 2 12 2q19 0 25 -18q3 -9 3 -15q0 -18 -19 -26zM345 338q-42 0 -77.5 -16t-61.5 -42.5t-41 -60t-15 -68.5q0 -48 28 -75t76 -27q41 0 77 16.5t63 43.5t43 62t16 73q0 45 -28.5 69.5t-79.5 24.5z" />
    <glyph glyph-name="ntilde" unicode="&#xf1;" horiz-adv-x="629" 
d="M165 276q81 131 242 131q88 0 130 -35t42 -92q0 -31 -11 -67t-30.5 -73t-47.5 -72.5t-61 -64.5q-11 -11 -19.5 -14t-18.5 -3q-13 0 -22.5 9.5t-9.5 19.5q0 5 2 10.5t10 13.5q24 25 42.5 53.5t31 56t19.5 52.5t7 45q0 52 -26.5 77t-74.5 25q-38 0 -74.5 -17t-64.5 -47.5
t-45 -72t-17 -90.5v-93q0 -17 -11.5 -28.5t-38.5 -11.5q-26 0 -37.5 11.5t-11.5 28.5v330q0 17 11 28.5t36 11.5q26 0 37 -11.5t11 -28.5v-82zM363 612q46 0 67 -15.5t21 -41.5q0 -15 -9 -24.5t-29 -9.5q-14 0 -21.5 6t-14.5 16q-11 16 -33 16q-11 0 -20.5 -6t-20 -13
t-22.5 -13t-27 -6q-46 0 -67 15.5t-21 41.5q0 15 9 24.5t29 9.5q14 0 21.5 -6t14.5 -16q11 -16 33 -16q11 0 19 6t17.5 13t22 13t31.5 6z" />
    <glyph glyph-name="ograve" unicode="&#xf2;" horiz-adv-x="598" 
d="M385 407q92 0 132.5 -34t40.5 -89q0 -51 -28 -103.5t-75 -96t-110 -71t-133 -27.5q-91 0 -131.5 34.5t-40.5 89.5q0 51 28 104t75.5 96t110 70t131.5 27zM343 344q-42 0 -77.5 -16t-61.5 -43t-41 -62t-15 -72q0 -48 28 -75t76 -27q41 0 77 16.5t63 43.5t43 62t16 73
q0 45 -28.5 72.5t-79.5 27.5zM236 568q-6 7 -6 17q0 14 13 25t31 11q14 0 22.5 -5t16.5 -18l45 -81q5 -9 6 -13t1 -7q0 -12 -11.5 -20.5t-26.5 -8.5q-22 0 -38 24z" />
    <glyph glyph-name="oacute" unicode="&#xf3;" horiz-adv-x="598" 
d="M385 407q92 0 132.5 -34t40.5 -89q0 -51 -28 -103.5t-75 -96t-110 -71t-133 -27.5q-91 0 -131.5 34.5t-40.5 89.5q0 51 28 104t75.5 96t110 70t131.5 27zM343 344q-42 0 -77.5 -16t-61.5 -43t-41 -62t-15 -72q0 -48 28 -75t76 -27q41 0 77 16.5t63 43.5t43 62t16 73
q0 45 -28.5 72.5t-79.5 27.5zM318 492q-17 -24 -38 -24q-16 0 -27 8.5t-11 20.5q0 3 1 7t6 13l45 81q7 13 15.5 18t23.5 5q18 0 31 -11t13 -25q0 -10 -6 -17z" />
    <glyph glyph-name="ocircumflex" unicode="&#xf4;" horiz-adv-x="598" 
d="M385 407q92 0 132.5 -34t40.5 -89q0 -51 -28 -103.5t-75 -96t-110 -71t-133 -27.5q-91 0 -131.5 34.5t-40.5 89.5q0 51 28 104t75.5 96t110 70t131.5 27zM343 344q-42 0 -77.5 -16t-61.5 -43t-41 -62t-15 -72q0 -48 28 -75t76 -27q41 0 77 16.5t63 43.5t43 62t16 73
q0 45 -28.5 72.5t-79.5 27.5zM365 476q-20 0 -20 15q0 6 1 9q8 27 11 38.5t3 18.5q0 8 -6.5 14.5t-27.5 6.5q-38 0 -57 -14t-19 -33q0 -14 8 -28q3 -5 3 -10q0 -8 -10.5 -13t-24.5 -5q-13 0 -24.5 3.5t-17.5 9.5q-10 10 -10 27t11 35.5t32 34.5t51.5 26t70.5 10
q48 0 68 -13.5t20 -32.5q0 -14 -7 -38t-17 -42q-6 -11 -13.5 -15t-24.5 -4z" />
    <glyph glyph-name="otilde" unicode="&#xf5;" horiz-adv-x="598" 
d="M385 407q92 0 132.5 -34t40.5 -89q0 -51 -28 -103.5t-75 -96t-110 -71t-133 -27.5q-91 0 -131.5 34.5t-40.5 89.5q0 51 28 104t75.5 96t110 70t131.5 27zM343 344q-42 0 -77.5 -16t-61.5 -43t-41 -62t-15 -72q0 -48 28 -75t76 -27q41 0 77 16.5t63 43.5t43 62t16 73
q0 45 -28.5 72.5t-79.5 27.5zM354 612q46 0 67 -15.5t21 -41.5q0 -15 -9 -24.5t-29 -9.5q-14 0 -21.5 6t-14.5 16q-11 16 -33 16q-11 0 -20.5 -6t-20 -13t-22.5 -13t-27 -6q-46 0 -67 15.5t-21 41.5q0 15 9 24.5t29 9.5q14 0 21.5 -6t14.5 -16q11 -16 33 -16q11 0 19 6
t17.5 13t22 13t31.5 6z" />
    <glyph glyph-name="odieresis" unicode="&#xf6;" horiz-adv-x="598" 
d="M385 407q92 0 132.5 -34t40.5 -89q0 -51 -28 -103.5t-75 -96t-110 -71t-133 -27.5q-91 0 -131.5 34.5t-40.5 89.5q0 51 28 104t75.5 96t110 70t131.5 27zM343 344q-42 0 -77.5 -16t-61.5 -43t-41 -62t-15 -72q0 -48 28 -75t76 -27q41 0 77 16.5t63 43.5t43 62t16 73
q0 45 -28.5 72.5t-79.5 27.5zM211 505q-26 0 -38.5 11t-12.5 26v33q0 15 12.5 26t38.5 11t38 -11t12 -26v-33q0 -15 -12 -26t-38 -11zM385 506q-26 0 -38 11t-12 26v33q0 15 12 26t38 11t38.5 -11t12.5 -26v-33q0 -15 -12.5 -26t-38.5 -11z" />
    <glyph glyph-name="divide" unicode="&#xf7;" horiz-adv-x="347" 
d="M174 314q-20 0 -30 8.5t-10 21.5v25q0 14 10 22t30 8q22 0 31.5 -8t9.5 -22v-25q0 -13 -9.5 -21.5t-31.5 -8.5zM174 112q-20 0 -30 8t-10 22v25q0 12 10 21t30 9q22 0 31.5 -9t9.5 -21v-25q0 -14 -9.5 -22t-31.5 -8zM59 222q-14 0 -21.5 9.5t-7.5 24.5q0 14 7.5 23.5
t21.5 9.5h229q14 0 21.5 -9.5t7.5 -23.5q0 -15 -7.5 -24.5t-21.5 -9.5h-229z" />
    <glyph glyph-name="oslash" unicode="&#xf8;" horiz-adv-x="598" 
d="M385 407q14 0 26.5 -1t23.5 -3l44 45q10 10 23 10q17 0 34 -17t17 -33q0 -12 -11 -23l-18 -18q34 -31 34 -83q0 -51 -28 -103.5t-75 -96t-110 -71t-133 -27.5q-26 0 -47 3l-44 -44q-11 -11 -25 -11q-16 0 -32 17q-17 17 -17 33q0 13 11 24l17 17q-18 16 -26.5 37.5
t-8.5 47.5q0 51 28 104t75.5 96t110 70t131.5 27zM343 344q-42 0 -78 -16.5t-62.5 -43.5t-42 -62t-15.5 -71q0 -32 15 -53l225 240q-20 6 -42 6zM454 244q0 13 -3.5 26t-11.5 24l-224 -240q8 -3 17.5 -4t19.5 -1q41 0 77.5 16.5t64.5 44t44 62.5t16 72z" />
    <glyph glyph-name="ugrave" unicode="&#xf9;" horiz-adv-x="629" 
d="M464 119q-41 -67 -99.5 -100t-132.5 -33q-91 0 -136.5 37.5t-45.5 94.5q0 30 11 65.5t30.5 71.5t47.5 71t61 64q11 11 19.5 14t18.5 3q13 0 22.5 -9.5t9.5 -19.5q0 -5 -2 -10.5t-10 -13.5q-24 -26 -42.5 -53.5t-31 -55t-19.5 -52.5t-7 -45q0 -52 26.5 -77.5t74.5 -25.5
q39 0 75.5 17t64 47t44.5 71t17 90v88q0 17 11.5 28.5t38.5 11.5q26 0 37.5 -11.5t11.5 -28.5v-328q0 -17 -11 -28.5t-36 -11.5q-26 0 -37 11.5t-11 28.5v89zM272 568q-6 7 -6 17q0 14 13 25t31 11q14 0 22.5 -5t16.5 -18l45 -81q5 -9 6 -13t1 -7q0 -12 -11.5 -20.5
t-26.5 -8.5q-22 0 -38 24z" />
    <glyph glyph-name="uacute" unicode="&#xfa;" horiz-adv-x="629" 
d="M464 119q-41 -67 -99.5 -100t-132.5 -33q-91 0 -136.5 37.5t-45.5 94.5q0 30 11 65.5t30.5 71.5t47.5 71t61 64q11 11 19.5 14t18.5 3q13 0 22.5 -9.5t9.5 -19.5q0 -5 -2 -10.5t-10 -13.5q-24 -26 -42.5 -53.5t-31 -55t-19.5 -52.5t-7 -45q0 -52 26.5 -77.5t74.5 -25.5
q39 0 75.5 17t64 47t44.5 71t17 90v88q0 17 11.5 28.5t38.5 11.5q26 0 37.5 -11.5t11.5 -28.5v-328q0 -17 -11 -28.5t-36 -11.5q-26 0 -37 11.5t-11 28.5v89zM385 492q-17 -24 -38 -24q-16 0 -27 8.5t-11 20.5q0 3 1 7t6 13l45 81q7 13 15.5 18t23.5 5q18 0 31 -11t13 -25
q0 -10 -6 -17z" />
    <glyph glyph-name="ucircumflex" unicode="&#xfb;" horiz-adv-x="629" 
d="M464 119q-41 -67 -99.5 -100t-132.5 -33q-91 0 -136.5 37.5t-45.5 94.5q0 30 11 65.5t30.5 71.5t47.5 71t61 64q11 11 19.5 14t18.5 3q13 0 22.5 -9.5t9.5 -19.5q0 -5 -2 -10.5t-10 -13.5q-24 -26 -42.5 -53.5t-31 -55t-19.5 -52.5t-7 -45q0 -52 26.5 -77.5t74.5 -25.5
q39 0 75.5 17t64 47t44.5 71t17 90v88q0 17 11.5 28.5t38.5 11.5q26 0 37.5 -11.5t11.5 -28.5v-328q0 -17 -11 -28.5t-36 -11.5q-26 0 -37 11.5t-11 28.5v89zM423 476q-20 0 -20 15q0 6 1 9q8 27 11 38.5t3 18.5q0 8 -6.5 14.5t-27.5 6.5q-38 0 -57 -14t-19 -33q0 -14 8 -28
q3 -5 3 -10q0 -8 -10.5 -13t-24.5 -5q-13 0 -24.5 3.5t-17.5 9.5q-10 10 -10 27t11 35.5t32 34.5t51.5 26t70.5 10q48 0 68 -13.5t20 -32.5q0 -14 -7 -38t-17 -42q-6 -11 -13.5 -15t-24.5 -4z" />
    <glyph glyph-name="udieresis" unicode="&#xfc;" horiz-adv-x="629" 
d="M464 119q-41 -67 -99.5 -100t-132.5 -33q-91 0 -136.5 37.5t-45.5 94.5q0 30 11 65.5t30.5 71.5t47.5 71t61 64q11 11 19.5 14t18.5 3q13 0 22.5 -9.5t9.5 -19.5q0 -5 -2 -10.5t-10 -13.5q-24 -26 -42.5 -53.5t-31 -55t-19.5 -52.5t-7 -45q0 -52 26.5 -77.5t74.5 -25.5
q39 0 75.5 17t64 47t44.5 71t17 90v88q0 17 11.5 28.5t38.5 11.5q26 0 37.5 -11.5t11.5 -28.5v-328q0 -17 -11 -28.5t-36 -11.5q-26 0 -37 11.5t-11 28.5v89zM278 505q-26 0 -38.5 11t-12.5 26v33q0 15 12.5 26t38.5 11t38 -11t12 -26v-33q0 -15 -12 -26t-38 -11zM452 506
q-26 0 -38 11t-12 26v33q0 15 12 26t38 11t38.5 -11t12.5 -26v-33q0 -15 -12.5 -26t-38.5 -11z" />
    <glyph glyph-name="yacute" unicode="&#xfd;" horiz-adv-x="635" 
d="M464 119q-41 -67 -99.5 -100t-132.5 -33q-91 0 -136.5 37.5t-45.5 94.5q0 30 11 65.5t30.5 71.5t47.5 71t61 64q11 11 19.5 14t18.5 3q13 0 22.5 -9.5t9.5 -19.5q0 -5 -2 -10.5t-10 -13.5q-24 -26 -42.5 -53.5t-31 -55t-19.5 -52.5t-7 -45q0 -52 26.5 -77.5t74.5 -25.5
q39 0 75.5 17t64 47t44.5 71t17 90v88q0 17 11.5 28.5t38.5 11.5q26 0 37.5 -11.5t11.5 -28.5v-331q0 -16 3 -27t3 -23q0 -51 -27.5 -102t-74.5 -92t-110.5 -66.5t-136.5 -25.5q-82 0 -123.5 31.5t-41.5 75.5q0 27 14.5 43.5t35.5 16.5q18 0 27.5 -7.5t15.5 -18.5t12 -23.5
t17 -23.5t29.5 -18.5t49.5 -7.5q46 0 84.5 15t67 41.5t44.5 64t16 82.5v157zM380 492q-17 -24 -38 -24q-16 0 -27 8.5t-11 20.5q0 3 1 7t6 13l45 81q7 13 15.5 18t23.5 5q18 0 31 -11t13 -25q0 -10 -6 -17z" />
    <glyph glyph-name="thorn" unicode="&#xfe;" horiz-adv-x="618" 
d="M234 -14q-37 0 -64 7v-262q0 -17 -11.5 -28.5t-38.5 -11.5q-26 0 -37.5 11.5t-11.5 28.5v334q-11 22 -11 53q0 20 4.5 33.5t6.5 29.5v481q0 17 11.5 28.5t37.5 11.5q27 0 38.5 -11.5t11.5 -28.5v-368q41 54 105 83.5t135 29.5q90 0 129 -36.5t39 -97.5q0 -51 -28 -102.5
t-75.5 -92.5t-110 -66.5t-130.5 -25.5zM267 55q43 0 80.5 16t65 42.5t43 61t15.5 72.5q0 48 -25.5 74t-73.5 26q-42 0 -79.5 -16.5t-66 -43.5t-45 -62.5t-16.5 -72.5q0 -44 27.5 -70.5t74.5 -26.5z" />
    <glyph glyph-name="ydieresis" unicode="&#xff;" horiz-adv-x="635" 
d="M464 119q-41 -67 -99.5 -100t-132.5 -33q-91 0 -136.5 37.5t-45.5 94.5q0 30 11 65.5t30.5 71.5t47.5 71t61 64q11 11 19.5 14t18.5 3q13 0 22.5 -9.5t9.5 -19.5q0 -5 -2 -10.5t-10 -13.5q-24 -26 -42.5 -53.5t-31 -55t-19.5 -52.5t-7 -45q0 -52 26.5 -77.5t74.5 -25.5
q39 0 75.5 17t64 47t44.5 71t17 90v88q0 17 11.5 28.5t38.5 11.5q26 0 37.5 -11.5t11.5 -28.5v-331q0 -16 3 -27t3 -23q0 -51 -27.5 -102t-74.5 -92t-110.5 -66.5t-136.5 -25.5q-82 0 -123.5 31.5t-41.5 75.5q0 27 14.5 43.5t35.5 16.5q18 0 27.5 -7.5t15.5 -18.5t12 -23.5
t17 -23.5t29.5 -18.5t49.5 -7.5q46 0 84.5 15t67 41.5t44.5 64t16 82.5v157zM255 505q-26 0 -38.5 11t-12.5 26v33q0 15 12.5 26t38.5 11t38 -11t12 -26v-33q0 -15 -12 -26t-38 -11zM429 506q-26 0 -38 11t-12 26v33q0 15 12 26t38 11t38.5 -11t12.5 -26v-33
q0 -15 -12.5 -26t-38.5 -11z" />
    <glyph glyph-name="hbar" unicode="&#x127;" horiz-adv-x="629" 
d="M167 544h131q14 0 21.5 -9.5t7.5 -21.5q0 -13 -7.5 -22.5t-21.5 -9.5h-131v-204q40 63 99.5 96.5t140.5 33.5q88 0 130 -35t42 -92q0 -31 -11 -67t-30.5 -73t-47.5 -72.5t-61 -64.5q-11 -11 -19.5 -14t-18.5 -3q-13 0 -22.5 9.5t-9.5 19.5q0 5 2 10.5t10 13.5
q24 25 42.5 53.5t31 56t19.5 52.5t7 45q0 52 -26.5 77t-74.5 25q-38 0 -74.5 -17t-64.5 -47.5t-45 -72t-17 -90.5v-93q0 -17 -11.5 -28.5t-38.5 -11.5q-26 0 -37.5 11.5t-11.5 28.5v453h-43q-14 0 -21.5 9.5t-7.5 21.5t7.5 22t21.5 10h43v118q0 17 11.5 28.5t36.5 11.5
q49 0 49 -37v-121z" />
    <glyph glyph-name="Itilde" unicode="&#x128;" horiz-adv-x="234" 
d="M169 28q0 -19 -13 -30.5t-39 -11.5t-39 11.5t-13 30.5v551q0 19 13 30.5t39 11.5t39 -11.5t13 -30.5v-551zM173 812q46 0 67 -15.5t21 -41.5q0 -15 -9 -24.5t-29 -9.5q-14 0 -21.5 6t-14.5 16q-11 16 -33 16q-11 0 -20.5 -6t-20 -13t-22.5 -13t-27 -6q-46 0 -67 15.5
t-21 41.5q0 15 9 24.5t29 9.5q14 0 21.5 -6t14.5 -16q11 -16 33 -16q11 0 19 6t17.5 13t22 13t31.5 6z" />
    <glyph glyph-name="itilde" unicode="&#x129;" horiz-adv-x="241" 
d="M121 403q26 0 38 -10.5t12 -26.5v-339q0 -15 -12 -26t-38 -11t-38.5 11t-12.5 26v339q0 16 12.5 26.5t38.5 10.5zM177 612q46 0 67 -15.5t21 -41.5q0 -15 -9 -24.5t-29 -9.5q-14 0 -21.5 6t-14.5 16q-11 16 -33 16q-11 0 -20.5 -6t-20 -13t-22.5 -13t-27 -6
q-46 0 -67 15.5t-21 41.5q0 15 9 24.5t29 9.5q14 0 21.5 -6t14.5 -16q11 -16 33 -16q11 0 19 6t17.5 13t22 13t31.5 6z" />
    <glyph glyph-name="dotlessi" unicode="&#x131;" horiz-adv-x="241" 
d="M121 403q26 0 38 -10.5t12 -26.5v-339q0 -15 -12 -26t-38 -11t-38.5 11t-12.5 26v339q0 16 12.5 26.5t38.5 10.5z" />
    <glyph glyph-name="IJ" unicode="&#x132;" horiz-adv-x="798" 
d="M169 28q0 -19 -13 -30.5t-39 -11.5t-39 11.5t-13 30.5v551q0 19 13 30.5t39 11.5t39 -11.5t13 -30.5v-551zM634 579q0 19 13 30.5t39 11.5t39 -11.5t13 -30.5v-295q0 -55 -22 -108.5t-64 -95.5t-102.5 -68t-136.5 -26q-38 0 -69 10t-53.5 27t-34.5 40t-12 50
q0 31 17 50.5t43 19.5q46 0 46 -40q1 -49 26.5 -72t72.5 -23q45 0 79.5 17t58 45.5t35.5 67t12 81.5v320z" />
    <glyph glyph-name="ij" unicode="&#x133;" horiz-adv-x="480" 
d="M171 30q0 -17 -12 -28.5t-39 -11.5q-26 0 -38 11.5t-12 28.5v333q0 17 12 28.5t38 11.5q27 0 39 -11.5t12 -28.5v-333zM120 494q-30 0 -44 12.5t-14 29.5v38q0 17 14 29.5t44 12.5q29 0 43.5 -12.5t14.5 -29.5v-38q0 -17 -14.5 -29.5t-43.5 -12.5zM360 494
q-30 0 -44 12.5t-14 29.5v38q0 17 14 29.5t44 12.5q29 0 43.5 -12.5t14.5 -29.5v-38q0 -17 -14.5 -29.5t-43.5 -12.5zM311 363q0 17 11.5 28.5t37.5 11.5q27 0 38.5 -11.5t11.5 -28.5v-319q0 -24 3 -48t7 -46.5t7 -42.5t3 -36q0 -37 -9 -69.5t-28 -57t-48.5 -39t-69.5 -14.5
q-22 0 -42.5 7t-36 19.5t-25 30.5t-9.5 40q0 29 13 44.5t33 15.5q26 0 34.5 -14t12 -30.5t9 -30.5t26.5 -14q19 0 29 13.5t10 48.5q0 29 -3 55t-6 53t-6 56t-3 65v313z" />
    <glyph glyph-name="Jcircumflex" unicode="&#x134;" horiz-adv-x="564" 
d="M400 579q0 19 13 30.5t39 11.5t39 -11.5t13 -30.5v-295q0 -55 -22 -108.5t-64 -95.5t-102.5 -68t-136.5 -26q-38 0 -69 10t-53.5 27t-34.5 40t-12 50q0 31 17 50.5t43 19.5q46 0 46 -40q1 -49 26.5 -72t72.5 -23q45 0 79.5 17t58 45.5t35.5 67t12 81.5v320zM505 676
q-20 0 -20 15q0 6 1 9q8 27 11 38.5t3 18.5q0 8 -6.5 14.5t-27.5 6.5q-38 0 -57 -14t-19 -33q0 -14 8 -28q3 -5 3 -10q0 -8 -10.5 -13t-24.5 -5q-13 0 -24.5 3.5t-17.5 9.5q-10 10 -10 27t11 35.5t32 34.5t51.5 26t70.5 10q48 0 68 -13.5t20 -32.5q0 -14 -7 -38t-17 -42
q-6 -11 -13.5 -15t-24.5 -4z" />
    <glyph glyph-name="jcircumflex" unicode="&#x135;" horiz-adv-x="239" 
d="M187 476q-20 0 -20 15q0 6 1 9q8 27 11 38.5t3 18.5q0 8 -6.5 14.5t-27.5 6.5q-38 0 -57 -14t-19 -33q0 -14 8 -28q3 -5 3 -10q0 -8 -10.5 -13t-24.5 -5q-13 0 -24.5 3.5t-17.5 9.5q-10 10 -10 27t11 35.5t32 34.5t51.5 26t70.5 10q48 0 68 -13.5t20 -32.5q0 -14 -7 -38
t-17 -42q-6 -11 -13.5 -15t-24.5 -4zM70 363q0 17 11.5 28.5t37.5 11.5q27 0 38.5 -11.5t11.5 -28.5v-319q0 -24 3 -48t7 -46.5t7 -42.5t3 -36q0 -37 -9 -69.5t-28 -57t-48.5 -39t-69.5 -14.5q-22 0 -42.5 7t-36 19.5t-25 30.5t-9.5 40q0 29 13 44.5t33 15.5q26 0 34.5 -14
t12 -30.5t9 -30.5t26.5 -14q19 0 29 13.5t10 48.5q0 29 -3 55t-6 53t-6 56t-3 65v313z" />
    <glyph glyph-name="kcommaaccent" unicode="&#x137;" horiz-adv-x="455" 
d="M169 30q0 -17 -11.5 -28.5t-38.5 -11.5q-26 0 -37.5 11.5t-11.5 28.5v632q0 17 11.5 28.5t37.5 11.5q27 0 38.5 -11.5t11.5 -28.5l-3 -401q10 27 31.5 53t50 46.5t62.5 32.5t69 12q36 0 51 -12.5t15 -32.5q0 -45 -34 -45q-10 0 -18.5 2.5t-17.5 6t-19.5 6t-24.5 2.5
q-24 0 -45 -8.5t-36.5 -22t-24 -31.5t-8.5 -37q0 -26 17 -51t43.5 -46t58 -36t61.5 -20q26 -5 35 -14.5t9 -32.5q0 -19 -12 -33t-36 -14q-37 0 -75.5 19t-70.5 52t-55 77q-22 43 -26 92zM288 -191q0 -11 -4.5 -23.5t-17.5 -41.5l-19 -39q-4 -13 -19 -13q-7 0 -16 3
q-22 9 -22 24q0 2 2 8l22 48q-20 11 -20 30v30q0 14 11.5 24t36.5 10q23 0 34.5 -10t11.5 -24v-26z" />
    <glyph glyph-name="kgreenlandic" unicode="&#x138;" horiz-adv-x="455" 
d="M169 30q0 -17 -11.5 -28.5t-38.5 -11.5q-26 0 -37.5 11.5t-11.5 28.5v328q0 17 11.5 28.5t37.5 11.5q27 0 38.5 -11.5t11.5 -28.5l-3 -123q10 32 30.5 62.5t49 54.5t64 38.5t74.5 14.5q36 0 48.5 -12.5t12.5 -32.5q0 -45 -34 -45q-10 0 -18.5 2.5t-17.5 6t-19.5 6
t-24.5 2.5q-24 0 -44.5 -11t-36 -28t-24.5 -38t-9 -42q0 -26 17 -48.5t43 -40t58.5 -29t62.5 -15.5q24 -3 33.5 -13.5t9.5 -33.5q0 -19 -11.5 -33t-35.5 -14q-36 0 -74.5 17.5t-71 47t-55.5 68.5q-22 39 -27 81z" />
    <glyph glyph-name="Ldotaccent" unicode="&#x13f;" horiz-adv-x="474" 
d="M433 64q12 0 19 -9t7 -23t-7 -23t-19 -9h-222q-81 0 -116 38.5t-35 101.5q0 26 4.5 53.5t4.5 53.5v336q0 17 13.5 27.5t38.5 10.5q26 0 39 -10.5t13 -27.5v-376q0 -43 2.5 -71t12 -44t28.5 -22t51 -6h166zM306 398q-26 0 -38.5 10.5t-12.5 26.5v32q0 16 12.5 26.5
t38.5 10.5t38 -10.5t12 -26.5v-32q0 -16 -12 -26.5t-38 -10.5z" />
    <glyph glyph-name="ldot" unicode="&#x140;" horiz-adv-x="362" 
d="M171 30q0 -17 -12 -28.5t-39 -11.5q-26 0 -38 11.5t-12 28.5v632q0 17 12 28.5t38 11.5q27 0 39 -11.5t12 -28.5v-632zM262 505q-26 0 -38.5 10.5t-12.5 26.5v32q0 16 12.5 26.5t38.5 10.5t38 -10.5t12 -26.5v-32q0 -16 -12 -26.5t-38 -10.5z" />
    <glyph glyph-name="Lslash" unicode="&#x141;" horiz-adv-x="474" 
d="M433 64q12 0 19 -9t7 -23t-7 -23t-19 -9h-222q-81 0 -116 38.5t-35 101.5q0 26 4.5 53.5t4.5 53.5v38l-27 -6q-3 -1 -8 -1q-22 0 -27 26q-1 3 -1 9q0 22 22 27l41 9v234q0 17 13.5 27.5t38.5 10.5q26 0 39 -10.5t13 -27.5v-212l120 27q3 1 8 1q21 0 26 -24q1 -4 1 -10
q0 -11 -5.5 -18.5t-16.5 -9.5l-133 -29v-101q0 -43 2.5 -71t12 -44t28.5 -22t51 -6h166z" />
    <glyph glyph-name="lslash" unicode="&#x142;" horiz-adv-x="241" 
d="M259 361q1 -17 -6 -23.5t-16 -8.5l-66 -15v-284q0 -17 -12 -28.5t-39 -11.5q-26 0 -38 11.5t-12 28.5v262l-60 -13q-9 -2 -17.5 6.5t-10.5 25.5q-1 17 6 23t16 8l66 14v306q0 17 12 28.5t38 11.5q27 0 39 -11.5t12 -28.5v-283l60 13h4q8 0 15 -8t9 -23z" />
    <glyph glyph-name="Nacute" unicode="&#x143;" horiz-adv-x="739" 
d="M175 524q1 -106 21 -192.5t53 -148.5t77 -96t93 -34q36 0 65.5 12.5t51 38.5t33 67t11.5 97q0 63 -21 129.5t-63 130.5q-14 22 -19 34.5t-5 21.5q0 17 17 29t38 12q19 0 34 -10t41 -42q38 -51 60 -123t22 -157q0 -63 -21 -119t-57.5 -97.5t-86.5 -66t-108 -24.5
q-94 0 -157.5 63.5t-83.5 179.5v-201q0 -19 -13 -30.5t-37 -11.5t-37 11.5t-13 30.5v551q0 19 13 30.5t39 11.5t39 -11.5t13 -30.5zM371 692q-17 -24 -38 -24q-16 0 -27 8.5t-11 20.5q0 3 1 7t6 13l45 81q7 13 15.5 18t23.5 5q18 0 31 -11t13 -25q0 -10 -6 -17z" />
    <glyph glyph-name="nacute" unicode="&#x144;" horiz-adv-x="629" 
d="M165 276q81 131 242 131q88 0 130 -35t42 -92q0 -31 -11 -67t-30.5 -73t-47.5 -72.5t-61 -64.5q-11 -11 -19.5 -14t-18.5 -3q-13 0 -22.5 9.5t-9.5 19.5q0 5 2 10.5t10 13.5q24 25 42.5 53.5t31 56t19.5 52.5t7 45q0 52 -26.5 77t-74.5 25q-38 0 -74.5 -17t-64.5 -47.5
t-45 -72t-17 -90.5v-93q0 -17 -11.5 -28.5t-38.5 -11.5q-26 0 -37.5 11.5t-11.5 28.5v330q0 17 11 28.5t36 11.5q26 0 37 -11.5t11 -28.5v-82zM323 492q-17 -24 -38 -24q-16 0 -27 8.5t-11 20.5q0 3 1 7t6 13l45 81q7 13 15.5 18t23.5 5q18 0 31 -11t13 -25q0 -10 -6 -17z
" />
    <glyph glyph-name="OE" unicode="&#x152;" horiz-adv-x="1050" 
d="M952 106q30 0 30 -29q0 -14 -7 -23t-25 -19q-17 -9 -44 -18t-62.5 -15.5t-76.5 -11t-85 -4.5q-38 0 -65.5 2t-46.5 6.5t-30.5 11t-17.5 16.5q-43 -17 -89.5 -26.5t-96.5 -9.5q-70 0 -125 16t-93 46t-58 72.5t-20 94.5q0 82 39 156t104.5 130t151 89t178.5 33
q36 0 69.5 -4t62.5 -13l10 2q18 4 38 7t39 5t35.5 3.5t26.5 1.5q62 0 102 -5.5t63 -15.5t32 -24t9 -30q0 -23 -15 -37t-35 -14q-14 0 -28.5 5.5t-22.5 13.5q-11 10 -22 18t-26.5 13.5t-36.5 8t-50 2.5q-7 0 -17.5 -1t-22 -2t-21.5 -3t-16 -3q-24 -6 -38.5 -12.5t-22 -18.5
t-9.5 -32t-2 -53v-90h215q14 0 22 -9t8 -23t-8 -23t-22 -9h-215v-180q0 -17 2.5 -26.5t10.5 -14.5t24.5 -6.5t43.5 -1.5q43 0 77.5 3.5t62 10t50.5 15t43 18.5q13 7 23 7zM368 55q39 0 75 7.5t68 18.5v320q0 49 7 84.5t25 61.5q-31 7 -70 7q-65 0 -122.5 -23.5t-100.5 -64.5
t-67.5 -97t-24.5 -120q0 -47 15 -83t42.5 -60.5t66.5 -37.5t86 -13z" />
    <glyph glyph-name="oe" unicode="&#x153;" horiz-adv-x="953" 
d="M768 407q85 0 124.5 -29t39.5 -71q0 -49 -34.5 -83.5t-117.5 -48.5l-249 -42q0 -37 20.5 -58.5t75.5 -21.5q50 0 92.5 12t81.5 31q18 9 28 9q19 0 22 -21v-6q0 -18 -20 -29q-116 -63 -233 -63q-72 0 -106 25.5t-47 70.5q-47 -47 -107.5 -71.5t-126.5 -24.5
q-90 0 -130.5 34.5t-40.5 89.5q0 51 28 104t75.5 96t110 70t131.5 27q71 0 105 -26.5t44 -64.5q46 43 108.5 67t125.5 24zM343 344q-42 0 -77.5 -16t-61.5 -43t-41 -62t-15 -72q0 -48 28 -75t76 -27q41 0 77 16.5t63 43.5t43 62t16 73q0 45 -28.5 72.5t-79.5 27.5zM735 350
q-35 0 -69 -13t-61.5 -35t-47 -50.5t-25.5 -58.5l218 35q50 8 65.5 23t15.5 38q0 24 -24 42.5t-72 18.5z" />
    <glyph glyph-name="Racute" unicode="&#x154;" horiz-adv-x="649" 
d="M174 28q0 -17 -13 -27.5t-38 -10.5t-39 10.5t-14 27.5v433q0 30 4 52t16.5 38t36 28t61.5 23q15 4 36.5 8.5t44.5 8t44.5 5.5t38.5 2q119 0 175 -42t56 -108q0 -35 -13.5 -67t-39 -58.5t-62.5 -45.5t-85 -28q43 -7 82 -31.5t69 -59t47.5 -75.5t17.5 -81q0 -20 -13.5 -31
t-39.5 -11t-38 11t-14 30q-4 49 -24.5 89.5t-50.5 70t-67.5 46t-74.5 16.5h-20q-19 0 -41 1.5t-42 4.5v-229zM174 311q17 -3 40.5 -3.5t46.5 -0.5q114 0 165.5 40t51.5 111q0 51 -36.5 81t-110.5 30q-20 0 -42.5 -2.5t-38.5 -6.5q-26 -6 -41.5 -12.5t-23 -17t-9.5 -27
t-2 -44.5v-148zM336 692q-17 -24 -38 -24q-16 0 -27 8.5t-11 20.5q0 3 1 7t6 13l45 81q7 13 15.5 18t23.5 5q18 0 31 -11t13 -25q0 -10 -6 -17z" />
    <glyph glyph-name="Rcommaaccent" unicode="&#x156;" horiz-adv-x="649" 
d="M174 28q0 -17 -13 -27.5t-38 -10.5t-39 10.5t-14 27.5v433q0 30 4 52t16.5 38t36 28t61.5 23q15 4 36.5 8.5t44.5 8t44.5 5.5t38.5 2q119 0 175 -42t56 -108q0 -35 -13.5 -67t-39 -58.5t-62.5 -45.5t-85 -28q43 -7 82 -31.5t69 -59t47.5 -75.5t17.5 -81q0 -20 -13.5 -31
t-39.5 -11t-38 11t-14 30q-4 49 -24.5 89.5t-50.5 70t-67.5 46t-74.5 16.5h-20q-19 0 -41 1.5t-42 4.5v-229zM174 311q17 -3 40.5 -3.5t46.5 -0.5q114 0 165.5 40t51.5 111q0 51 -36.5 81t-110.5 30q-20 0 -42.5 -2.5t-38.5 -6.5q-26 -6 -41.5 -12.5t-23 -17t-9.5 -27
t-2 -44.5v-148zM372 -190q0 -11 -4.5 -23.5t-17.5 -41.5l-19 -39q-4 -13 -19 -13q-7 0 -16 3q-22 9 -22 24q0 2 2 8l22 48q-20 11 -20 30v30q0 14 11.5 24t36.5 10q23 0 34.5 -10t11.5 -24v-26z" />
    <glyph glyph-name="rcommaaccent" unicode="&#x157;" horiz-adv-x="487" 
d="M165 246q29 84 78.5 122.5t104.5 38.5q57 0 90.5 -24.5t33.5 -54.5q0 -21 -14 -36t-38 -15q-34 0 -53 29q-11 17 -23.5 24t-29.5 7q-23 0 -48.5 -23t-47 -59.5t-35.5 -83t-14 -92.5v-51q0 -17 -11.5 -28.5t-38.5 -11.5q-26 0 -37.5 11.5t-11.5 28.5v330q0 17 11 28.5
t36 11.5q26 0 37 -11.5t11 -28.5v-112zM286 -187q0 -11 -4.5 -23.5t-17.5 -41.5l-19 -39q-4 -13 -19 -13q-7 0 -16 3q-22 9 -22 24q0 2 2 8l22 48q-20 11 -20 30v30q0 14 11.5 24t36.5 10q23 0 34.5 -10t11.5 -24v-26z" />
    <glyph glyph-name="Rcaron" unicode="&#x158;" horiz-adv-x="649" 
d="M174 28q0 -17 -13 -27.5t-38 -10.5t-39 10.5t-14 27.5v433q0 30 4 52t16.5 38t36 28t61.5 23q15 4 36.5 8.5t44.5 8t44.5 5.5t38.5 2q119 0 175 -42t56 -108q0 -35 -13.5 -67t-39 -58.5t-62.5 -45.5t-85 -28q43 -7 82 -31.5t69 -59t47.5 -75.5t17.5 -81q0 -20 -13.5 -31
t-39.5 -11t-38 11t-14 30q-4 49 -24.5 89.5t-50.5 70t-67.5 46t-74.5 16.5h-20q-19 0 -41 1.5t-42 4.5v-229zM174 311q17 -3 40.5 -3.5t46.5 -0.5q114 0 165.5 40t51.5 111q0 51 -36.5 81t-110.5 30q-20 0 -42.5 -2.5t-38.5 -6.5q-26 -6 -41.5 -12.5t-23 -17t-9.5 -27
t-2 -44.5v-148zM255 820q20 0 20 -15q0 -6 -1 -9q-8 -27 -11 -38.5t-3 -18.5q0 -8 6.5 -14.5t27.5 -6.5q38 0 57 14t19 33q0 14 -8 28q-3 4 -3 10q0 8 10.5 13t24.5 5q13 0 24.5 -3.5t17.5 -9.5q10 -10 10 -27t-11 -35.5t-32 -34.5t-51.5 -26t-70.5 -10q-48 0 -68 13.5
t-20 32.5q0 14 7 38t17 42q6 11 13.5 15t24.5 4z" />
    <glyph glyph-name="rcaron" unicode="&#x159;" horiz-adv-x="487" 
d="M165 246q29 84 78.5 122.5t104.5 38.5q57 0 90.5 -24.5t33.5 -54.5q0 -21 -14 -36t-38 -15q-34 0 -53 29q-11 17 -23.5 24t-29.5 7q-23 0 -48.5 -23t-47 -59.5t-35.5 -83t-14 -92.5v-51q0 -17 -11.5 -28.5t-38.5 -11.5q-26 0 -37.5 11.5t-11.5 28.5v330q0 17 11 28.5
t36 11.5q26 0 37 -11.5t11 -28.5v-112zM176 620q20 0 20 -15q0 -6 -1 -9q-8 -27 -11 -38.5t-3 -18.5q0 -8 6.5 -14.5t27.5 -6.5q38 0 57 14t19 33q0 14 -8 28q-3 4 -3 10q0 8 10.5 13t24.5 5q13 0 24.5 -3.5t17.5 -9.5q10 -10 10 -27t-11 -35.5t-32 -34.5t-51.5 -26
t-70.5 -10q-48 0 -68 13.5t-20 32.5q0 14 7 38t17 42q6 11 13.5 15t24.5 4z" />
    <glyph glyph-name="dotlessj" unicode="&#x237;" horiz-adv-x="239" 
d="M70 363q0 17 11.5 28.5t37.5 11.5q27 0 38.5 -11.5t11.5 -28.5v-319q0 -24 3 -48t7 -46.5t7 -42.5t3 -36q0 -37 -9 -69.5t-28 -57t-48.5 -39t-69.5 -14.5q-22 0 -42.5 7t-36 19.5t-25 30.5t-9.5 40q0 29 13 44.5t33 15.5q26 0 34.5 -14t12 -30.5t9 -30.5t26.5 -14
q19 0 29 13.5t10 48.5q0 29 -3 55t-6 53t-6 56t-3 65v313z" />
    <glyph glyph-name="circumflex" unicode="&#x2c6;" horiz-adv-x="293" 
d="M211 476q-20 0 -20 15q0 6 1 9q8 27 11 38.5t3 18.5q0 8 -6.5 14.5t-27.5 6.5q-38 0 -57 -14t-19 -33q0 -14 8 -28q3 -5 3 -10q0 -8 -10.5 -13t-24.5 -5q-13 0 -24.5 3.5t-17.5 9.5q-10 10 -10 27t11 35.5t32 34.5t51.5 26t70.5 10q48 0 68 -13.5t20 -32.5q0 -14 -7 -38
t-17 -42q-6 -11 -13.5 -15t-24.5 -4z" />
    <glyph glyph-name="caron" unicode="&#x2c7;" horiz-adv-x="293" 
d="M82 620q20 0 20 -15q0 -6 -1 -9q-8 -27 -11 -38.5t-3 -18.5q0 -8 6.5 -14.5t27.5 -6.5q38 0 57 14t19 33q0 14 -8 28q-3 4 -3 10q0 8 10.5 13t24.5 5q13 0 24.5 -3.5t17.5 -9.5q10 -10 10 -27t-11 -35.5t-32 -34.5t-51.5 -26t-70.5 -10q-48 0 -68 13.5t-20 32.5
q0 14 7 38t17 42q6 11 13.5 15t24.5 4z" />
    <glyph glyph-name="ring" unicode="&#x2da;" horiz-adv-x="262" 
d="M163 656q38 0 58.5 -14.5t20.5 -39.5q0 -20 -12 -41t-32 -38t-46 -27.5t-54 -10.5q-42 0 -60 16t-18 39q0 21 12 41.5t32 37t46 27t53 10.5zM185 587q0 16 -11 25t-29 9q-28 0 -48 -20t-20 -46q0 -33 41 -33q27 0 47 20t20 45z" />
    <glyph glyph-name="tilde" unicode="&#x2dc;" horiz-adv-x="325" 
d="M217 612q46 0 67 -15.5t21 -41.5q0 -15 -9 -24.5t-29 -9.5q-14 0 -21.5 6t-14.5 16q-11 16 -33 16q-11 0 -20.5 -6t-20 -13t-22.5 -13t-27 -6q-46 0 -67 15.5t-21 41.5q0 15 9 24.5t29 9.5q14 0 21.5 -6t14.5 -16q11 -16 33 -16q11 0 19 6t17.5 13t22 13t31.5 6z" />
    <glyph glyph-name="dotaccentcmb" unicode="&#x307;" horiz-adv-x="141" 
d="M71 505q-26 0 -38.5 10.5t-12.5 26.5v32q0 16 12.5 26.5t38.5 10.5t38 -10.5t12 -26.5v-32q0 -16 -12 -26.5t-38 -10.5z" />
    <glyph glyph-name="endash" unicode="&#x2013;" horiz-adv-x="411" 
d="M99 179q-29 0 -29 32q0 31 29 31h213q29 0 29 -31q0 -32 -29 -32h-213z" />
    <glyph glyph-name="emdash" unicode="&#x2014;" horiz-adv-x="641" 
d="M79 179q-29 0 -29 32q0 31 29 31h483q29 0 29 -31q0 -32 -29 -32h-483z" />
    <glyph glyph-name="quoteleft" unicode="&#x2018;" horiz-adv-x="163" 
d="M30 581q0 10 4 21.5t16 37.5l21 47q4 12 18 12q6 0 14 -3q19 -8 19 -22q0 -2 -2 -8l-23 -54q19 -10 19 -27v-27q0 -14 -11 -22.5t-33 -8.5q-21 0 -31.5 8.5t-10.5 22.5v23z" />
    <glyph glyph-name="quoteright" unicode="&#x2019;" horiz-adv-x="163" 
d="M133 648q0 -10 -4 -21.5t-16 -37.5l-21 -47q-5 -12 -18 -12q-7 0 -14 3q-19 8 -19 22q0 2 2 8l23 54q-19 10 -19 27v27q0 14 11 22.5t33 8.5q21 0 31.5 -8.5t10.5 -22.5v-23z" />
    <glyph glyph-name="quotesinglbase" unicode="&#x201a;" horiz-adv-x="163" 
d="M133 31q0 -10 -4 -21.5t-16 -37.5l-21 -47q-5 -12 -18 -12q-7 0 -14 3q-19 8 -19 22q0 2 2 8l23 54q-19 10 -19 27v27q0 14 11 22.5t33 8.5q21 0 31.5 -8.5t10.5 -22.5v-23z" />
    <glyph glyph-name="quotedblleft" unicode="&#x201c;" horiz-adv-x="280" 
d="M30 581q0 10 4 21.5t16 37.5l21 47q4 12 18 12q6 0 14 -3q19 -8 19 -22q0 -2 -2 -8l-23 -54q19 -10 19 -27v-27q0 -14 -11 -22.5t-33 -8.5q-21 0 -31.5 8.5t-10.5 22.5v23zM147 581q0 10 4 21.5t16 37.5l21 47q4 12 18 12q6 0 14 -3q19 -8 19 -22q0 -2 -2 -8l-23 -54
q19 -10 19 -27v-27q0 -14 -11 -22.5t-33 -8.5q-21 0 -31.5 8.5t-10.5 22.5v23z" />
    <glyph glyph-name="quotedblright" unicode="&#x201d;" horiz-adv-x="280" 
d="M133 648q0 -10 -4 -21.5t-16 -37.5l-21 -47q-5 -12 -18 -12q-7 0 -14 3q-19 8 -19 22q0 2 2 8l23 54q-19 10 -19 27v27q0 14 11 22.5t33 8.5q21 0 31.5 -8.5t10.5 -22.5v-23zM250 648q0 -10 -4 -21.5t-16 -37.5l-21 -47q-5 -12 -18 -12q-7 0 -14 3q-19 8 -19 22q0 2 2 8
l23 54q-19 10 -19 27v27q0 14 11 22.5t33 8.5q21 0 31.5 -8.5t10.5 -22.5v-23z" />
    <glyph glyph-name="quotedblbase" unicode="&#x201e;" horiz-adv-x="280" 
d="M133 31q0 -10 -4 -21.5t-16 -37.5l-21 -47q-5 -12 -18 -12q-7 0 -14 3q-19 8 -19 22q0 2 2 8l23 54q-19 10 -19 27v27q0 14 11 22.5t33 8.5q21 0 31.5 -8.5t10.5 -22.5v-23zM250 31q0 -10 -4 -21.5t-16 -37.5l-21 -47q-5 -12 -18 -12q-7 0 -14 3q-19 8 -19 22q0 2 2 8
l23 54q-19 10 -19 27v27q0 14 11 22.5t33 8.5q21 0 31.5 -8.5t10.5 -22.5v-23z" />
    <glyph glyph-name="bullet" unicode="&#x2022;" horiz-adv-x="241" 
d="M121 136q-32 0 -46.5 12.5t-14.5 31.5v38q0 19 14.5 31.5t46.5 12.5q31 0 45.5 -12.5t14.5 -31.5v-38q0 -19 -14.5 -31.5t-45.5 -12.5z" />
    <glyph glyph-name="guilsinglleft" unicode="&#x2039;" horiz-adv-x="283" 
d="M128 230l96 -101q7 -7 7 -17q0 -14 -13 -27q-11 -11 -24 -11q-12 0 -21 10l-108 120q-15 16 -15 27q0 6 3.5 12t11.5 14l109 120q9 10 21 10q13 0 24 -11q13 -13 13 -26q0 -11 -7 -18z" />
    <glyph glyph-name="guilsinglright" unicode="&#x203a;" horiz-adv-x="283" 
d="M58 332q-7 7 -7 18q0 13 13 26q11 11 24 11q12 0 21 -10l109 -120q8 -8 11.5 -14t3.5 -12q0 -11 -15 -27l-108 -120q-9 -10 -21 -10q-13 0 -24 11q-13 13 -13 27q0 10 7 17l96 101z" />
    <glyph glyph-name="Euro" unicode="&#x20ac;" horiz-adv-x="780" 
d="M248 348q-11 -38 -14 -74h177q12 0 19 -8.5t7 -21.5q0 -14 -7 -22t-19 -8h-178q5 -78 42.5 -118.5t108.5 -40.5q35 0 65 8.5t56 22.5t48 32.5t40 39.5q12 14 23.5 21t28.5 7q16 0 25 -8t9 -22q0 -16 -15 -32q-26 -28 -61 -53t-75 -44t-83.5 -30t-86.5 -11
q-66 0 -112 15.5t-75 44t-42.5 68.5t-13.5 90v10h-59q-12 0 -19 8t-7 22q0 13 7 21.5t19 8.5h65q8 39 21 74h-56q-12 0 -19 8.5t-7 21.5t7 21.5t19 8.5h84q26 46 63 86t83.5 69.5t101 46t115.5 16.5q83 0 135 -24t79 -59q13 -16 13 -38q0 -21 -17 -36t-44 -15q-14 0 -28 7.5
t-25 20.5q-33 40 -70 57.5t-88 17.5q-69 0 -125 -42t-90 -107h168q12 0 19 -8.5t7 -21.5t-7 -21.5t-19 -8.5h-193z" />
    <glyph glyph-name="commaaccent" unicode="&#xf6c3;" horiz-adv-x="138" 
d="M118 20q0 -11 -4.5 -23.5t-17.5 -41.5l-19 -39q-4 -13 -19 -13q-7 0 -16 3q-22 9 -22 24q0 2 2 8l22 48q-20 11 -20 30v30q0 14 11.5 24t36.5 10q23 0 34.5 -10t11.5 -24v-26z" />
    <glyph glyph-name="grave.cap" horiz-adv-x="175" 
d="M26 796q-6 7 -6 17q0 14 13 25t31 11q14 0 22.5 -5t16.5 -18l45 -81q5 -9 6 -13t1 -7q0 -12 -11.5 -20.5t-26.5 -8.5q-22 0 -38 24z" />
    <glyph glyph-name="dieresis.cap" horiz-adv-x="316" 
d="M71 715q-26 0 -38.5 11t-12.5 26v33q0 15 12.5 26t38.5 11t38 -11t12 -26v-33q0 -15 -12 -26t-38 -11zM245 716q-26 0 -38 11t-12 26v33q0 15 12 26t38 11t38.5 -11t12.5 -26v-33q0 -15 -12.5 -26t-38.5 -11z" />
    <glyph glyph-name="acute.cap" horiz-adv-x="175" 
d="M96 720q-17 -24 -38 -24q-16 0 -27 8.5t-11 20.5q0 3 1 7t6 13l45 81q7 13 15.5 18t23.5 5q18 0 31 -11t13 -25q0 -10 -6 -17z" />
    <glyph glyph-name="circumflex.cap" horiz-adv-x="293" 
d="M211 697q-20 0 -20 15q0 6 1 9q8 27 11 38.5t3 18.5q0 8 -6.5 14.5t-27.5 6.5q-38 0 -57 -14t-19 -33q0 -14 8 -28q3 -5 3 -10q0 -8 -10.5 -13t-24.5 -5q-13 0 -24.5 3.5t-17.5 9.5q-10 10 -10 27t11 35.5t32 34.5t51.5 26t70.5 10q48 0 68 -13.5t20 -32.5q0 -14 -7 -38
t-17 -42q-6 -11 -13.5 -15t-24.5 -4z" />
    <glyph glyph-name="caron.cap" horiz-adv-x="293" 
d="M82 841q20 0 20 -15q0 -6 -1 -9q-8 -27 -11 -38.5t-3 -18.5q0 -8 6.5 -14.5t27.5 -6.5q38 0 57 14t19 33q0 14 -8 28q-3 4 -3 10q0 8 10.5 13t24.5 5q13 0 24.5 -3.5t17.5 -9.5q10 -10 10 -27t-11 -35.5t-32 -34.5t-51.5 -26t-70.5 -10q-48 0 -68 13.5t-20 32.5
q0 14 7 38t17 42q6 11 13.5 15t24.5 4z" />
    <glyph glyph-name="ring.cap" horiz-adv-x="268" 
d="M167 856q38 0 59.5 -14.5t21.5 -40.5q0 -21 -12.5 -42.5t-33 -38.5t-47 -28t-55.5 -11q-42 0 -61 16.5t-19 39.5q0 22 12.5 43t33 38t47 27.5t54.5 10.5zM189 785q0 17 -11 26t-30 9q-29 0 -49 -20.5t-20 -46.5q0 -34 42 -34q28 0 48 20.5t20 45.5z" />
    <glyph glyph-name="tilde.cap" horiz-adv-x="325" 
d="M217 813q46 0 67 -15.5t21 -41.5q0 -15 -9 -24.5t-29 -9.5q-14 0 -21.5 6t-14.5 16q-11 16 -33 16q-11 0 -20.5 -6t-20 -13t-22.5 -13t-27 -6q-46 0 -67 15.5t-21 41.5q0 15 9 24.5t29 9.5q14 0 21.5 -6t14.5 -16q11 -16 33 -16q11 0 19 6t17.5 13t22 13t31.5 6z" />
    <glyph glyph-name="dotaccentcmb.cap" horiz-adv-x="141" 
d="M71 705q-26 0 -38.5 10.5t-12.5 26.5v32q0 16 12.5 26.5t38.5 10.5t38 -10.5t12 -26.5v-32q0 -16 -12 -26.5t-38 -10.5z" />
    <glyph glyph-name="foundryicon" horiz-adv-x="864" 
d="M144 0v576h288v-288h288v-288h-576zM576 432v144h144v-144h-144z" />
    </font>
</defs>
</svg>
